<svg width="385" height="338" viewBox="0 0 385 338" fill="none" xmlns="http://www.w3.org/2000/svg">
<g clip-path="url(#clip0_1098_7389)">
<path d="M377.417 204.008C377.417 211.777 376.9 219.407 375.935 226.898C375.591 229.522 357.22 232.112 356.737 234.701C356.289 237.291 373.729 239.88 373.178 242.435C355.703 319.874 286.596 377.704 204.012 377.704C112.191 377.704 37.0181 306.202 30.9863 215.747C30.745 211.88 118.568 207.944 118.568 204.008C118.568 200.729 30.7106 197.483 30.8829 194.272C31.5378 182.361 33.399 170.761 36.3287 159.575C37.2938 155.881 6.37664 152.221 7.583 148.596C8.68595 145.281 41.9469 142.036 43.2222 138.825C47.2204 128.916 52.1148 119.457 57.8019 110.549C60.318 106.648 158.412 102.816 161.238 99.1214C163.479 96.1522 70.348 93.2521 72.7952 90.4556C104.574 53.6174 151.587 30.313 204.012 30.313C251.887 30.313 295.247 49.7506 326.613 81.2029C330.266 84.8625 370.145 88.6948 373.454 92.6652C376.762 96.6356 343.536 100.779 346.5 105.025C351.36 112.034 355.737 119.457 359.529 127.156C361.562 131.264 105.263 139.723 365.113 139.723C367.008 144.487 368.697 149.355 370.179 154.327C374.901 170.07 377.417 186.746 377.417 204.008Z" fill="#E1F2F6"/>
<path d="M-40.3612 255.14C-25.6436 253.345 -10.8227 251.618 3.75702 249.064C17.8197 246.612 30.9517 244.472 44.6697 237.981C51.0117 234.977 68.8658 225.241 76.8967 218.543C81.1706 214.953 148.278 238.637 163.548 243.298C192.879 252.24 223.107 259.525 254.128 263.806C290.353 268.812 327.509 271.816 363.389 263.944C365.871 263.391 390.515 258.661 390.515 256.59V343.869L-75.5178 345.596V260.077C-63.9368 257.971 -52.1145 256.59 -40.3612 255.14Z" fill="#0077B5"/>
<path opacity="0.06" d="M77.9307 221.685C78.9647 223.722 80.757 225.448 82.8251 226.864C86.2373 229.212 90.1321 231.283 94.1303 232.975C102.402 236.427 111.192 239.362 118.602 243.954C122.014 246.06 125.702 248.753 126.736 252.24C128.012 256.417 124.91 260.595 120.877 263.115C116.12 266.05 110.089 267.569 104.229 268.398C95.8192 269.571 87.1679 269.813 78.689 270.02C60.9728 270.504 43.3255 271.091 25.6782 272.713C8.16884 274.336 -9.23716 276.718 -26.3674 280.136C-42.6705 283.381 -58.8012 284.521 -75.5178 286.143V260.042C-63.9368 257.902 -52.1145 256.555 -40.3612 255.105C-25.6436 253.31 -10.8227 251.584 3.75702 249.029C17.8197 246.578 30.9517 244.437 44.6697 237.946C51.0117 234.943 68.8658 225.207 76.8967 218.509C77.0345 218.405 77.2413 218.302 77.4826 218.267C77.3103 219.441 77.3448 220.546 77.9307 221.685Z" fill="black"/>
<path opacity="0.06" d="M140.144 282.725C165.374 284.106 190.294 287.524 215.042 291.426C234.343 294.498 253.886 295.672 273.533 294.844C289.077 294.188 304.553 292.634 319.926 290.735C343.639 287.801 368.8 283.381 392.927 285.695V350.429H-65.1777V286.178C-59.2149 286.385 98.3353 280.412 140.144 282.725Z" fill="black"/>
<path d="M244.098 285.695L251.06 294.671C251.06 294.671 241.719 305.098 244.821 304.131C247.958 303.164 265.123 289.32 265.123 289.32C265.123 289.32 256.816 278.168 256.954 278.099C257.161 277.996 244.098 285.695 244.098 285.695Z" fill="#0B4870"/>
<path d="M233.895 218.44L263.331 280.585L244.615 291.15L214.042 235.461L215.972 217.162L233.895 218.44Z" fill="#0B4870"/>
<path d="M310.068 236.048L332.093 311.726H334.609L317.72 235.771L310.068 236.048Z" fill="#CDD5D7"/>
<path d="M270.327 236.427L253.576 310.449H256.54L278.944 236.393L270.327 236.427Z" fill="#CDD5D7"/>
<path d="M289.939 234.701L292.49 310.449H296.005L297.556 235.012L289.939 234.701Z" fill="#CDD5D7"/>
<path d="M269.535 266.395L319.788 264.807L320.133 270.02L265.778 272.126L269.535 266.395Z" fill="#CDD5D7"/>
<path d="M289.043 219.234C289.043 219.234 280.874 129.296 291.421 128.468C301.968 127.639 325.854 120.044 330.163 135.373C334.678 151.496 328.577 237.636 322.511 236.807C312.033 235.357 301.003 236.635 290.491 237.083C286.182 237.291 241.271 240.881 247.269 230.04C249.027 226.864 256.023 225.587 259.091 224.723C264.847 223.135 270.775 221.996 276.669 220.995C277.359 220.96 289.009 219.199 289.043 219.234Z" fill="#012E37"/>
<path d="M321.063 137.168C321.098 137.133 321.305 137.41 321.649 137.962C321.822 138.238 322.028 138.583 322.235 139.032C322.476 139.447 322.683 139.964 322.925 140.517C323.924 142.796 324.958 146.317 325.406 150.771C325.889 155.225 325.923 160.507 325.82 166.376C325.716 172.245 325.372 178.667 324.855 185.399C324.303 192.132 323.683 198.553 323.062 204.354C322.476 210.154 321.856 215.436 321.063 219.786C320.271 224.171 319.271 227.623 318.444 229.971C317.582 232.319 316.962 233.527 316.893 233.493C316.789 233.458 317.237 232.146 317.892 229.799C318.547 227.416 319.374 223.964 320.029 219.614C320.719 215.264 321.201 210.05 321.718 204.216C322.235 198.381 322.856 191.994 323.373 185.261C323.89 178.529 324.303 172.142 324.476 166.307C324.648 160.472 324.717 155.225 324.372 150.84C324.027 146.455 323.2 143.003 322.373 140.689C321.615 138.411 320.96 137.202 321.063 137.168Z" fill="#D3D3D3"/>
<path d="M214.076 173.626L211.457 172.211C211.457 172.211 209.768 171.589 207.011 169.932C206.287 169.483 205.666 168.931 205.115 168.31C204.46 167.55 203.598 166.48 203.323 165.789C202.944 164.926 201.772 164.857 201.565 165.651C201.393 166.445 202.323 168.862 204.529 171.037C206.735 173.212 202.082 172.556 200.393 172.349C198.704 172.142 193.431 171.762 193.017 172.211C192.397 172.901 193.086 173.764 194.775 173.937C196.498 174.11 201.565 174.973 201.496 175.836C201.427 176.699 192.776 175.525 192.776 175.525C192.776 175.525 190.949 174.973 190.811 176.009C190.604 177.838 199.807 178.425 200.703 178.46C201.324 178.494 201.289 179.461 200.6 179.392C199.91 179.323 191.983 178.011 191.776 179.875C191.604 181.291 199.359 180.428 200.944 181.602C202.53 182.775 194.947 181.671 194.844 183.052C194.809 183.57 194.844 183.949 199.221 183.984C203.702 183.984 215.731 182.05 215.731 182.05L214.008 173.523" fill="#FFBA98"/>
<path d="M273.257 137.513C273.257 137.513 250.646 167.93 245.476 169.311C240.306 170.657 210.664 172.453 210.664 172.453L208.01 185.296C208.01 185.296 245.959 187.298 254.3 181.118C267.432 171.417 281.219 149.079 281.219 149.079C281.564 141.725 278.737 138.031 273.257 137.513Z" fill="#0077B5"/>
<path d="M211.802 296.812L213.25 308.101C213.25 308.101 199.911 312.313 203.082 313.073C206.253 313.832 228.105 310.691 228.105 310.691C228.105 310.691 226.623 296.881 226.795 296.881C226.933 296.846 211.802 296.812 211.802 296.812Z" fill="#055E70"/>
<path d="M303.485 194.41C303.485 194.41 316.065 221.374 291.249 230.627L278.013 201.764L303.485 194.41Z" fill="#055E70"/>
<path d="M286.217 201.557C286.217 201.557 214.525 181.843 206.459 198.381C198.394 214.953 207.976 301.196 207.976 301.196L230.414 298.849C230.414 298.849 226.692 223.135 230.414 220.477C234.137 217.818 285.803 230.903 291.215 230.662C304.45 230.04 313.791 205.355 286.217 201.557Z" fill="#055E70"/>
<path d="M287.733 129.365C278.324 129.572 270.672 137.03 270.224 146.455C269.879 154.292 270.638 165.03 268.501 174.489C267.398 179.358 261.056 198.968 261.056 198.968L267.432 200.038C277.255 201.695 287.354 201.177 296.971 198.588L304.209 196.62C304.209 196.62 308.379 174.835 310.758 154.361C312.722 137.272 309.482 130.608 299.108 129.158L287.733 129.365Z" fill="#0077B5"/>
<path d="M282.77 130.608C283.08 128.951 282.563 121.977 282.563 121.977C282.563 121.977 276.221 121.183 275.98 114.865C275.739 108.547 276.428 93.9771 276.428 93.9771L288.112 88.5567L300.659 98.4999L301.796 105.474L298.901 113.76L297.591 129.572L282.77 130.608Z" fill="#F8C79B"/>
<path d="M282.563 121.942C282.563 121.942 286.803 122.081 290.973 119.284C290.973 119.284 288.974 123.876 282.667 123.496L282.563 121.942Z" fill="#FCD2B1"/>
<path d="M268.673 195.135L265.709 194.963C265.709 194.963 263.917 195.135 260.711 194.756C259.884 194.652 259.057 194.445 258.298 194.065C257.368 193.651 256.161 193.029 255.61 192.512C254.921 191.856 253.783 192.304 253.955 193.098C254.128 193.893 255.989 195.688 258.919 196.758C261.848 197.794 257.333 199.175 255.713 199.693C254.093 200.211 249.13 202.075 248.958 202.662C248.682 203.56 249.647 204.043 251.267 203.491C252.887 202.938 257.85 201.557 258.16 202.42C258.471 203.249 250.13 205.804 250.13 205.804C250.13 205.804 248.234 206.08 248.544 207.047C249.13 208.807 257.712 205.458 258.54 205.113C259.091 204.871 259.47 205.769 258.85 206.011C258.195 206.253 250.474 208.393 251.026 210.188C251.474 211.569 258.126 207.495 260.056 207.91C261.986 208.324 254.645 210.499 255.093 211.777C255.265 212.26 255.472 212.605 259.47 210.775C263.572 208.911 273.636 202.075 273.636 202.075L268.501 195.066" fill="#F8C79B"/>
<path opacity="0.05" d="M277.703 200.97C277.703 200.97 291.8 196.931 300.762 188.576C307.897 181.912 307.793 175.732 307.793 175.732L311.171 149.839L277.703 200.97Z" fill="black"/>
<path d="M297.315 131.368C297.315 131.368 294.627 169.207 290.973 173.143C287.32 177.079 263.33 194.583 263.33 194.583L268.018 206.839C268.018 206.839 301.072 188.058 304.795 178.356C309.275 166.618 310.102 148.389 310.24 140.586C310.309 137.306 308.931 134.061 306.38 132.024C303.588 129.814 300.589 129.676 297.315 131.368Z" fill="#0077B5"/>
<path d="M315.652 233.389C315.514 233.803 305.829 232.768 293.8 232.112C281.771 231.421 271.947 231.387 271.947 230.938C271.913 230.558 281.805 229.937 294.006 230.627C306.173 231.318 315.79 233.009 315.652 233.389Z" fill="#D3D3D3"/>
<g opacity="0.05">
<path d="M296.35 143.348C296.454 143.348 296.488 144.211 296.488 145.799C296.488 147.387 296.454 149.666 296.247 152.463C296.04 155.259 295.695 158.642 294.834 162.302C294.006 165.962 292.593 169.932 290.215 173.626C287.802 177.286 284.7 180.152 281.771 182.465C278.841 184.778 276.049 186.642 273.74 188.23C269.087 191.372 266.467 193.582 266.329 193.444C266.26 193.375 266.846 192.719 268.018 191.648C269.19 190.578 270.948 189.128 273.188 187.471C275.429 185.779 278.151 183.846 281.012 181.533C283.839 179.219 286.803 176.423 289.112 172.901C291.387 169.38 292.8 165.582 293.662 162.026C294.558 158.47 295.006 155.155 295.316 152.393C295.902 146.8 296.143 143.313 296.35 143.348Z" fill="black"/>
</g>
<path d="M288.354 131.54L288.871 125.913L298.005 124.221L300.762 130.228L288.354 131.54Z" fill="#0077B5"/>
<path d="M282.563 125.222L286.182 125.913V131.54L281.598 130.608L282.736 124.221" fill="#0077B5"/>
<path d="M361.218 191.338H130.287V198.899H361.218V191.338Z" fill="#0B8CA5"/>
<path d="M148.347 198.899L130.287 312.659L139.317 312.831L170.303 198.899H148.347Z" fill="#0B8CA5"/>
<path d="M344.398 197.656L354.945 315.041H346.5L323.786 202.524L322.58 194.134L344.398 197.656Z" fill="#0B8CA5"/>
<path d="M323.269 198.899L324.096 204.146L344.915 203.352L344.501 198.899H323.269Z" fill="#055E70"/>
<path d="M148.348 198.899L147.486 204.25L169.028 203.663L170.303 198.899H148.348Z" fill="#055E70"/>
<path d="M164.857 149.217L179.265 191.338H244.408L243.925 189.163L217.558 188.369L205.425 149.217H164.857Z" fill="#4A4646"/>
<path d="M193.741 168.931C194.155 170.657 193.431 172.349 192.086 172.694C190.742 173.039 189.295 171.935 188.881 170.208C188.467 168.482 189.191 166.79 190.535 166.445C191.88 166.1 193.293 167.205 193.741 168.931Z" fill="#D3D3D3"/>
<path d="M319.236 178.46C317.341 171.866 316.445 162.647 315.928 155.811C315.824 154.465 315.755 153.084 316.238 151.807C316.72 150.529 317.892 149.459 319.236 149.459C320.374 149.493 321.373 150.287 321.925 151.254C322.511 152.221 322.718 153.36 322.925 154.465C324.165 160.818 325.406 167.136 326.647 173.488C327.819 171.244 329.404 169.173 331.231 167.446C332.058 166.652 333.265 165.893 334.264 166.445C335.16 166.929 335.264 168.171 335.229 169.207C335.126 172.314 334.712 175.422 334.057 178.46" fill="#0077B5"/>
<path d="M316.582 177.804C316.582 177.804 313.343 190.716 326.475 191.303C338.573 191.856 335.677 177.804 335.677 177.804H316.582Z" fill="#055E70"/>
<path d="M290.973 99.8464C290.973 99.8464 291.077 99.8809 291.249 99.9845C291.421 100.088 291.697 100.261 292.007 100.537C292.593 101.055 293.386 102.021 293.627 103.472C293.731 104.197 293.731 104.991 293.455 105.819C293.179 106.613 292.731 107.442 292.007 108.098C291.663 108.409 291.249 108.685 290.766 108.926C290.318 109.134 289.801 109.306 289.284 109.375C288.25 109.548 287.113 109.341 286.148 108.823C285.183 108.271 284.39 107.442 283.976 106.475C283.735 105.992 283.597 105.509 283.528 104.991C283.459 104.507 283.459 103.989 283.528 103.506C283.666 102.539 284.114 101.711 284.631 101.055C285.183 100.399 285.838 99.9155 286.492 99.6393C287.837 99.0523 289.078 99.1904 289.836 99.3976C290.215 99.5012 290.525 99.6393 290.697 99.7428C290.87 99.7774 290.973 99.8119 290.973 99.8464C290.973 99.8809 290.594 99.6393 289.801 99.4666C289.043 99.294 287.871 99.1904 286.596 99.7774C285.975 100.054 285.321 100.502 284.838 101.158C284.355 101.78 283.942 102.608 283.804 103.506C283.735 103.955 283.735 104.438 283.804 104.887C283.873 105.37 284.011 105.819 284.218 106.268C284.631 107.166 285.355 107.96 286.286 108.478C287.216 108.961 288.25 109.168 289.25 109.03C289.732 108.961 290.215 108.823 290.629 108.616C291.077 108.409 291.456 108.167 291.8 107.856C292.49 107.269 292.938 106.475 293.214 105.716C293.489 104.956 293.489 104.162 293.42 103.472C293.214 102.091 292.49 101.124 291.938 100.606C291.352 100.054 290.939 99.8464 290.973 99.8464Z" fill="#0B4870"/>
<path d="M276.876 98.8106C276.876 98.8106 276.979 98.8106 277.186 98.8106C277.393 98.8106 277.703 98.8452 278.082 98.9487C278.841 99.1559 279.978 99.6738 280.84 100.848C281.253 101.435 281.598 102.16 281.736 103.023C281.874 103.851 281.805 104.818 281.426 105.716C281.253 106.164 281.012 106.613 280.702 106.993C280.392 107.407 280.013 107.753 279.564 108.029C278.703 108.65 277.6 108.961 276.497 108.926C275.394 108.892 274.325 108.478 273.498 107.822C273.085 107.511 272.74 107.131 272.464 106.682C272.188 106.268 271.947 105.819 271.809 105.37C271.499 104.438 271.499 103.506 271.706 102.677C271.878 101.849 272.292 101.124 272.74 100.571C273.671 99.4666 274.842 99.0178 275.601 98.8452C275.98 98.7761 276.29 98.7416 276.531 98.7761C276.773 98.8106 276.876 98.8106 276.876 98.8106C276.876 98.8452 276.428 98.8106 275.67 98.9833C274.911 99.1559 273.808 99.6047 272.947 100.71C272.533 101.262 272.154 101.952 271.982 102.746C271.809 103.541 271.809 104.438 272.12 105.301C272.257 105.75 272.464 106.164 272.74 106.544C273.016 106.924 273.326 107.304 273.739 107.615C274.498 108.236 275.532 108.616 276.566 108.65C277.6 108.685 278.634 108.374 279.461 107.822C279.875 107.545 280.219 107.2 280.53 106.82C280.84 106.441 281.081 106.026 281.219 105.612C281.564 104.783 281.632 103.886 281.529 103.057C281.426 102.263 281.081 101.538 280.702 100.951C279.909 99.8119 278.841 99.2595 278.082 99.0523C277.324 98.8452 276.876 98.8452 276.876 98.8106Z" fill="#0B4870"/>
<path d="M281.529 104.369C281.529 104.3 282.012 104.231 282.598 104.266C283.184 104.3 283.666 104.369 283.666 104.438C283.666 104.507 283.184 104.576 282.598 104.542C282.012 104.542 281.529 104.473 281.529 104.369Z" fill="#0B4870"/>
<path d="M293.352 104.783C293.352 104.714 294.523 104.68 295.937 104.714C297.35 104.749 298.522 104.887 298.522 104.956C298.522 105.025 297.35 105.06 295.937 105.025C294.489 104.991 293.352 104.887 293.352 104.783Z" fill="#0B4870"/>
<path d="M298.487 114.796C301.865 111.102 302.175 105.716 302.244 100.71C302.279 98.2928 302.141 95.7724 300.934 93.7009C299.728 91.664 297.625 90.352 295.454 89.4198C292.111 88.0043 288.423 87.3138 284.838 87.9698C281.288 88.6258 277.91 90.7318 276.152 93.9081C276.152 93.9081 292.593 93.5974 293.662 94.2188C294.73 94.8748 298.142 97.257 297.867 100.157C297.591 103.092 296.764 107.407 296.764 107.407L299.418 106.993C299.418 106.993 299.211 102.988 300.348 103.126C301.451 103.299 298.487 114.796 298.487 114.796Z" fill="#0B4870"/>
<path d="M299.245 107.994C299.383 108.443 299.866 108.754 300.348 108.754C300.831 108.754 301.279 108.512 301.658 108.201C302.451 107.58 303.071 106.717 303.209 105.716C303.347 104.714 302.899 103.644 302.037 103.126C301.176 102.608 299.9 102.85 299.383 103.713L299.245 107.994Z" fill="#F8C79B"/>
</g>
<defs>
<clipPath id="clip0_1098_7389">
<rect width="385" height="338" fill="white"/>
</clipPath>
</defs>
</svg>
