<svg width="186" height="170" viewBox="0 0 186 170" fill="none" xmlns="http://www.w3.org/2000/svg">
<g clip-path="url(#clip0_1148_1691)">
<path d="M185.95 84.5813C185.969 96.364 183.518 108.019 178.756 118.794C178.602 119.142 178.446 119.487 178.289 119.831C178.211 120.004 178.131 120.175 178.051 120.348C177.971 120.519 177.891 120.692 177.808 120.863C177.703 121.084 177.598 121.304 177.49 121.523C177.358 121.799 177.223 122.073 177.084 122.348C177.067 122.386 177.048 122.424 177.027 122.462C176.911 122.694 176.796 122.926 176.675 123.158C176.65 123.208 176.625 123.259 176.598 123.307C176.461 123.577 176.32 123.847 176.176 124.115V124.117C176.025 124.402 175.872 124.686 175.719 124.969C175.34 125.67 174.951 126.364 174.551 127.051C174.431 127.256 174.313 127.46 174.191 127.663C174.079 127.853 173.967 128.041 173.854 128.228C173.776 128.359 173.698 128.488 173.618 128.616C173.491 128.825 173.363 129.034 173.232 129.243C173.23 129.245 173.23 129.245 173.23 129.247C172.942 129.711 172.647 130.173 172.35 130.631H172.348C172.211 130.844 172.072 131.055 171.933 131.266V131.268C171.514 131.9 171.087 132.527 170.651 133.147V133.149C170.649 133.149 170.648 133.15 170.647 133.151V133.153L170.642 133.158C170.297 133.653 169.945 134.145 169.585 134.632V134.634C169.356 134.946 169.124 135.258 168.89 135.566C168.699 135.819 168.505 136.072 168.309 136.324C168.269 136.378 168.227 136.431 168.183 136.486V136.488C168.13 136.558 168.077 136.625 168.021 136.695V136.697C167.189 137.762 166.332 138.806 165.449 139.829H165.447C165.401 139.886 165.352 139.941 165.304 139.996C165.258 140.051 165.207 140.105 165.159 140.162H165.157C165.083 140.249 165.007 140.335 164.931 140.422C164.858 140.508 164.78 140.595 164.702 140.681V140.683C160.103 145.881 154.883 150.493 149.161 154.415C148.399 154.94 147.626 155.451 146.844 155.948C146.651 156.073 146.457 156.195 146.261 156.317C146.202 156.357 146.143 156.393 146.084 156.429C145.981 156.494 145.876 156.56 145.77 156.625C145.667 156.688 145.562 156.754 145.457 156.817C145.038 157.074 144.614 157.328 144.191 157.576C144.086 157.64 143.978 157.701 143.871 157.764C143.766 157.825 143.658 157.887 143.551 157.948C143.549 157.95 143.548 157.952 143.545 157.953C143.543 157.955 143.541 157.956 143.538 157.956L143.534 157.958L143.53 157.962H143.528C142.997 158.268 142.464 158.57 141.925 158.861C140.961 159.388 139.986 159.897 139.002 160.386C138.758 160.508 138.512 160.629 138.265 160.749C138.061 160.848 137.855 160.947 137.65 161.044C137.594 161.072 137.539 161.099 137.482 161.124C137.311 161.204 137.141 161.285 136.97 161.363C136.785 161.451 136.597 161.536 136.412 161.62C136.204 161.715 135.997 161.808 135.789 161.9C135.005 162.251 134.214 162.588 133.42 162.913C130.584 164.076 127.685 165.08 124.737 165.921C124.601 165.961 124.462 166.001 124.323 166.039C123.061 166.393 121.791 166.717 120.511 167.011C118.277 167.526 116.022 167.948 113.747 168.279C113.743 168.279 113.737 168.281 113.732 168.281C113.461 168.321 113.187 168.359 112.915 168.397C112.892 168.401 112.867 168.405 112.842 168.408C112.84 168.41 112.837 168.41 112.833 168.408C112.833 168.408 112.833 168.41 112.831 168.408C112.53 168.448 112.229 168.488 111.926 168.526C111.905 168.53 111.884 168.532 111.862 168.534C111.58 168.568 111.296 168.602 111.012 168.633C110.706 168.667 110.401 168.699 110.094 168.73C109.86 168.753 109.626 168.777 109.392 168.798C109.372 168.802 109.35 168.804 109.329 168.804C109.116 168.823 108.904 168.842 108.691 168.859C108.683 168.859 108.672 168.861 108.664 168.861C108.478 168.878 108.293 168.891 108.108 168.905C105.928 169.078 103.728 169.164 101.506 169.163C99.0949 169.163 96.7083 169.062 94.3463 168.861C94.3378 168.861 94.3294 168.859 94.321 168.859C93.8177 168.817 93.3151 168.77 92.8132 168.72C92.6805 168.707 92.55 168.692 92.4173 168.68C92.3921 168.678 92.3668 168.675 92.3415 168.671C92.3015 168.667 92.2615 168.663 92.2194 168.659C92.1983 168.656 92.1752 168.654 92.1541 168.65C91.9793 168.631 91.8045 168.612 91.6276 168.591C91.4318 168.568 91.2339 168.545 91.038 168.519C90.8422 168.496 90.6442 168.471 90.4484 168.443C90.4063 168.439 90.362 168.435 90.3199 168.427C90.1767 168.41 90.0335 168.391 89.8924 168.37C89.823 168.361 89.7556 168.351 89.6882 168.34C89.5513 168.321 89.4165 168.302 89.2796 168.281C89.2754 168.281 89.2691 168.279 89.2649 168.279C84.9647 167.657 80.7197 166.698 76.5689 165.412H76.5668C76.3415 165.343 76.1162 165.271 75.8908 165.199C75.8234 165.18 75.7561 165.159 75.6887 165.136C75.1033 164.948 74.5213 164.754 73.9429 164.554C73.1448 164.28 72.3523 163.993 71.5655 163.693C71.3507 163.611 71.138 163.529 70.9232 163.447C70.4957 163.278 70.0703 163.109 69.6471 162.936C68.9248 162.641 68.2074 162.336 67.4949 162.023H67.4928V162.021C66.8274 161.728 66.1668 161.425 65.5112 161.114C65.4919 161.108 65.4734 161.099 65.4565 161.088C65.4544 161.088 65.4544 161.086 65.4523 161.086C65.307 161.019 65.1617 160.949 65.0164 160.88L65.0121 160.877C61.4001 159.143 57.9172 157.151 54.5904 154.917C53.5228 154.202 52.4734 153.463 51.4422 152.7C50.6104 152.086 49.7906 151.457 48.9826 150.812C44.9582 147.608 41.2337 144.044 37.8555 140.162H37.8534V140.16C37.6154 139.888 37.3838 139.618 37.1479 139.344V139.342C37.1142 139.304 37.0826 139.266 37.051 139.228C36.9015 139.053 36.7562 138.88 36.6109 138.703V138.701C36.413 138.467 36.2192 138.232 36.0297 137.996C35.9876 137.946 35.9476 137.897 35.9076 137.846H35.9055V137.844C35.7496 137.655 35.5959 137.463 35.4443 137.271C35.3664 137.176 35.2906 137.079 35.2148 136.982H35.2127V136.98C34.7536 136.4 34.3036 135.814 33.8628 135.223V135.22C33.7407 135.058 33.6207 134.896 33.5027 134.731H33.5006C32.9363 133.968 32.3866 133.195 31.8518 132.413V132.411C31.6496 132.118 31.4496 131.822 31.2516 131.525C31.0537 131.228 30.8578 130.93 30.6641 130.631H30.662C30.4619 130.323 30.264 130.013 30.0681 129.703C30.0576 129.686 30.0471 129.671 30.0387 129.656C29.8449 129.35 29.654 129.042 29.4659 128.732C29.3143 128.486 29.1647 128.241 29.0194 127.994C28.9184 127.827 28.8194 127.663 28.7225 127.494C28.6867 127.437 28.6551 127.38 28.6235 127.325C28.4003 126.944 28.1813 126.562 27.9623 126.178C27.7075 125.727 27.4548 125.271 27.2084 124.815C27.1074 124.628 27.0063 124.438 26.9073 124.248C26.8715 124.187 26.8399 124.126 26.8083 124.062C26.6904 123.839 26.5725 123.615 26.4567 123.39C26.3408 123.166 26.225 122.94 26.1113 122.715C25.9976 122.489 25.8839 122.263 25.7723 122.035C25.688 121.865 25.6038 121.692 25.5217 121.521C25.5131 121.506 25.5054 121.492 25.4985 121.477C25.4606 121.396 25.4206 121.318 25.3848 121.238C25.3764 121.226 25.37 121.212 25.3658 121.198C25.2795 121.021 25.1953 120.846 25.1131 120.669C25.0036 120.441 24.8983 120.211 24.7931 119.981C24.7172 119.821 24.6457 119.658 24.5719 119.496C24.4667 119.268 24.3635 119.038 24.2624 118.806C24.155 118.568 24.0518 118.327 23.9486 118.087C23.9213 118.026 23.896 117.967 23.8707 117.906C23.8223 117.796 23.7759 117.686 23.7296 117.576C23.6054 117.285 23.4832 116.99 23.3632 116.697C23.2263 116.366 23.0929 116.034 22.9631 115.701C22.8388 115.391 22.7181 115.081 22.6009 114.769L22.5567 114.655V114.653C20.7269 109.836 19.3425 104.861 18.4208 99.7912V99.7891C17.8953 96.8943 17.5214 93.9739 17.3005 91.0399C17.2879 90.8796 17.2774 90.7193 17.2668 90.559C17.1279 88.5742 17.0598 86.5816 17.0626 84.5813C17.0626 83.6933 17.0766 82.8095 17.1047 81.93C17.6507 63.5412 24.1951 45.8377 35.737 31.5271C36.2445 30.8964 36.7612 30.2735 37.2869 29.6583C52.7731 11.506 75.7982 0 101.506 0C131.562 0 157.953 15.7288 172.915 39.4179C173.694 40.6454 174.439 41.8955 175.151 43.1681C182.253 55.8099 185.973 70.0755 185.95 84.5813Z" fill="#8CC3CD"/>
<path d="M142.397 150.97C142.094 151.81 141.791 152.649 141.489 153.489C141.432 153.649 141.373 153.807 141.316 153.968C140.546 156.106 139.774 158.246 139.002 160.386C138.758 160.508 138.512 160.629 138.265 160.749C138.061 160.848 137.855 160.947 137.65 161.044C137.593 161.072 137.539 161.099 137.482 161.124C137.311 161.204 137.141 161.285 136.97 161.363C136.785 161.451 136.597 161.536 136.412 161.62C136.204 161.715 135.997 161.808 135.789 161.9C135.68 161.618 135.618 161.319 135.605 161.017C135.596 160.542 135.652 160.068 135.772 159.608C135.955 158.848 136.246 158.104 136.437 157.342C136.448 157.306 136.456 157.269 136.465 157.233C136.892 155.415 136.695 153.506 135.905 151.814C135.429 150.806 134.746 149.888 134.449 148.812C134.191 147.802 134.306 146.733 134.772 145.8C134.944 145.439 135.162 145.1 135.418 144.792C135.479 144.714 135.544 144.64 135.612 144.567C136.231 143.885 137.054 143.423 137.958 143.248C139.687 142.94 141.493 143.862 142.46 145.309C142.856 145.89 143.097 146.563 143.161 147.264C143.266 148.532 142.828 149.774 142.397 150.97Z" fill="#3C1717"/>
<path d="M137.623 159.538C137.227 158.806 136.564 158.165 136.437 157.342C136.027 154.701 135.037 152.807 133.396 151.734C132.92 151.424 132.845 150.738 132.552 150.245C132.421 150.023 132.289 149.802 132.152 149.584C131.931 149.224 131.701 148.87 131.461 148.523C131.007 147.853 130.507 147.216 129.964 146.617C129.739 146.366 129.501 146.123 129.254 145.893L129.252 145.891C129.098 145.743 128.943 145.602 128.78 145.465C128.717 145.41 128.652 145.355 128.585 145.301L128.58 145.296C128.296 145.049 127.998 144.818 127.688 144.604C126.974 144.121 126.167 143.786 125.34 144.054C125.014 144.166 124.701 144.31 124.405 144.484C124.253 144.571 124.103 144.661 123.954 144.752C123.853 144.813 123.752 144.874 123.651 144.938C123.569 144.986 123.486 145.035 123.404 145.081C122.768 145.448 122.13 145.808 121.488 146.161C121.395 146.214 121.303 146.264 121.208 146.315H121.206C121.141 146.353 121.073 146.389 121.006 146.425C120.877 146.496 120.747 146.568 120.618 146.638C120.233 146.847 119.847 147.053 119.46 147.258C119.262 147.363 119.062 147.465 118.862 147.566C118.769 147.612 118.677 147.659 118.586 147.707H118.584C118.55 147.724 118.519 147.741 118.485 147.758C118.211 147.899 117.942 148.045 117.681 148.203C116.923 148.66 116.265 149.264 115.745 149.981C115.644 150.12 115.547 150.264 115.459 150.411C115.343 150.602 115.238 150.799 115.143 151.002C115.078 151.139 115.017 151.276 114.962 151.415V151.417C114.444 152.751 114.372 154.216 114.756 155.594V155.596C114.781 155.691 114.808 155.784 114.84 155.876C114.89 156.032 114.947 156.189 115.01 156.34C115.08 156.51 115.159 156.675 115.246 156.836V156.838C115.715 157.639 116.3 158.365 116.981 158.994L117.003 159.015C117.087 159.097 117.173 159.182 117.257 159.264C117.304 159.308 117.352 159.352 117.403 159.395C118.131 160.021 119.308 160.496 119.974 161.139C120.33 161.483 120.538 161.873 120.456 162.36C120.237 163.653 120.286 164.491 120.509 165.028C121.115 166.496 123.019 165.75 124.322 166.039C124.461 166.001 124.6 165.961 124.737 165.921C127.685 165.08 130.583 164.076 133.42 162.913C134.213 162.588 135.005 162.251 135.789 161.9C135.997 161.808 136.203 161.715 136.412 161.62C136.597 161.535 136.785 161.451 136.97 161.363C137.141 161.284 137.311 161.204 137.482 161.124C137.539 161.099 137.593 161.071 137.65 161.044C137.854 160.947 138.061 160.848 138.265 160.749C138.057 160.342 137.84 159.939 137.623 159.538Z" fill="#3C1717"/>
<path d="M122.216 139.06C122.659 137.721 122.05 136.838 120.484 136.369C120.43 136.32 120.365 136.286 120.295 136.269C120.225 136.252 120.152 136.253 120.082 136.272C120.012 136.291 119.948 136.327 119.896 136.376C119.844 136.426 119.805 136.489 119.783 136.557L118.415 140.616C116.985 140.249 115.936 140.5 115.708 141.917C116.272 140.474 115.742 139.569 114.153 139.183C114.102 139.131 114.038 139.093 113.968 139.073C113.898 139.053 113.824 139.051 113.753 139.067C113.682 139.083 113.616 139.117 113.562 139.165C113.507 139.214 113.466 139.275 113.441 139.344L112.542 142.999C111.447 144.652 110.909 146.612 111.008 148.593C111.106 150.574 111.835 152.472 113.089 154.007C114.342 155.543 116.054 156.635 117.973 157.125C119.892 157.615 121.917 157.477 123.751 156.73C125.586 155.983 127.133 154.667 128.166 152.975C129.199 151.283 129.664 149.304 129.493 147.328C129.321 145.352 128.522 143.483 127.212 141.995C125.903 140.507 124.152 139.478 122.216 139.06H122.216Z" fill="#3C1717"/>
<path d="M121.346 150.627C121.161 150.726 120.944 150.747 120.744 150.687C120.543 150.626 120.374 150.488 120.275 150.303C120.261 150.277 120.258 150.246 120.267 150.217C120.275 150.188 120.295 150.164 120.321 150.15C120.348 150.136 120.378 150.133 120.407 150.142C120.436 150.15 120.46 150.17 120.474 150.196C120.545 150.328 120.665 150.426 120.809 150.47C120.952 150.513 121.106 150.497 121.238 150.426C121.37 150.356 121.469 150.235 121.512 150.092C121.555 149.948 121.54 149.793 121.469 149.661C121.455 149.635 121.452 149.604 121.461 149.575C121.47 149.547 121.489 149.522 121.516 149.508C121.542 149.494 121.573 149.491 121.601 149.5C121.63 149.508 121.654 149.528 121.668 149.554C121.767 149.739 121.789 149.956 121.728 150.157C121.668 150.358 121.53 150.527 121.346 150.627Z" fill="white"/>
<path d="M120.518 148.962C120.958 148.726 121.241 148.397 121.15 148.228C121.06 148.058 120.63 148.113 120.19 148.349C119.75 148.585 119.467 148.914 119.558 149.084C119.649 149.253 120.079 149.199 120.518 148.962Z" fill="white"/>
<path d="M115.844 149.249C115.903 148.961 116.025 148.688 116.202 148.452C116.378 148.216 116.603 148.021 116.863 147.881C117.122 147.742 117.409 147.661 117.703 147.645C117.997 147.629 118.291 147.677 118.564 147.787C118.702 147.366 118.711 146.914 118.592 146.488C118.473 146.061 118.23 145.68 117.895 145.392C117.559 145.103 117.145 144.921 116.707 144.868C116.268 144.815 115.823 144.894 115.429 145.094C115.034 145.295 114.708 145.608 114.491 145.994C114.274 146.379 114.177 146.821 114.211 147.263C114.244 147.704 114.408 148.126 114.681 148.474C114.954 148.822 115.324 149.082 115.745 149.219C115.777 149.23 115.811 149.24 115.844 149.249Z" fill="white"/>
<path d="M116.512 148.437C116.937 148.437 117.281 148.092 117.281 147.666C117.281 147.241 116.937 146.896 116.512 146.896C116.087 146.896 115.743 147.241 115.743 147.666C115.743 148.092 116.087 148.437 116.512 148.437Z" fill="#3F3D56"/>
<path d="M121.166 146.478C121.226 146.189 121.348 145.917 121.524 145.68C121.7 145.444 121.926 145.249 122.185 145.11C122.444 144.97 122.731 144.889 123.025 144.873C123.319 144.857 123.613 144.906 123.886 145.016C124.024 144.595 124.034 144.142 123.914 143.716C123.795 143.29 123.552 142.908 123.217 142.62C122.881 142.332 122.468 142.15 122.029 142.097C121.59 142.044 121.145 142.122 120.751 142.323C120.356 142.523 120.03 142.836 119.814 143.222C119.597 143.608 119.499 144.049 119.533 144.491C119.567 144.933 119.731 145.354 120.004 145.702C120.277 146.051 120.647 146.31 121.067 146.448C121.1 146.458 121.133 146.468 121.166 146.478Z" fill="white"/>
<path d="M122.117 145.622C122.541 145.622 122.886 145.277 122.886 144.852C122.886 144.426 122.541 144.082 122.117 144.082C121.692 144.082 121.348 144.426 121.348 144.852C121.348 145.277 121.692 145.622 122.117 145.622Z" fill="#3F3D56"/>
<path d="M125.975 144.798L123.35 147.478L123.615 147.739L126.24 145.059L125.975 144.798Z" fill="white"/>
<path d="M126.81 146.095L123.638 148.095L123.836 148.41L127.008 146.41L126.81 146.095Z" fill="white"/>
<path d="M117.718 150.505L114.037 151.215L114.107 151.581L117.788 150.871L117.718 150.505Z" fill="white"/>
<path d="M118.072 151.087L114.654 152.628L114.807 152.968L118.225 151.426L118.072 151.087Z" fill="white"/>
<path d="M9.67687 93.8808C2.47697 87.3903 -1.88262 77.069 0.79657 67.7454C6.84282 76.3851 15.7452 82.6042 25.9286 85.3024C29.8597 86.3287 34.3387 87.0603 36.7304 90.3495C38.2185 92.3961 38.5641 95.1006 38.2119 97.6077C37.8596 100.115 36.8749 102.483 35.8993 104.818L35.9509 105.448C26.4428 103.595 16.8768 100.371 9.67687 93.8808Z" fill="#E6E6E6"/>
<path d="M0.998006 67.7749C2.82792 75.5068 7.13578 82.7032 13.1804 87.8678C14.4873 88.9844 15.91 90.0032 17.5059 90.6618C19.0664 91.2919 20.7668 91.4918 22.4306 91.241C23.9866 91.0383 25.5547 90.6505 27.1328 90.8302C28.7962 91.0197 30.1858 91.9532 31.1566 93.2975C32.3444 94.9422 32.8714 96.9163 33.3197 98.8648C33.8175 101.028 34.3003 103.283 35.7263 105.051C35.8991 105.266 35.5571 105.522 35.3846 105.308C32.9036 102.231 33.243 97.9733 31.4462 94.574C30.6077 92.9878 29.287 91.6451 27.4679 91.312C25.8772 91.0206 24.2597 91.4191 22.686 91.638C21.0336 91.8678 19.4349 91.8122 17.8497 91.2514C16.228 90.6777 14.7626 89.7125 13.4329 88.6343C10.4361 86.1667 7.84522 83.2426 5.75523 79.969C3.34926 76.246 1.59684 72.1383 0.573779 67.8234C0.510566 67.5564 0.935207 67.5095 0.998002 67.7749L0.998006 67.7749Z" fill="white"/>
<path d="M11.1268 86.2929C10.1094 87.1931 8.80559 87.7018 7.44833 87.728C6.09106 87.7543 4.76868 87.2964 3.71733 86.4362C3.50519 86.2614 3.76639 85.923 3.9788 86.098C4.95634 86.9009 6.18819 87.3272 7.45203 87.3002C8.71586 87.2732 9.92842 86.7945 10.8709 85.9506C11.0759 85.7675 11.3306 86.1108 11.1268 86.2929V86.2929Z" fill="white"/>
<path d="M21.6552 91.4479C21.8515 88.6753 20.9973 85.9304 19.2629 83.7606C19.0909 83.5458 19.4328 83.2897 19.6046 83.5043C21.4053 85.7656 22.2884 88.6239 22.0778 91.5087C22.0575 91.7836 21.635 91.7214 21.6552 91.4479Z" fill="white"/>
<path d="M3.90735 76.1524C4.37347 75.8863 4.7663 75.5084 5.05056 75.0526C5.33481 74.5968 5.5016 74.0774 5.53593 73.5411C5.55271 73.266 5.97519 73.3286 5.95852 73.6019C5.91783 74.1942 5.73293 74.7676 5.41999 75.2719C5.10704 75.7762 4.67556 76.196 4.16326 76.4947C4.11732 76.5269 4.06087 76.5404 4.00536 76.5324C3.94986 76.5245 3.89947 76.4956 3.86444 76.4518C3.83078 76.4063 3.81641 76.3493 3.82444 76.2933C3.83248 76.2372 3.86227 76.1866 3.90735 76.1524Z" fill="white"/>
<path d="M30.8647 54.6284C30.8591 54.8005 30.8535 54.9725 30.8508 55.1468C30.7875 57.4604 30.9119 59.7753 31.2229 62.0686C31.2441 62.2463 31.2683 62.4261 31.2946 62.6028C32.1026 68.1201 33.9262 73.4392 36.6728 78.2896C37.7675 80.2188 39.0071 82.0616 40.3809 83.8024C42.2784 86.2063 44.5267 88.6615 45.4921 91.4702C45.5961 91.7621 45.6819 92.0602 45.7491 92.3627L36.714 105.336C36.6787 105.355 36.6462 105.377 36.6108 105.396L36.2737 105.931C36.1966 105.846 36.1184 105.756 36.0413 105.671C35.9964 105.622 35.9535 105.57 35.9085 105.521C35.8792 105.488 35.85 105.454 35.8216 105.426C35.8118 105.414 35.8021 105.403 35.7952 105.394C35.7669 105.365 35.7435 105.336 35.7181 105.309C35.2799 104.809 34.8443 104.306 34.4115 103.798C34.4086 103.796 34.4086 103.796 34.4076 103.791C31.1199 99.9138 28.1263 95.7278 25.8623 91.2198C25.7943 91.0842 25.7231 90.9466 25.6592 90.805C24.6499 88.7673 23.8086 86.6504 23.1437 84.4755C22.7834 83.2834 22.4836 82.0737 22.2454 80.8513C21.6361 77.6914 21.5268 74.4552 21.9215 71.2613C22.7093 64.8944 25.5213 58.8507 30.4827 54.9247C30.6097 54.8243 30.7348 54.7267 30.8647 54.6284Z" fill="#E6E6E6"/>
<path d="M31.0086 54.7725C27.8221 62.0495 26.9361 70.3933 28.658 78.1622C29.0303 79.8419 29.5538 81.5133 30.4322 83.0015C31.2994 84.4457 32.5369 85.6308 34.0161 86.4338C35.3803 87.2104 36.8655 87.8464 38.0175 88.9416C39.2317 90.0959 39.7801 91.6793 39.7473 93.3381C39.707 95.3676 38.9411 97.2616 38.1279 99.0877C37.225 101.115 36.255 103.207 36.3308 105.479C36.34 105.754 35.913 105.752 35.9039 105.477C35.772 101.525 38.6026 98.3296 39.2111 94.5319C39.4951 92.7598 39.2477 90.8913 37.9955 89.5282C36.9005 88.3363 35.3695 87.6791 33.9815 86.9048C32.524 86.0918 31.281 85.0834 30.3523 83.6796C29.4024 82.2436 28.8124 80.5892 28.3989 78.9264C27.4893 75.149 27.1783 71.2518 27.4773 67.3776C27.7941 62.9542 28.864 58.6175 30.6407 54.5554C30.7508 54.3041 31.118 54.5228 31.0086 54.7725L31.0086 54.7725Z" fill="white"/>
<path d="M27.966 75.6665C26.6125 75.7717 25.2658 75.3916 24.1663 74.5941C23.0669 73.7965 22.2862 72.6335 21.9638 71.3126C21.8995 71.0452 22.3115 70.9325 22.3759 71.2003C22.6738 72.4308 23.4011 73.5141 24.4264 74.2547C25.4518 74.9953 26.7077 75.3444 27.9674 75.2389C28.2412 75.2163 28.2382 75.644 27.966 75.6665Z" fill="white"/>
<path d="M33.2725 86.1314C35.0959 84.036 36.0637 81.3292 35.9831 78.5508C35.9749 78.2756 36.4019 78.2773 36.4101 78.5522C36.4885 81.4437 35.4756 84.2584 33.5734 86.4347C33.392 86.642 33.0921 86.3375 33.2725 86.1314L33.2725 86.1314Z" fill="white"/>
<path d="M28.2962 63.2161C28.8283 63.2846 29.3692 63.2198 29.8701 63.0273C30.371 62.8348 30.8164 62.5207 31.1662 62.1132C31.3449 61.9037 31.6446 62.2084 31.4671 62.4165C31.0785 62.865 30.5862 63.2113 30.0332 63.4252C29.4803 63.6391 28.8834 63.7141 28.2948 63.6437C28.2387 63.6417 28.1856 63.6184 28.146 63.5786C28.1065 63.5387 28.0836 63.4853 28.082 63.4292C28.0825 63.3725 28.1053 63.3184 28.1454 63.2785C28.1855 63.2386 28.2397 63.2162 28.2962 63.2161V63.2161Z" fill="white"/>
<path d="M113.403 55.4938C114.658 48.5406 112.573 40.6507 106.878 36.4797C107.245 44.1549 104.888 51.7125 100.227 57.8152C98.4207 60.1622 96.1677 62.5843 96.2554 65.5464C96.3099 67.3895 97.3152 69.101 98.6344 70.387C99.9536 71.6731 101.575 72.5964 103.177 73.5053L103.427 73.891C108.076 68.5765 112.148 62.447 113.403 55.4938Z" fill="#E6E6E6"/>
<path d="M106.775 36.5864C109.188 41.9121 109.865 47.8641 108.709 53.5968C108.481 54.8353 108.061 56.0303 107.462 57.1377C106.844 58.1975 105.955 59.0723 104.885 59.6712C103.899 60.2496 102.823 60.7269 101.995 61.5353C101.577 61.9555 101.252 62.4593 101.042 63.0139C100.832 63.5685 100.742 64.1613 100.777 64.7534C100.825 66.2309 101.401 67.6029 102.01 68.925C102.687 70.3929 103.413 71.9068 103.38 73.5618C103.376 73.7623 103.686 73.757 103.691 73.5567C103.749 70.6773 101.658 68.3774 101.179 65.6176C100.955 64.3299 101.117 62.9668 102.016 61.9623C102.803 61.084 103.911 60.5909 104.915 60.0138C105.967 59.445 106.863 58.6268 107.527 57.6307C108.18 56.5574 108.646 55.3807 108.904 54.1508C109.531 51.3914 109.721 48.5505 109.466 45.7321C109.194 42.5139 108.374 39.366 107.041 36.4248C106.959 36.2428 106.693 36.4055 106.775 36.5864L106.775 36.5864Z" fill="white"/>
<path d="M109.189 51.7728C110.176 51.8366 111.153 51.547 111.946 50.9558C112.739 50.3645 113.296 49.5102 113.519 48.5453C113.563 48.3499 113.262 48.2717 113.217 48.4674C113.012 49.3663 112.493 50.1621 111.753 50.7111C111.013 51.2602 110.102 51.5263 109.184 51.4614C108.984 51.4476 108.99 51.7591 109.189 51.7728Z" fill="white"/>
<path d="M105.424 59.4438C104.076 57.9352 103.346 55.9733 103.378 53.9493C103.381 53.7488 103.071 53.7541 103.067 53.9544C103.037 56.0607 103.802 58.1008 105.208 59.6676C105.342 59.8168 105.557 59.5922 105.424 59.4438Z" fill="white"/>
<path d="M108.83 42.7094C108.443 42.7644 108.049 42.7223 107.682 42.5869C107.316 42.4515 106.988 42.227 106.73 41.9335C106.598 41.7827 106.382 42.0074 106.514 42.1573C106.801 42.4802 107.162 42.7277 107.567 42.8782C107.972 43.0287 108.407 43.0777 108.835 43.0208C108.876 43.0188 108.915 43.0014 108.943 42.972C108.971 42.9426 108.988 42.9035 108.988 42.8626C108.987 42.8213 108.97 42.7821 108.941 42.7534C108.911 42.7248 108.871 42.7089 108.83 42.7094L108.83 42.7094Z" fill="white"/>
<path d="M83.7266 42.3604C83.8064 42.4569 83.8862 42.5535 83.9654 42.6526C85.032 43.9563 85.9912 45.3446 86.8333 46.8039C86.9002 46.9157 86.9663 47.03 87.0299 47.1435C89.0214 50.6809 90.34 54.558 90.9185 58.5775C91.1473 60.1772 91.2542 61.792 91.2383 63.4079C91.2163 65.6396 91.0152 68.0575 91.71 70.1058C91.7801 70.3203 91.8634 70.5303 91.9594 70.7345L102.938 74.1675C102.967 74.1627 102.995 74.1605 103.024 74.1558L103.456 74.313C103.463 74.2297 103.468 74.1432 103.475 74.0599C103.479 74.0116 103.48 73.9625 103.484 73.9142C103.486 73.8818 103.488 73.8493 103.492 73.8201C103.492 73.8093 103.493 73.7985 103.493 73.7902C103.496 73.7611 103.497 73.7336 103.499 73.7069C103.529 73.2234 103.556 72.7388 103.579 72.2531C103.579 72.2506 103.579 72.2506 103.578 72.2473C103.744 68.5465 103.604 64.7992 102.9 61.1924C102.879 61.0839 102.858 60.9729 102.832 60.8628C102.506 59.2388 102.048 57.6442 101.462 56.0949C101.139 55.2476 100.773 54.4173 100.365 53.6071C99.3092 51.5156 97.9311 49.6036 96.2817 47.9411C92.9931 44.6274 88.683 42.4041 84.0784 42.3602C83.9606 42.3592 83.8451 42.3589 83.7266 42.3604Z" fill="#E6E6E6"/>
<path d="M83.7068 42.5076C88.8348 45.3047 92.9525 49.649 95.4751 54.9237C96.0383 56.0495 96.4208 57.2572 96.6085 58.5024C96.7522 59.7212 96.5675 60.9564 96.0734 62.0795C95.6338 63.136 95.0619 64.1657 94.8863 65.3108C94.8052 65.8983 94.8489 66.4964 95.0146 67.0658C95.1804 67.6352 95.4644 68.1631 95.8481 68.6148C96.775 69.7653 98.0593 70.5136 99.3407 71.2016C100.763 71.9655 102.253 72.7365 103.221 74.0782C103.338 74.2408 103.583 74.049 103.466 73.8867C101.782 71.5523 98.7298 70.9772 96.6884 69.0626C95.7358 68.1692 95.0463 66.9829 95.1603 65.6388C95.2599 64.4634 95.8487 63.4011 96.3031 62.3352C96.8011 61.2466 97.0254 60.0525 96.9564 58.8571C96.8326 57.6064 96.4972 56.3859 95.9645 55.2479C94.8062 52.6668 93.2499 50.2841 91.3527 48.1872C89.2006 45.782 86.6537 43.7632 83.822 42.2183C83.6467 42.1227 83.5326 42.4127 83.7068 42.5076L83.7068 42.5076Z" fill="white"/>
<path d="M94.7628 53.1773C95.5888 52.6333 96.1949 51.8128 96.4728 50.8625C96.7507 49.9121 96.6822 48.8938 96.2797 47.9893C96.1976 47.8066 95.9103 47.9258 95.9925 48.1087C96.3688 48.9503 96.4325 49.8989 96.1719 50.7833C95.9114 51.6677 95.3438 52.4297 94.5715 52.9318C94.4039 53.0411 94.596 53.286 94.7628 53.1773Z" fill="white"/>
<path d="M96.3677 61.5733C94.3849 61.1815 92.6224 60.0555 91.4316 58.4199C91.3138 58.2578 91.0688 58.4495 91.1865 58.6114C92.4288 60.3112 94.2653 61.4792 96.3295 61.8824C96.5263 61.9207 96.5634 61.6114 96.3677 61.5733Z" fill="white"/>
<path d="M89.0283 46.1571C88.7525 46.4343 88.4122 46.6386 88.0381 46.7516C87.664 46.8645 87.2677 46.8826 86.8849 46.8043C86.6887 46.7635 86.6518 47.0728 86.8467 47.1133C87.2701 47.1979 87.7077 47.1774 88.1213 47.0535C88.5349 46.9296 88.912 46.7062 89.2195 46.4027C89.2509 46.3765 89.2711 46.3393 89.2761 46.2988C89.2811 46.2582 89.2705 46.2172 89.2465 46.1841C89.221 46.1518 89.1838 46.1308 89.1429 46.1257C89.1021 46.1206 89.0609 46.1319 89.0283 46.1571L89.0283 46.1571Z" fill="white"/>
<path d="M27.6436 79.7336C29.1636 79.7336 30.6213 80.3384 31.696 81.4149C32.7708 82.4914 33.3746 83.9515 33.3746 85.4739V85.4739C33.3744 86.8055 32.912 88.0956 32.0668 89.1234C31.2215 90.1512 30.0458 90.8527 28.7411 91.1079V100.496H25.083V79.7336H27.6436Z" fill="#3F3D56"/>
<path d="M168.021 134.73V136.696C167.189 137.761 166.332 138.805 165.45 139.828C165.355 139.94 165.258 140.05 165.159 140.162C165.01 140.337 164.856 140.51 164.702 140.683V134.73H168.021Z" fill="#CACACA"/>
<path d="M158.284 130.63C157.55 130.631 156.847 130.923 156.328 131.443C155.809 131.962 155.517 132.667 155.517 133.401V137.39C155.517 138.125 155.809 138.829 156.328 139.349C156.847 139.868 157.55 140.161 158.284 140.162H165.159C165.258 140.05 165.355 139.94 165.45 139.828C166.332 138.805 167.189 137.761 168.021 136.696C168.076 136.627 168.13 136.557 168.183 136.487C168.659 135.878 169.127 135.258 169.586 134.633C169.944 134.144 170.299 133.65 170.647 133.153C170.649 133.15 170.651 133.15 170.651 133.148C171.232 132.322 171.799 131.482 172.351 130.63H158.284Z" fill="#3F3D56"/>
<path d="M175.988 96.4894C175.565 96.3432 175.121 96.2691 174.674 96.27H173.543C173.131 96.2703 172.722 96.3322 172.328 96.4535C171.498 96.7149 170.772 97.2345 170.257 97.937C169.741 98.6394 169.463 99.4882 169.462 100.36V133.633C169.462 133.758 169.468 133.88 169.479 134C169.497 134.214 169.533 134.426 169.586 134.633C169.944 134.144 170.3 133.65 170.647 133.153C170.65 133.15 170.652 133.15 170.652 133.148C171.233 132.322 171.799 131.482 172.351 130.63C172.648 130.172 172.943 129.71 173.231 129.246C175.316 125.896 177.163 122.403 178.757 118.793V100.36C178.756 99.506 178.489 98.6739 177.992 97.9799C177.496 97.2858 176.795 96.7647 175.988 96.4894Z" fill="#3F3D56"/>
<path d="M36.6113 134.73V138.702C35.6637 137.567 34.7476 136.407 33.8632 135.222C33.741 135.059 33.621 134.895 33.501 134.73H36.6113Z" fill="#CACACA"/>
<path d="M43.0306 130.63H30.6631C31.0527 131.231 31.4493 131.825 31.8529 132.412C32.3878 133.195 32.9374 133.967 33.5017 134.73C33.6218 134.895 33.7418 135.059 33.8639 135.222C34.7505 136.407 35.6665 137.567 36.612 138.702C36.7889 138.917 36.9679 139.13 37.149 139.343C37.3807 139.617 37.6158 139.89 37.8545 140.162H43.0306C43.764 140.161 44.467 139.868 44.9854 139.349C45.5038 138.829 45.7951 138.125 45.7955 137.39V133.401C45.7951 132.667 45.5038 131.962 44.9854 131.443C44.467 130.923 43.764 130.631 43.0306 130.63Z" fill="#3F3D56"/>
<path d="M29.6563 96.732C29.0733 96.4291 28.4263 96.2707 27.7695 96.27H26.6408C26.1067 96.2693 25.5778 96.3747 25.0846 96.5801C24.3375 96.8892 23.6986 97.4133 23.2488 98.0861C22.799 98.7589 22.5585 99.5502 22.5576 100.36V114.654C24.6839 120.253 27.401 125.609 30.6629 130.63C31.0525 131.231 31.4491 131.825 31.8527 132.412V100.36C31.8522 99.6119 31.6472 98.8784 31.26 98.2389C30.8728 97.5994 30.3182 97.0782 29.6563 96.732Z" fill="#3F3D56"/>
<path d="M75.6609 158.509L79.3705 157.656L77.8531 142.918L72.3779 144.177L75.6609 158.509Z" fill="#9E616A"/>
<path d="M79.035 145.722C78.959 145.462 78.9076 145.196 78.8813 144.926C78.8505 144.608 78.7884 144.294 78.696 143.988C78.5906 143.709 78.4602 143.441 78.3064 143.186C78.2327 143.051 78.1548 142.916 78.0853 142.779C78.0154 142.642 77.9549 142.501 77.9042 142.355C75.7331 135.933 72.7028 127.204 70.6012 122.096C69.3651 119.09 61.7631 118.09 54.5907 117.835C53.7167 117.803 52.8491 117.782 52.0005 117.772C51.7078 117.768 51.4172 117.763 51.1287 117.761C50.3916 117.757 49.6736 117.757 48.9828 117.765C48.8923 117.765 48.8017 117.765 48.7112 117.768C48.2079 117.772 47.7201 117.779 47.2477 117.789C44.0005 117.852 41.6146 118 41.1892 118.027L37.4008 115.641L36.6617 115.175L36.5838 115.641L35.9878 119.198L34.9707 125.266L37.5209 125.983L39.176 126.447L48.9828 129.202L51.0676 129.788L51.0802 129.792L54.5907 129.786L64.189 129.769L64.6523 130.999C64.4859 131.258 64.3765 131.549 64.3312 131.853C64.2859 132.158 64.3059 132.468 64.3898 132.765C64.4736 133.061 64.6195 133.336 64.8176 133.571C65.0157 133.806 65.2616 133.996 65.5388 134.129L65.8989 134.3L70.2854 145.926C70.2988 146.978 70.6267 148.001 71.2267 148.864C71.3004 148.972 71.3804 149.077 71.4646 149.181L71.5615 149.297L73.2482 152.602L74.2527 152.37L78.5275 151.389L78.5486 151.347C78.5507 151.341 78.6055 151.225 78.6855 151.022V151.016C79.0203 150.178 79.7616 147.89 79.035 145.722Z" fill="#2F2E41"/>
<path d="M89.4575 159.489C89.2978 158.78 88.9998 158.111 88.5805 157.518C88.1613 156.925 87.6292 156.422 87.0148 156.036C86.4004 155.65 85.7159 155.39 85.0007 155.27C84.2854 155.15 83.5536 155.173 82.8474 155.338L79.8845 153.999L79.0548 154.583L75.6139 157L75.3296 157.065L74.4072 157.276L75.6813 162.838L89.4997 159.664L89.4575 159.489Z" fill="#2F2E41"/>
<path d="M71.128 150.913L69.875 161.088L69.8329 161.421L69.6476 162.937C68.9253 162.642 68.2051 162.336 67.4933 162.022C66.8279 161.729 66.1673 161.427 65.5117 161.115V150.915L71.128 150.913Z" fill="#9E616A"/>
<path d="M43.9391 80.9626C48.1345 80.9626 51.5355 77.5561 51.5355 73.3539C51.5355 69.1517 48.1345 65.7451 43.9391 65.7451C39.7438 65.7451 36.3428 69.1517 36.3428 73.3539C36.3428 77.5561 39.7438 80.9626 43.9391 80.9626Z" fill="#9E616A"/>
<path d="M71.9351 154.796C71.7245 154.507 71.5055 154.205 71.4929 153.916C71.4445 152.897 71.3939 151.889 71.3413 150.902C71.3034 150.212 71.2655 149.531 71.2276 148.864C71.2233 148.78 71.217 148.696 71.2128 148.613C71.1475 147.51 71.4739 146.346 71.7877 145.218C71.8909 144.848 71.9941 144.475 72.0867 144.102C72.3184 143.27 72.4158 142.406 72.3752 141.543C71.8361 134.711 69.4271 128.286 68.3468 127.204C66.7043 125.559 59.277 121.758 54.5916 119.447C53.7598 119.035 53.0143 118.672 52.4036 118.377C51.8624 118.114 51.4265 117.905 51.1296 117.761C50.9022 117.654 50.7548 117.584 50.7042 117.559L50.6789 117.546L48.9838 117.736L48.7121 117.768L47.217 117.936L37.4902 119.029L35.9887 119.198L33.864 119.438L31.9455 119.653L31.8739 119.66L31.8613 119.731C31.8613 119.733 31.8571 119.748 31.8529 119.776C31.523 121.861 31.523 123.985 31.8529 126.07C32.1014 127.485 32.571 128.923 33.4049 130.134C33.5186 130.299 33.6365 130.457 33.7629 130.609C33.7671 130.617 33.7729 130.624 33.7797 130.63C33.8071 130.664 33.8345 130.697 33.864 130.731V130.733C34.8178 131.844 36.0982 132.625 37.5218 132.963C37.7323 133.02 37.9471 133.066 38.1683 133.104C40.5247 133.522 43.1864 133.906 45.7955 134.243C46.8758 134.382 47.9477 134.513 48.9838 134.635C51.058 134.88 52.9953 135.087 54.5916 135.251C56.8279 135.479 58.3989 135.62 58.7485 135.65L62.6548 153.903C62.3482 154.423 62.2259 155.031 62.3077 155.628C62.3895 156.226 62.6706 156.779 63.1054 157.196L63.4255 157.506L63.7961 159.244L65.0175 160.881L65.1712 161.088H70.56L70.5895 161.052C70.6084 161.026 72.5037 158.588 72.3752 155.684C72.3626 155.384 72.1541 155.099 71.9351 154.796Z" fill="#2F2E41"/>
<path d="M71.7878 93.6197C71.3798 93.5079 70.9522 93.4872 70.5352 93.5589C70.1183 93.6305 69.7221 93.7929 69.3746 94.0346C69.027 94.2762 68.7366 94.5912 68.5238 94.9574C68.311 95.3236 68.1809 95.7321 68.1427 96.1541L61.8311 98.1301L62.0944 102.265L70.9686 99.349C71.6806 99.3662 72.3742 99.1212 72.918 98.6604C73.4617 98.1996 73.8179 97.5551 73.9188 96.8488C74.0198 96.1426 73.8587 95.4238 73.4659 94.8287C73.0732 94.2335 72.4761 93.8034 71.7878 93.6197Z" fill="#9E616A"/>
<path d="M67.6698 100.462L62.9525 102.25L62.8319 102.485C62.6887 102.763 62.4922 103.01 62.2536 103.212C62.015 103.415 61.739 103.568 61.4413 103.663C61.1436 103.758 60.8301 103.794 60.5186 103.768C60.2072 103.742 59.9039 103.655 59.6261 103.511L49.0232 107.531C49.0232 107.531 44.2882 102.785 40.917 98.5492L42.0659 91.4707C42.3321 89.8283 42.8977 88.2491 43.7345 86.8118C50.6482 88.3303 54.6168 98.0108 54.6168 98.0108L67.077 95.6294L67.6698 100.462Z" fill="#096779"/>
<path d="M42.8596 80.556C40.9578 81.0704 38.8612 80.3865 37.3771 79.089C35.893 77.7916 34.9646 75.9532 34.4297 74.0542C34.0379 72.6635 33.8521 71.1197 34.4704 69.814C35.0886 68.5084 36.7525 67.6275 38.0362 68.287C37.2443 67.3629 37.6399 65.8344 38.5648 65.0439C39.4896 64.2533 40.7596 64.0267 41.9692 63.9028C43.7246 63.723 45.5378 63.7028 47.2082 64.2725C48.8786 64.8421 50.3963 66.0874 50.9191 67.7755C51.453 68.0245 52.0543 68.0891 52.6289 67.9592C53.2034 67.8293 53.7186 67.5122 54.094 67.0575C54.1907 67.5797 54.113 68.1192 53.8728 68.5927C53.6326 69.0661 53.2434 69.4471 52.7652 69.6766L55.3246 68.8455C55.7648 69.7787 54.9935 70.9337 54.0072 71.2325C53.0209 71.5314 51.9563 71.2047 51.0204 70.773C50.0844 70.3412 49.1774 69.7954 48.1608 69.627C47.1442 69.4586 45.9501 69.7858 45.4798 70.7042C45.2335 71.1852 45.2207 71.7485 45.0777 72.2698C44.9347 72.791 44.5725 73.3315 44.0344 73.3741C43.6945 73.4011 43.3617 73.2197 43.0228 73.2568C42.8147 73.2978 42.6232 73.3987 42.4715 73.5471C42.3199 73.6955 42.2147 73.885 42.169 74.0924C42.0846 74.5085 42.0835 74.9372 42.1659 75.3537L42.8161 80.3311L42.8596 80.556Z" fill="#2F2E41"/>
<path d="M52.403 118.377L52.0008 117.772L49.0653 113.361L49.0063 113.275L49.9139 108.559L50.1961 107.086L50.8131 103.882L50.6341 96.5486L50.5057 91.3598L50.4867 90.5456L49.836 88.5587C49.5275 87.6295 49.032 86.7737 48.38 86.0441C47.728 85.3145 46.9334 84.7266 46.0455 84.317L41.6654 82.3089C41.1499 82.0739 40.5624 82.0536 40.0319 82.2525C39.5015 82.4513 39.0717 82.8531 38.837 83.3694C38.8174 83.4126 38.7993 83.4563 38.7825 83.5007C38.1824 83.5829 35.5775 84.0217 33.3685 85.7386C31.8209 86.9179 30.7406 88.6083 30.3192 90.5097C30.315 90.5245 30.3129 90.5393 30.3087 90.554C30.016 91.8639 29.797 93.931 29.6559 96.7321C29.5611 98.584 29.5015 100.754 29.4769 103.241C29.4376 107.388 29.6705 111.532 30.1739 115.648C30.2224 116.04 30.2729 116.43 30.3256 116.823C30.3698 117.152 30.6857 117.466 30.991 117.768C31.2711 118.044 31.5596 118.331 31.5996 118.59C31.6354 118.818 31.4901 119.056 31.3174 119.305C31.2963 119.337 31.2732 119.369 31.2521 119.4C31.0373 119.706 30.8162 120.025 30.8731 120.36C31.0057 121.115 31.0837 121.883 31.1574 122.625C31.2397 123.648 31.3874 124.664 31.5996 125.667C31.6733 125.975 31.7575 126.285 31.8523 126.595C32.0734 127.323 32.3408 128.048 32.602 128.757C32.8273 129.373 33.061 130.006 33.259 130.63C33.2969 130.746 33.3327 130.86 33.3664 130.974L33.3832 131.033L33.4443 131.043H33.4485C33.5314 130.895 33.6303 130.757 33.7433 130.63C33.7484 130.622 33.7548 130.615 33.7623 130.609C33.7917 130.573 33.8254 130.535 33.8633 130.495C34.3245 129.991 35.3269 129.086 37.5212 127.561C38.0118 127.221 38.5614 126.852 39.1763 126.447C41.4317 124.969 44.582 123.043 48.9832 120.556C50.0866 119.932 51.2708 119.272 52.5357 118.576L52.403 118.377Z" fill="#096779"/>
<path d="M76.0238 164.777C75.5123 164.262 74.9042 163.854 74.2344 163.577C73.5647 163.299 72.8466 163.157 72.1218 163.159L69.8327 161.421L69.5316 161.191L67.4932 162.022C68.2049 162.336 68.9251 162.642 69.6474 162.937C71.907 163.861 74.2142 164.687 76.5693 165.414C76.4038 165.188 76.2214 164.975 76.0238 164.777Z" fill="#2F2E41"/>
<path d="M126.865 158.365L123.998 156.992L127.936 144.989L132.167 147.016L126.865 158.365Z" fill="#FFB6B6"/>
<path d="M146.085 156.43C145.251 156.951 144.407 157.458 143.552 157.949V157.955L143.539 157.958L143.535 157.96L143.211 158.04L142.745 156.808L141.671 153.967L138.744 146.226L143.295 145.102L143.552 146.146L145.476 153.965L146.028 156.2L146.085 156.43Z" fill="#FFB6B6"/>
<path d="M134.478 106.196C134.887 106.861 135.539 107.34 136.296 107.53C137.052 107.72 137.853 107.606 138.527 107.213C138.662 107.131 138.791 107.038 138.911 106.934L147.975 112.144L147.581 106.796L139.034 102.669C138.569 102.201 137.962 101.901 137.309 101.816C136.655 101.73 135.992 101.865 135.423 102.198C134.771 102.589 134.302 103.224 134.118 103.963C133.933 104.702 134.05 105.483 134.441 106.136C134.453 106.156 134.466 106.176 134.478 106.196Z" fill="#FFB6B6"/>
<path d="M144.078 110.182L145.68 111.16L152.876 115.555C153.348 115.851 153.874 116.051 154.423 116.144C154.973 116.236 155.535 116.219 156.078 116.094C156.621 115.969 157.134 115.738 157.588 115.414C158.041 115.09 158.427 114.68 158.723 114.207L158.725 114.203C159.258 113.324 159.446 112.278 159.254 111.268L156.056 95.2641C155.938 94.6359 155.686 94.0406 155.317 93.5189C154.948 92.9973 154.471 92.5616 153.918 92.2417C153.366 91.9217 152.751 91.725 152.115 91.6651C151.48 91.6051 150.839 91.6833 150.236 91.8943C149.224 92.2507 148.384 92.9802 147.89 93.9344C147.395 94.8886 147.282 95.9957 147.573 97.0305L150.917 108.388L145.791 105.994L144.078 110.182Z" fill="#096779"/>
<path d="M173.582 125.962C173.58 125.956 173.576 125.933 173.57 125.897L173.563 125.874C173.549 125.798 173.532 125.713 173.513 125.62C173.083 123.483 172.531 121.373 171.86 119.299C171.462 118.029 170.935 116.803 170.287 115.642C170.266 115.604 170.242 115.566 170.219 115.528L170.141 115.401L169.486 115.642L169.461 115.65L159.505 119.305L156.626 120.362L156.536 120.396L156.045 122.4L149.161 121.507L143.551 120.78L141.94 120.571C141.242 120.48 140.532 120.529 139.853 120.715C139.174 120.901 138.538 121.221 137.983 121.655C137.404 122.105 136.921 122.665 136.56 123.304C136.2 123.943 135.97 124.647 135.884 125.376C135.863 125.536 135.85 125.699 135.844 125.859L135.357 144.034V144.058L135.583 144.509L140.289 153.967H143.551L145.476 153.965H147.041L143.787 145.72L143.861 145.608C144.167 145.138 144.36 144.603 144.425 144.046C144.489 143.488 144.424 142.923 144.233 142.395L144.6 141.332C145.36 139.137 145 138.082 144.545 136.749C144.137 135.665 143.897 134.525 143.833 133.368L143.758 131.864C145.668 132.199 147.447 132.573 149.161 132.948C149.734 133.073 150.301 133.198 150.863 133.326C152.461 133.682 154.004 134.026 155.516 134.313C158.578 134.897 161.512 135.253 164.525 135.032C164.584 135.028 164.643 135.024 164.702 135.017C165.435 134.958 166.172 134.863 166.917 134.73C167.336 134.654 167.758 134.568 168.183 134.467C168.301 134.437 168.421 134.408 168.539 134.378C168.866 134.292 169.182 134.165 169.478 134.001C169.9 133.765 170.292 133.48 170.647 133.153C170.649 133.151 170.651 133.151 170.651 133.148C171.232 132.322 171.799 131.482 172.35 130.63C172.647 130.172 172.942 129.71 173.231 129.246C173.652 128.088 173.812 126.92 173.582 125.962Z" fill="#2F2E41"/>
<path d="M173.652 122.547C173.621 122.412 173.581 122.275 173.538 122.142C173.204 121.136 172.815 120.148 172.372 119.185C171.875 118.088 171.279 116.913 170.569 115.641C170.226 115.026 169.857 114.385 169.462 113.72C169.264 113.387 169.058 113.047 168.845 112.701C168.836 112.685 168.827 112.67 168.817 112.655L168.756 112.553L158.905 113.874L155.237 114.365L155.018 116.196L154.965 116.65C154.963 116.65 154.963 116.65 154.965 116.652L154.818 117.888V117.89L154.622 119.522L154.605 119.52L149.161 118.814L143.552 118.086L140.538 117.696C139.84 117.605 139.13 117.654 138.451 117.84C137.772 118.026 137.136 118.345 136.581 118.78C136.002 119.23 135.518 119.79 135.158 120.429C134.798 121.068 134.568 121.772 134.482 122.501C134.463 122.648 134.45 122.8 134.444 122.95L131.601 129.698C129.9 133.733 128.816 138.002 128.387 142.362L126.303 149.037L126.6 149.065L131.018 149.476L132.184 149.586L134.753 145.829C135.046 145.401 135.324 144.96 135.583 144.509C136.01 143.772 136.389 143.008 136.718 142.222L142.275 128.976C142.705 129.05 143.13 129.12 143.552 129.187C145.499 129.503 147.369 129.762 149.161 129.961C154.988 130.613 160.034 130.664 164.526 130.111C165.787 129.957 167.006 129.754 168.183 129.503C168.615 129.413 169.041 129.315 169.462 129.21C169.561 129.187 169.657 129.164 169.754 129.139C170.625 128.914 171.425 128.474 172.081 127.859C172.738 127.245 173.23 126.475 173.513 125.62C173.851 124.63 173.899 123.564 173.652 122.547Z" fill="#2F2E41"/>
<path d="M152.705 82.7098C156.468 82.7098 159.519 79.586 159.519 75.7325C159.519 71.879 156.468 68.7551 152.705 68.7551C148.941 68.7551 145.891 71.879 145.891 75.7325C145.891 79.586 148.941 82.7098 152.705 82.7098Z" fill="#FFB6B6"/>
<path d="M168.884 112.935C168.874 112.857 168.861 112.779 168.844 112.701C168.682 111.845 168.261 111.005 167.855 110.191C167.467 109.415 167.099 108.681 166.947 107.951C166.797 107.232 166.886 106.51 166.972 105.814C167.065 105.059 167.162 104.279 166.945 103.522C165.845 99.6545 164.334 95.9166 162.438 92.3721C161.96 90.8135 161.043 89.4262 159.798 88.3764C158.552 87.3266 157.03 86.659 155.415 86.4535C155.604 86.1009 155.682 85.6997 155.641 85.3018C155.614 85.0448 155.537 84.7955 155.414 84.5685C155.291 84.3415 155.124 84.1412 154.923 83.9793C154.73 83.8235 154.507 83.7074 154.269 83.6379C154.031 83.5684 153.782 83.5468 153.535 83.5744L150.368 83.9308C149.86 83.9947 149.398 84.2567 149.082 84.66C148.766 85.0633 148.622 85.5752 148.681 86.0844C148.699 86.2411 148.734 86.3954 148.786 86.5442C145.847 90.2945 144.337 93.7115 144.198 96.9429V96.945C144.181 97.3182 144.183 97.692 144.204 98.065C144.271 99.2713 144.532 100.459 144.979 101.581C145.506 102.878 146.212 104.094 147.076 105.194C147.253 105.418 147.437 105.637 147.626 105.852C147.803 106.063 148.001 106.285 148.22 106.517L148.774 107.386L149.29 108.198L152.048 114.574L153.453 114.528L153.649 115.93L153.695 116.257L154.605 119.52L154.672 119.765L155.917 119.172L163.342 115.641L168.893 113.001L168.884 112.935Z" fill="#096779"/>
<path opacity="0.2" d="M145.062 101.547C145.696 103.101 146.586 104.536 147.695 105.793C147.885 106.02 148.086 106.243 148.296 106.467L149.374 108.161C153.347 105.178 156.567 93.4316 156.567 93.4316L152.083 92.5581L145.062 101.547Z" fill="black"/>
<path d="M142.348 83.3615C142.741 84.037 142.855 84.8392 142.666 85.5975C142.477 86.3559 142 87.0104 141.337 87.4219C141.201 87.5035 141.058 87.5736 140.91 87.6315L141.228 98.0941L136.704 95.242L137.096 85.7437C136.904 85.1117 136.926 84.4336 137.158 83.8153C137.391 83.1969 137.822 82.6732 138.383 82.3258C139.032 81.9327 139.81 81.8138 140.546 81.9954C141.282 82.1769 141.916 82.6439 142.309 83.2937C142.322 83.3161 142.335 83.3387 142.348 83.3615Z" fill="#FFB6B6"/>
<path d="M141.626 94.1448L136.651 94.8533L136.865 105.171C136.878 105.907 137.078 106.628 137.447 107.265C137.815 107.902 138.341 108.433 138.972 108.81C139.744 109.265 140.643 109.456 141.533 109.355C142.422 109.253 143.255 108.865 143.906 108.249L155.65 96.934C156.476 96.1488 156.97 95.0764 157.032 93.9372C157.093 92.798 156.715 91.6787 155.978 90.8095C155.255 89.9525 154.222 89.4183 153.106 89.3242C151.99 89.2302 150.882 89.5841 150.027 90.308C149.993 90.3364 149.96 90.3652 149.927 90.3946C149.811 90.4985 149.701 90.6086 149.597 90.7245L141.842 99.6601L141.626 94.1448Z" fill="#096779"/>
<path d="M146.212 156.167L146.028 156.201L143.552 156.658L142.745 156.808L141.476 157.042L141.926 158.862C142.467 158.569 143.002 158.268 143.535 157.96L143.539 157.958L143.552 157.955V157.949C144.407 157.46 145.251 156.954 146.085 156.43C146.144 156.395 146.203 156.359 146.262 156.319L146.212 156.167Z" fill="#2F2E41"/>
<path d="M127.781 156.405L124.679 154.916L124.193 154.682L123.416 156.593L117.991 157.789C117.723 157.848 117.48 157.991 117.299 158.198C117.118 158.404 117.008 158.664 116.984 158.938C116.961 159.212 117.025 159.486 117.169 159.721C117.312 159.955 117.526 160.138 117.78 160.242L123.081 162.408L124.763 160.892L124.351 162.927L126.347 163.743L128.535 156.768L127.781 156.405Z" fill="#2F2E41"/>
<path d="M170.939 72.7063C169.78 71.3534 169.23 69.5584 168.304 68.0221C167.378 66.4858 165.766 65.1108 164.064 65.4683C162.891 65.7148 161.984 66.7519 161.525 67.9083C161.066 69.0645 160.98 70.3397 160.899 71.5889C160.928 69.0217 159.239 66.533 156.913 65.7138C154.587 64.8946 151.803 65.8084 150.342 67.8708C149.704 67.2787 148.871 66.9415 148.002 66.9232C147.132 66.905 146.286 67.2068 145.624 67.7716C144.317 68.942 144.028 71.1696 144.989 72.6625C145.951 74.1553 148.033 74.7114 149.561 73.8835L150.101 74.3812C149.797 75.4464 150.387 76.7047 151.378 77.1056C152.182 77.4308 153.316 77.3767 153.617 78.2216C153.827 78.8119 153.434 79.442 153.016 79.8957C152.599 80.3493 152.103 80.8177 152.052 81.4455C151.977 82.3926 152.954 83.0561 153.842 83.2559C155.984 83.7378 158.361 82.7443 159.595 80.8509C159.619 80.8144 159.645 80.7779 159.673 80.7412C160.365 79.854 160.87 78.8347 161.156 77.7455C161.442 76.6563 161.504 75.5201 161.336 74.4064C161.267 73.9688 161.337 73.6433 161.638 73.5397C162.94 73.0917 166.588 74.0319 167.692 74.8816C168.796 75.7313 169.68 76.8557 170.743 77.7602C171.806 78.6648 173.161 79.3625 174.512 79.1162C175.593 78.9189 176.513 78.1326 177.132 77.1841C177.75 76.2356 178.106 75.13 178.425 74.0313C176.034 75.4149 172.762 74.8358 170.939 72.7063Z" fill="#2F2E41"/>
<path d="M149.161 114.297V154.415C148.399 154.94 147.627 155.452 146.845 155.949V116.957C146.845 115.826 146.466 114.909 146 114.907H110.94C110.473 114.909 110.096 115.826 110.094 116.957V168.731C109.626 168.777 109.159 168.821 108.691 168.859C108.498 168.876 108.302 168.891 108.108 168.906C107.996 168.699 107.887 168.49 107.777 168.279V114.297C107.777 113.985 107.79 113.671 107.811 113.361C108.001 110.728 108.942 108.805 110.043 108.8H146.895C147.028 108.801 147.16 108.829 147.283 108.883C148.205 109.275 148.934 110.996 149.117 113.221C149.146 113.576 149.163 113.936 149.161 114.297Z" fill="#3C1717"/>
<path d="M92.9078 114.297V168.57C92.8762 168.621 92.8446 168.67 92.813 168.72C92.0212 168.64 91.2329 168.548 90.4482 168.444V116.957C90.4482 115.826 90.046 114.909 89.5511 114.907H52.3391C51.8442 114.909 51.442 115.826 51.442 116.957V152.7C50.6102 152.087 49.7904 151.457 48.9824 150.813V114.297C48.9824 113.985 48.9951 113.671 49.0182 113.361C49.2183 110.728 50.2185 108.805 51.3894 108.8H90.5008C90.6417 108.801 90.7812 108.829 90.9115 108.883C91.8907 109.275 92.6656 110.996 92.8615 113.221C92.893 113.576 92.9078 113.936 92.9078 114.297Z" fill="#3C1717"/>
<path d="M80.4365 96.2607L82.8753 107.008L84.4336 108.718H85.5579L80.9244 89.1768L80.6951 92.4965V92.4988L80.4365 96.2607Z" fill="#3F3D56"/>
<path d="M88.5581 109.267C88.551 109.251 88.5418 109.235 88.5307 109.221C88.5082 109.17 88.4761 109.124 88.436 109.086L88.1517 108.801L86.6565 107.302C86.5467 107.194 86.3995 107.133 86.2459 107.133H86.2396L85.1846 107.139L84.277 107.145L83.0092 107.154L74.3754 107.209L68.7002 107.245C68.5465 107.247 68.3997 107.309 68.2914 107.418C68.183 107.527 68.1219 107.675 68.1211 107.829C68.122 107.914 68.1406 107.998 68.1758 108.076L68.2853 108.31L68.5149 108.801L68.8139 109.445L68.9613 109.761C69.0083 109.862 69.083 109.947 69.1766 110.007C69.2702 110.066 69.3789 110.098 69.4899 110.098H88.0232C88.1207 110.097 88.2163 110.071 88.3015 110.023C88.3866 109.976 88.4588 109.908 88.5117 109.826C88.5645 109.744 88.5964 109.65 88.6045 109.552C88.6126 109.455 88.5967 109.357 88.5581 109.267H88.5581Z" fill="#3F3D56"/>
<path opacity="0.17" d="M68.8145 109.444L68.9608 109.762C69.0084 109.862 69.0833 109.947 69.1769 110.006C69.2705 110.066 69.379 110.098 69.49 110.099H88.0241C88.1215 110.097 88.2171 110.071 88.3022 110.024C88.3874 109.976 88.4596 109.908 88.5123 109.826C88.5651 109.744 88.5969 109.65 88.6049 109.553C88.6129 109.456 88.5968 109.358 88.5581 109.268C88.5516 109.251 88.5425 109.236 88.5313 109.222L68.8145 109.444Z" fill="black"/>
<path opacity="0.17" d="M80.6953 92.4965V92.4988L84.6631 108.718H85.5581L80.9246 89.1768L80.6953 92.4965Z" fill="black"/>
<path d="M86.9196 47.1073L86.3384 47.0293C86.1789 47.0085 86.0177 47.0517 85.8899 47.1495L85.5424 47.4174L81.674 52.2645C81.5463 52.3634 81.4629 52.509 81.4424 52.6694L81.2255 54.3189L75.8261 95.4684C75.8069 95.6209 75.8452 95.7751 75.9335 95.9008L78.4774 102.925L78.5532 103.034L78.7174 103.268C78.802 103.387 78.9258 103.473 79.067 103.509L79.4355 103.602C79.5192 103.623 79.6065 103.626 79.6914 103.61C79.7763 103.595 79.8571 103.562 79.9283 103.513C79.9998 103.465 80.0601 103.402 80.1051 103.329C80.1502 103.255 80.1789 103.173 80.1894 103.087L80.8485 98.0713V98.0692L81.2697 94.8504L81.6256 92.1358V92.1337L87.4461 47.7907C87.4671 47.6306 87.4237 47.4687 87.3256 47.3406C87.2274 47.2125 87.0824 47.1288 86.9226 47.1077L86.9196 47.1073Z" fill="#3F3D56"/>
<path opacity="0.17" d="M85.5421 47.4178L78.4775 102.926L78.5543 103.034L78.718 103.268C78.8025 103.387 78.9263 103.472 79.0676 103.509L79.4367 103.601C79.5202 103.622 79.6072 103.625 79.6919 103.61C79.7766 103.595 79.8572 103.562 79.9283 103.513C79.9995 103.465 80.0596 103.402 80.1047 103.328C80.1499 103.255 80.1791 103.173 80.1904 103.087L87.446 47.7916C87.467 47.631 87.4235 47.4687 87.3251 47.3402C87.2266 47.2117 87.0813 47.1277 86.921 47.1066L86.3383 47.0298C86.2592 47.0191 86.1788 47.0243 86.1018 47.045C86.0247 47.0658 85.9526 47.1017 85.8895 47.1506L85.5421 47.4178Z" fill="black"/>
<path d="M85.3338 49.0051L81.5848 54.365L77.1289 88.3243L79.5447 93.1247L85.3338 49.0051Z" fill="#096779"/>
<path d="M121.853 96.2607L119.414 107.008L117.856 108.718H116.731L121.365 89.1768L121.594 92.4965V92.4988L121.853 96.2607Z" fill="#3F3D56"/>
<path d="M133.589 107.245L119.282 107.154L118.012 107.145L117.107 107.139L116.052 107.133H116.043C115.89 107.133 115.743 107.194 115.635 107.302L113.853 109.086C113.814 109.125 113.782 109.171 113.758 109.221C113.747 109.235 113.738 109.251 113.731 109.267C113.693 109.357 113.677 109.455 113.685 109.552C113.693 109.65 113.725 109.744 113.777 109.826C113.83 109.908 113.903 109.976 113.988 110.023C114.073 110.071 114.168 110.097 114.266 110.098H132.799C132.911 110.098 133.019 110.066 133.113 110.006C133.207 109.947 133.282 109.862 133.33 109.761L133.475 109.445L133.774 108.801L134.113 108.076C134.15 107.998 134.168 107.914 134.168 107.829C134.167 107.675 134.106 107.527 133.998 107.418C133.89 107.309 133.743 107.247 133.589 107.245Z" fill="#3F3D56"/>
<path opacity="0.17" d="M133.475 109.444L133.329 109.762C133.281 109.862 133.206 109.947 133.113 110.006C133.019 110.066 132.91 110.098 132.8 110.099H114.265C114.168 110.097 114.072 110.071 113.987 110.024C113.902 109.976 113.83 109.908 113.777 109.826C113.724 109.744 113.693 109.65 113.685 109.553C113.677 109.456 113.693 109.358 113.731 109.268C113.738 109.251 113.747 109.236 113.758 109.222L133.475 109.444Z" fill="black"/>
<path opacity="0.17" d="M121.594 92.4965V92.4988L117.626 108.718H116.731L121.365 89.1768L121.594 92.4965Z" fill="black"/>
<path d="M126.463 95.4686L120.847 52.6696C120.826 52.5092 120.743 52.3635 120.615 52.2646L116.749 47.4175L116.401 47.1496C116.272 47.052 116.111 47.0089 115.951 47.0294L115.369 47.1075C115.209 47.1282 115.064 47.2118 114.965 47.34C114.866 47.4681 114.822 47.6303 114.843 47.7909L120.663 92.1359V92.1381L121.019 94.8506L121.443 98.0714V98.0756L122.1 103.087C122.11 103.173 122.139 103.256 122.184 103.329C122.23 103.403 122.291 103.466 122.363 103.513C122.434 103.562 122.514 103.595 122.599 103.611C122.683 103.626 122.77 103.623 122.853 103.602L123.222 103.509C123.363 103.473 123.487 103.388 123.572 103.269L123.736 103.034L123.812 102.925L126.355 95.901C126.445 95.7757 126.483 95.6211 126.463 95.4686Z" fill="#3F3D56"/>
<path opacity="0.17" d="M116.748 47.4178L123.813 102.926L123.736 103.034L123.572 103.268C123.488 103.387 123.364 103.472 123.222 103.509L122.853 103.601C122.77 103.622 122.683 103.625 122.598 103.61C122.513 103.595 122.433 103.562 122.362 103.513C122.291 103.465 122.23 103.402 122.185 103.328C122.14 103.255 122.111 103.173 122.1 103.087L114.844 47.7916C114.823 47.631 114.867 47.4687 114.965 47.3402C115.063 47.2117 115.209 47.1277 115.369 47.1065L115.952 47.0298C116.031 47.0191 116.111 47.0243 116.188 47.045C116.265 47.0658 116.337 47.1017 116.401 47.1506L116.748 47.4178Z" fill="black"/>
<path d="M116.956 49.0051L120.705 54.365L125.161 88.3243L122.745 93.1247L116.956 49.0051Z" fill="#096779"/>
<path d="M47.2756 117.472C47.2762 117.579 47.267 117.684 47.2482 117.789C47.2398 117.839 47.2293 117.888 47.2166 117.936C47.1141 118.329 46.8846 118.676 46.5642 118.923C46.2438 119.171 45.8504 119.305 45.4456 119.305H37.5214V138.236C37.5218 138.636 37.3908 139.025 37.1487 139.343C36.9676 139.13 36.7886 138.917 36.6117 138.702C35.6641 137.567 34.7481 136.407 33.8636 135.222V119.305H30.3258C29.8541 119.305 29.4007 119.122 29.0604 118.795C28.7201 118.468 28.5192 118.022 28.4996 117.549C28.4801 117.077 28.6433 116.616 28.9554 116.262C29.2675 115.907 29.7041 115.687 30.1742 115.648C30.2247 115.644 30.2753 115.642 30.3258 115.642H45.4456C45.9307 115.641 46.3959 115.834 46.739 116.178C47.0822 116.521 47.2752 116.987 47.2756 117.472Z" fill="#3F3D56"/>
<path d="M173.547 117.472C173.547 117.843 173.435 118.206 173.225 118.512C173.015 118.817 172.718 119.052 172.372 119.185C172.208 119.248 172.036 119.286 171.86 119.299C171.814 119.303 171.766 119.305 171.719 119.305H168.184V136.487C168.131 136.557 168.076 136.627 168.021 136.696C167.19 137.761 166.333 138.806 165.45 139.828C165.169 139.67 164.934 139.438 164.772 139.158C164.609 138.878 164.524 138.56 164.526 138.236V119.305H156.599C156.366 119.306 156.134 119.261 155.917 119.173C155.644 119.063 155.402 118.89 155.211 118.666C155.019 118.443 154.884 118.177 154.818 117.89V117.888C154.72 117.471 154.772 117.034 154.965 116.652C154.963 116.65 154.963 116.65 154.965 116.65C155.049 116.482 155.158 116.328 155.29 116.194C155.46 116.019 155.664 115.88 155.889 115.785C156.114 115.69 156.355 115.642 156.599 115.642H171.719C172.204 115.642 172.669 115.834 173.012 116.178C173.354 116.521 173.547 116.986 173.547 117.472L173.547 117.472Z" fill="#3F3D56"/>
<path d="M173.426 82.1765C172.674 82.1765 171.928 82.325 171.233 82.6135C170.538 82.9019 169.906 83.3248 169.374 83.8578C168.842 84.3908 168.42 85.0236 168.132 85.7201C167.844 86.4165 167.695 87.163 167.695 87.9168V87.9168C167.696 89.2484 168.158 90.5385 169.003 91.5663C169.848 92.5941 171.024 93.2956 172.329 93.5508V102.939H175.987V82.1765H173.426Z" fill="#3F3D56"/>
<path d="M73.3675 103.137C73.0027 102.923 72.5953 102.791 72.1741 102.751C71.7529 102.711 71.3282 102.765 70.9298 102.907C70.5313 103.049 70.1689 103.278 69.8681 103.576C69.5672 103.873 69.3353 104.234 69.1885 104.631L62.5808 104.889L61.6904 107.972L71.0843 108.454C71.7672 108.657 72.5006 108.601 73.1456 108.299C73.7905 107.996 74.3022 107.467 74.5836 106.811C74.8651 106.156 74.8967 105.42 74.6726 104.743C74.4485 104.066 73.9841 103.494 73.3675 103.137H73.3675Z" fill="#9E616A"/>
<path d="M67.9404 108.786L61.1529 108.702L60.2937 108.69L46.4842 108.516C46.4842 108.516 42.7341 104.932 39.4688 101.243L39.9264 97.9269C40.3729 94.6727 41.9845 91.6919 44.4614 89.5391C49.1382 92.6692 51.8504 98.8649 51.8504 98.8649L56.3979 100.903C59.5982 101.046 62.7168 101.961 65.4887 103.57L66.9842 104.438L67.9404 108.786Z" fill="#096779"/>
<path d="M89.2656 168.28H113.748C112.078 168.525 110.393 168.718 108.692 168.86H94.3217C92.6202 168.719 90.9348 168.526 89.2656 168.28Z" fill="#340A0A"/>
<path d="M94.1882 155.935C94.662 151.652 97.2516 147.403 101.305 145.957C99.7576 150.38 99.8224 155.208 101.488 159.588C102.136 161.274 103.032 163.083 102.466 164.799C102.114 165.867 101.23 166.692 100.235 167.214C99.2406 167.736 98.1325 167.993 97.0384 168.246L96.8248 168.427C95.0301 164.511 93.7144 160.218 94.1882 155.935Z" fill="#340A0A"/>
<path d="M101.346 146.037C99.0102 148.73 97.5812 152.091 97.2615 155.644C97.1792 156.408 97.2175 157.179 97.3751 157.931C97.5522 158.658 97.9205 159.325 98.4417 159.861C98.9177 160.371 99.4635 160.837 99.8075 161.454C99.9788 161.773 100.081 162.124 100.107 162.485C100.134 162.845 100.084 163.208 99.9606 163.548C99.6756 164.403 99.1008 165.105 98.515 165.771C97.8644 166.512 97.177 167.27 96.9093 168.243C96.8769 168.361 96.6961 168.304 96.7285 168.186C97.1943 166.493 98.8163 165.513 99.5757 163.983C99.93 163.269 100.072 162.444 99.7207 161.7C99.4137 161.05 98.8513 160.568 98.3649 160.056C97.8488 159.54 97.4666 158.906 97.2517 158.208C97.0564 157.467 96.9885 156.698 97.0508 155.934C97.1637 154.211 97.5463 152.518 98.1845 150.915C98.9027 149.081 99.9288 147.384 101.218 145.896C101.298 145.804 101.425 145.946 101.346 146.037H101.346Z" fill="white"/>
<path d="M97.2967 154.494C96.7089 154.359 96.188 154.02 95.827 153.536C95.4661 153.052 95.2886 152.456 95.3263 151.853C95.328 151.828 95.3392 151.805 95.3575 151.789C95.3758 151.772 95.3998 151.764 95.4244 151.765C95.4489 151.766 95.4722 151.776 95.4892 151.794C95.5063 151.811 95.5158 151.835 95.5158 151.86C95.4797 152.421 95.6451 152.977 95.9821 153.427C96.3192 153.876 96.8056 154.191 97.3537 154.313C97.4728 154.339 97.4151 154.52 97.2967 154.494H97.2967Z" fill="white"/>
<path d="M98.1658 159.634C99.2156 158.987 99.9833 157.968 100.316 156.779C100.349 156.661 100.53 156.718 100.497 156.836C100.148 158.072 99.3472 159.132 98.2534 159.803C98.1491 159.867 98.0621 159.698 98.1658 159.634Z" fill="white"/>
<path d="M99.0806 149.258C99.2972 149.358 99.5351 149.402 99.7729 149.387C100.011 149.371 100.241 149.297 100.443 149.171C100.547 149.106 100.633 149.274 100.531 149.339C100.307 149.478 100.052 149.56 99.7896 149.577C99.5268 149.594 99.2638 149.547 99.0235 149.439C99 149.431 98.9806 149.414 98.9691 149.392C98.9576 149.37 98.9549 149.344 98.9616 149.32C98.9693 149.296 98.9861 149.276 99.0084 149.265C99.0307 149.253 99.0566 149.251 99.0806 149.258L99.0806 149.258Z" fill="white"/>
<path d="M113.817 153.428C113.753 153.471 113.69 153.513 113.626 153.557C112.777 154.134 111.975 154.778 111.229 155.484C111.17 155.538 111.112 155.593 111.055 155.649C109.277 157.37 107.832 159.406 106.796 161.655C106.385 162.55 106.042 163.476 105.77 164.423C105.396 165.731 105.093 167.18 104.331 168.256C104.253 168.369 104.168 168.478 104.076 168.58L97.0625 168.674C97.0465 168.666 97.0304 168.66 97.0142 168.652L96.7344 168.669C96.745 168.619 96.757 168.568 96.7676 168.518C96.7736 168.489 96.7812 168.46 96.7872 168.431C96.7917 168.412 96.7963 168.392 96.7993 168.375C96.8008 168.368 96.8023 168.362 96.8038 168.357C96.8068 168.339 96.8114 168.323 96.8144 168.307C96.881 168.019 96.9497 167.731 97.0205 167.444C97.0205 167.442 97.0205 167.442 97.0221 167.44C97.5409 165.241 98.3184 163.112 99.3382 161.096C99.3694 161.036 99.4006 160.975 99.435 160.915C99.9078 160.023 100.453 159.17 101.064 158.367C101.4 157.928 101.758 157.506 102.137 157.104C103.118 156.065 104.255 155.187 105.508 154.503C108.006 153.139 110.912 152.59 113.611 153.367C113.68 153.387 113.748 153.407 113.817 153.428Z" fill="#340A0A"/>
<path d="M113.802 153.518C110.319 154.259 107.157 156.081 104.767 158.725C104.242 159.285 103.809 159.925 103.483 160.62C103.187 161.307 103.08 162.061 103.174 162.804C103.248 163.498 103.403 164.2 103.307 164.9C103.252 165.257 103.123 165.599 102.927 165.903C102.731 166.207 102.474 166.466 102.171 166.664C101.429 167.175 100.549 167.388 99.68 167.567C98.7157 167.766 97.7109 167.957 96.9121 168.573C96.8154 168.647 96.7054 168.492 96.8021 168.418C98.1919 167.347 100.076 167.542 101.602 166.779C102.314 166.423 102.923 165.849 103.09 165.044C103.236 164.339 103.076 163.616 102.996 162.914C102.893 162.19 102.97 161.453 103.218 160.766C103.507 160.057 103.915 159.402 104.424 158.829C105.55 157.522 106.873 156.401 108.346 155.506C110.022 154.475 111.862 153.738 113.785 153.328C113.904 153.303 113.921 153.493 113.802 153.518H113.802Z" fill="white"/>
<path d="M105.486 157.828C105.098 157.366 104.886 156.781 104.889 156.177C104.891 155.573 105.108 154.99 105.501 154.531C105.58 154.439 105.728 154.559 105.648 154.651C105.282 155.078 105.08 155.621 105.078 156.183C105.077 156.746 105.277 157.29 105.641 157.718C105.72 157.811 105.565 157.921 105.486 157.828Z" fill="white"/>
<path d="M103.091 162.457C104.318 162.574 105.544 162.222 106.524 161.474C106.621 161.4 106.731 161.554 106.634 161.628C105.612 162.406 104.336 162.768 103.059 162.644C102.938 162.633 102.97 162.445 103.091 162.457V162.457Z" fill="white"/>
<path d="M110.058 154.724C110.171 154.934 110.334 155.113 110.533 155.244C110.732 155.375 110.961 155.455 111.198 155.476C111.32 155.486 111.288 155.673 111.167 155.663C110.905 155.639 110.652 155.55 110.432 155.406C110.212 155.261 110.03 155.065 109.903 154.834C109.889 154.813 109.884 154.788 109.888 154.763C109.892 154.739 109.906 154.717 109.925 154.702C109.946 154.687 109.971 154.681 109.996 154.685C110.021 154.69 110.043 154.703 110.058 154.724Z" fill="white"/>
<path d="M117.455 159.396C118.687 159.396 119.686 158.395 119.686 157.161C119.686 155.927 118.687 154.927 117.455 154.927C116.223 154.927 115.225 155.927 115.225 157.161C115.225 158.395 116.223 159.396 117.455 159.396Z" fill="#340A0A"/>
<path d="M124.737 165.921C124.6 165.961 124.461 166.001 124.322 166.039C123.061 166.393 121.791 166.717 120.511 167.011C120.364 166.713 120.285 166.386 120.28 166.054C120.275 165.722 120.344 165.392 120.482 165.09C120.62 164.788 120.824 164.52 121.078 164.307C121.333 164.094 121.632 163.94 121.953 163.857C122.274 163.774 122.61 163.764 122.936 163.828C123.262 163.891 123.569 164.027 123.836 164.225C124.103 164.422 124.322 164.677 124.478 164.971C124.634 165.264 124.723 165.589 124.737 165.921Z" fill="#340A0A"/>
<path d="M137.482 161.124C137.312 161.204 137.141 161.285 136.971 161.363C136.785 161.451 136.598 161.536 136.413 161.62C136.204 161.715 135.998 161.808 135.789 161.9C135.006 162.251 134.214 162.588 133.42 162.913C133.41 162.896 133.399 162.877 133.389 162.858C133.111 162.336 133.051 161.725 133.222 161.158C133.393 160.592 133.781 160.117 134.302 159.837C134.822 159.557 135.433 159.496 135.998 159.666C136.564 159.836 137.04 160.224 137.32 160.745C137.385 160.866 137.439 160.993 137.482 161.124Z" fill="#340A0A"/>
<path d="M125.322 153.911C126.554 153.911 127.553 152.911 127.553 151.677C127.553 150.443 126.554 149.443 125.322 149.443C124.091 149.443 123.092 150.443 123.092 151.677C123.092 152.911 124.091 153.911 125.322 153.911Z" fill="#340A0A"/>
<path d="M104.861 29.256C91.7395 32.7131 77.2009 34.816 62.4181 35.3918C60.2516 35.51 58.08 35.4952 55.9153 35.3475C51.1582 34.9468 47.0835 33.4492 42.5454 32.6308C40.3638 32.2385 37.9337 31.9516 35.7373 31.5277C36.2448 30.897 36.7614 30.274 37.2872 29.6588C42.0232 30.0596 46.8329 31.3716 51.6257 31.9811C59.7732 33.0189 68.9019 31.8609 75.0783 29.005C78.0749 27.6192 80.3702 25.8896 83.3563 24.4975C83.7624 24.2886 84.2023 24.1537 84.6556 24.0988C85.6011 24.0124 86.4308 24.3941 87.1067 24.7358C92.1165 27.2691 99.39 29.3277 106.141 28.195C106.645 28.5894 105.689 29.0387 104.861 29.256Z" fill="white"/>
<path d="M134.736 38.1707C134.797 38.1595 134.859 38.1506 134.921 38.1399C134.662 37.9789 134.417 37.7947 134.191 37.5894L134.736 38.1707Z" fill="white"/>
<path d="M175.151 43.1685C172.331 43.3942 169.496 43.5623 166.647 43.6726C164.481 43.7898 162.309 43.775 160.144 43.6283C155.387 43.2255 151.313 41.73 146.775 40.9116C142.616 40.1628 137.562 39.8021 134.921 38.1401C141.746 36.9568 148.817 39.3655 155.855 40.262C161.548 40.9631 167.318 40.6777 172.914 39.4183C173.693 40.6459 174.439 41.8959 175.151 43.1685Z" fill="white"/>
<path d="M111.676 74.8084C105.071 52.0982 101.183 28.6826 101.183 5.02829V3.31396H98.9878V5.02825C98.9878 28.6826 95.0997 52.0982 88.4941 74.8084C88.1748 75.9078 88.013 77.0471 88.0137 78.1921V78.1921C88.0137 78.6252 88.0988 79.054 88.2643 79.4541C88.4297 79.8542 88.6722 80.2177 88.9779 80.5239C89.2837 80.8301 89.6466 81.073 90.046 81.2387C90.4455 81.4045 90.8736 81.4898 91.3059 81.4898H95.6956C95.6956 82.0671 95.8091 82.6389 96.0297 83.1723C96.2503 83.7058 96.5736 84.1905 96.9813 84.5988C97.3889 85.0071 97.8728 85.3309 98.4054 85.5519C98.9379 85.7728 99.5088 85.8866 100.085 85.8866C100.662 85.8866 101.232 85.7728 101.765 85.5519C102.298 85.3309 102.782 85.0071 103.189 84.5988C103.597 84.1905 103.92 83.7058 104.141 83.1723C104.361 82.6389 104.475 82.0671 104.475 81.4898H107.891V90.9663C107.409 90.9803 106.951 91.1786 106.61 91.5204C106.27 91.8621 106.073 92.3215 106.06 92.8041C106.047 93.2868 106.219 93.7561 106.54 94.1158C106.862 94.4755 107.309 94.6982 107.789 94.7383C108.269 94.7784 108.747 94.6328 109.123 94.3313C109.5 94.0299 109.747 93.5956 109.814 93.1174C109.881 92.6393 109.763 92.1536 109.483 91.7601C109.204 91.3666 108.785 91.0952 108.312 91.0014V81.4897H108.865C109.738 81.4897 110.575 81.1423 111.192 80.5239C111.81 79.9055 112.157 79.0667 112.157 78.1921V78.1921C112.157 77.0471 111.996 75.9078 111.676 74.8084Z" fill="white"/>
</g>
<defs>
<clipPath id="clip0_1148_1691">
<rect width="185.95" height="169.163" fill="white"/>
</clipPath>
</defs>
</svg>
