<svg width="216" height="160" viewBox="0 0 216 160" fill="none" xmlns="http://www.w3.org/2000/svg">
<g clip-path="url(#clip0_1148_1634)">
<path d="M21.067 1.5603C15.8966 1.56611 10.9397 3.61621 7.28374 7.26082C3.62775 10.9054 1.57126 15.8469 1.56543 21.0012V95.5048C1.57126 100.659 3.62775 105.601 7.28374 109.245C10.9397 112.89 15.8966 114.94 21.067 114.946H194.933C200.104 114.94 205.061 112.89 208.717 109.245C212.373 105.601 214.429 100.659 214.435 95.5048V21.0012C214.429 15.8469 212.373 10.9054 208.717 7.26082C205.061 3.61621 200.104 1.56611 194.933 1.5603H21.067Z" fill="white"/>
<path d="M194.933 116.506H21.0667C15.4814 116.5 10.1267 114.285 6.17725 110.348C2.22783 106.411 0.00628668 101.073 0 95.5048V21.0012C0.00628668 15.4333 2.22783 10.0952 6.17725 6.15803C10.1267 2.2209 15.4814 0.00626713 21.0667 0H194.933C200.519 0.00626333 205.873 2.2209 209.823 6.15803C213.772 10.0952 215.994 15.4333 216 21.0012V95.5048C215.994 101.073 213.772 106.411 209.823 110.348C205.873 114.285 200.519 116.5 194.933 116.506ZM21.0667 3.12069C16.3114 3.12605 11.7523 5.0116 8.38978 8.36369C5.02724 11.7158 3.1358 16.2606 3.13042 21.0012V95.5048C3.1358 100.245 5.02724 104.79 8.38978 108.142C11.7523 111.494 16.3114 113.38 21.0667 113.385H194.933C199.689 113.38 204.248 111.494 207.61 108.142C210.973 104.79 212.864 100.245 212.87 95.5048V21.0012C212.864 16.2606 210.973 11.7158 207.61 8.36369C204.248 5.0116 199.689 3.12605 194.933 3.12069H21.0667Z" fill="#E6E6E6"/>
<path d="M108.467 16.9856H25.7814C24.0167 16.9886 22.3251 17.6888 21.0773 18.9328C19.8294 20.1767 19.1271 21.8631 19.124 23.6223V60.8002C19.1233 61.1946 19.16 61.5882 19.2336 61.9757C19.2597 62.1525 19.3014 62.3241 19.3432 62.4958C19.7219 63.9105 20.558 65.1614 21.7219 66.0546C22.8858 66.9478 24.3126 67.4337 25.7814 67.4369H108.467C108.602 67.4369 108.738 67.4317 108.868 67.4213H108.962V67.4161C108.988 67.4169 109.015 67.4152 109.041 67.4109C109.067 67.4109 109.098 67.4057 109.124 67.4057C109.133 67.4065 109.142 67.4047 109.15 67.4005C109.207 67.3953 109.265 67.3901 109.317 67.3849C109.411 67.3693 109.505 67.3589 109.594 67.3433C109.605 67.339 109.618 67.3372 109.63 67.3381C109.646 67.3301 109.664 67.3265 109.682 67.3277C109.684 67.3257 109.687 67.3242 109.69 67.3233C109.692 67.3224 109.695 67.3221 109.698 67.3225C109.755 67.3121 109.813 67.3017 109.87 67.286C109.902 67.2816 109.933 67.2747 109.964 67.2653C110.079 67.2393 110.194 67.2133 110.303 67.1768C110.355 67.1612 110.402 67.1508 110.454 67.1352C110.522 67.1144 110.595 67.0884 110.663 67.0624C110.699 67.0526 110.734 67.0405 110.768 67.026C110.772 67.0259 110.776 67.025 110.779 67.0232C110.783 67.0214 110.786 67.0188 110.788 67.0156C110.939 66.9626 111.087 66.9018 111.232 66.8336C111.357 66.7764 111.477 66.7139 111.597 66.6515C111.644 66.6307 111.686 66.6047 111.733 66.5787C111.744 66.5736 111.755 66.5666 111.764 66.5579C111.884 66.4851 112.004 66.4123 112.119 66.3447C112.124 66.3395 112.124 66.3343 112.129 66.3343C112.13 66.3343 112.131 66.3342 112.131 66.3339C112.132 66.3336 112.132 66.3333 112.133 66.3328C112.133 66.3323 112.134 66.3317 112.134 66.3311C112.134 66.3304 112.134 66.3298 112.134 66.3291C112.257 66.2523 112.376 66.169 112.489 66.0794H112.494C112.526 66.0534 112.552 66.0326 112.578 66.0118C112.614 65.9858 112.651 65.9546 112.682 65.9286C112.745 65.8766 112.807 65.8245 112.865 65.7725C112.9 65.7459 112.933 65.7163 112.964 65.6841C113.053 65.6061 113.136 65.5229 113.22 65.4397C113.264 65.3972 113.306 65.3521 113.345 65.3044C113.41 65.2424 113.471 65.1764 113.528 65.1068C113.58 65.0392 113.637 64.9716 113.689 64.9039C113.751 64.8329 113.809 64.7583 113.861 64.6803C113.955 64.5555 114.039 64.4306 114.122 64.2954C114.19 64.1862 114.258 64.0717 114.321 63.9573C114.352 63.9001 114.383 63.8377 114.414 63.7753C114.42 63.7753 114.42 63.7701 114.42 63.7649C114.477 63.6557 114.529 63.5464 114.576 63.432C114.597 63.3852 114.618 63.3436 114.634 63.2968C114.675 63.2084 114.707 63.1147 114.743 63.0211C114.801 62.8495 114.858 62.6726 114.905 62.4958C114.947 62.3242 114.988 62.1525 115.014 61.9757C115.088 61.5882 115.125 61.1946 115.124 60.8002V23.6223C115.121 21.8631 114.419 20.1767 113.171 18.9328C111.923 17.6888 110.231 16.9886 108.467 16.9856Z" fill="#096779"/>
<path opacity="0.3" d="M115.124 27.6479H19.124V28.1681H115.124V27.6479Z" fill="white"/>
<path opacity="0.3" d="M115.124 33.3691H19.124V33.8893H115.124V33.3691Z" fill="white"/>
<path opacity="0.3" d="M115.124 39.0906H19.124V39.6107H115.124V39.0906Z" fill="white"/>
<path opacity="0.3" d="M115.124 44.8118H19.124V45.3319H115.124V44.8118Z" fill="white"/>
<path opacity="0.3" d="M115.124 50.533H19.124V51.0531H115.124V50.533Z" fill="white"/>
<path opacity="0.3" d="M115.124 56.2544H19.124V56.7745H115.124V56.2544Z" fill="white"/>
<path opacity="0.3" d="M115.015 61.9756C114.989 62.1524 114.947 62.324 114.905 62.4957H19.1974C19.1659 62.3238 19.145 62.1501 19.1348 61.9756H115.015Z" fill="white"/>
<g opacity="0.1">
<path d="M115.124 52.7487V60.8001C115.125 61.1945 115.088 61.5881 115.014 61.9756C114.988 62.1524 114.947 62.3241 114.905 62.4957C114.858 62.6725 114.801 62.8494 114.743 63.021C114.707 63.1146 114.675 63.2083 114.634 63.2967C114.618 63.3435 114.597 63.3851 114.576 63.4319C114.529 63.5463 114.477 63.6556 114.42 63.7648C114.42 63.77 114.42 63.7752 114.414 63.7752C114.383 63.8376 114.352 63.9 114.321 63.9572C114.258 64.0716 114.19 64.1861 114.122 64.2953C114.039 64.4305 113.955 64.5554 113.861 64.6802C113.809 64.7582 113.751 64.8328 113.689 64.9039C113.637 64.9715 113.58 65.0391 113.527 65.1067C113.471 65.1763 113.41 65.2423 113.345 65.3043C113.306 65.352 113.264 65.3971 113.22 65.4396C113.136 65.5228 113.053 65.606 112.964 65.684C112.933 65.7162 112.9 65.7458 112.865 65.7724C112.808 65.8244 112.745 65.8765 112.682 65.9285C112.651 65.9545 112.614 65.9857 112.578 66.0117C112.552 66.0325 112.526 66.0533 112.494 66.0793H112.489C112.376 66.1689 112.257 66.2522 112.134 66.329C112.134 66.3297 112.134 66.3303 112.134 66.331C112.134 66.3316 112.133 66.3322 112.133 66.3327C112.132 66.3332 112.132 66.3335 112.131 66.3338C112.131 66.3341 112.13 66.3342 112.129 66.3342C112.124 66.3342 112.124 66.3394 112.119 66.3446C112.046 66.3966 111.968 66.4434 111.889 66.4902C111.847 66.5162 111.806 66.537 111.764 66.5578C111.755 66.5665 111.744 66.5735 111.733 66.5786C111.686 66.6046 111.644 66.6306 111.597 66.6514C111.477 66.7138 111.357 66.7763 111.232 66.8335C111.087 66.9017 110.939 66.9625 110.788 67.0155C110.786 67.0187 110.783 67.0213 110.779 67.0231C110.776 67.0249 110.772 67.0258 110.768 67.0259C110.734 67.0404 110.699 67.0525 110.663 67.0623C110.595 67.0883 110.522 67.1143 110.454 67.1351C110.402 67.1507 110.355 67.1611 110.303 67.1767C110.194 67.2131 110.079 67.2391 109.964 67.2651C109.933 67.2746 109.902 67.2815 109.87 67.2859C109.813 67.3016 109.755 67.312 109.698 67.3223C109.695 67.322 109.692 67.3223 109.69 67.3232C109.687 67.3241 109.684 67.3256 109.682 67.3276C109.664 67.3264 109.646 67.33 109.63 67.338C109.618 67.3371 109.605 67.3389 109.594 67.3432C109.505 67.3588 109.411 67.3692 109.317 67.3848C109.265 67.39 109.207 67.3952 109.15 67.4004C109.142 67.4046 109.133 67.4064 109.124 67.4056C109.067 67.4108 109.014 67.416 108.962 67.4212H108.952C108.894 67.4264 108.837 67.4264 108.78 67.4316C108.675 67.4368 108.571 67.4368 108.467 67.4368H25.7814C24.3126 67.4336 22.8858 66.9477 21.7219 66.0545C20.558 65.1613 19.7219 63.9104 19.3432 62.4957H19.1971C19.1656 62.3237 19.1447 62.15 19.1345 61.9756C19.1293 61.8767 19.124 61.7727 19.124 61.6739V52.6031C20.2191 52.6353 21.3051 52.8119 22.3536 53.1284C25.1918 53.9918 27.9518 55.4533 30.9153 55.4533C31.1501 55.4533 31.3953 55.4429 31.6353 55.4221C34.7553 55.1621 37.1814 53.2324 39.2005 51.0532C39.3623 50.8815 39.524 50.7099 39.6753 50.533C40.0562 50.1117 40.4214 49.68 40.7762 49.2535C41.9097 47.8265 43.18 46.5131 44.5693 45.3319C44.7936 45.1498 45.018 44.9782 45.2475 44.8118C46.5946 43.8102 48.181 43.1773 49.8493 42.9757C50.0632 42.9549 50.2771 42.9393 50.491 42.9341C52.7241 42.8665 54.8214 43.6675 56.731 44.8118C57.0075 44.9782 57.284 45.1498 57.5501 45.3319C58.4631 45.9489 59.3427 46.6139 60.1849 47.3239C61.4852 48.4626 62.8435 49.5337 64.2545 50.533C64.3588 50.6059 64.4632 50.6787 64.5675 50.7411C64.7292 50.8503 64.8962 50.9543 65.0631 51.0532C66.4924 51.969 68.0997 52.5734 69.7797 52.8267C69.8371 52.8371 69.8997 52.8476 69.9623 52.8527C72.6806 53.17 75.211 52.369 77.5223 51.0532C77.8092 50.8867 78.1014 50.7151 78.3832 50.533C80.1886 49.3368 81.8808 47.9789 83.4388 46.4761C83.8458 46.0964 84.258 45.7116 84.6858 45.3319C84.8788 45.1602 85.0719 44.9834 85.2701 44.8118C88.3692 42.0967 91.9432 39.6106 96.164 39.6106C96.3414 39.6106 96.524 39.6158 96.7066 39.6262C99.7432 39.7718 102.409 41.2386 104.647 43.1006C105.298 43.6384 105.919 44.2095 106.51 44.8118C106.536 44.8378 106.557 44.8585 106.583 44.8846C106.729 45.0302 106.875 45.181 107.011 45.3319C108.681 47.0742 110.22 48.9363 112.035 50.533C112.234 50.7151 112.437 50.8867 112.646 51.0531C113.272 51.5713 113.934 52.0441 114.628 52.4678C114.79 52.5667 114.957 52.6603 115.124 52.7487Z" fill="black"/>
</g>
<g opacity="0.1">
<path d="M115.124 44.8898V60.8001C115.125 61.1945 115.088 61.5881 115.014 61.9756C114.988 62.1524 114.947 62.3241 114.905 62.4957C114.858 62.6725 114.801 62.8494 114.743 63.021C114.707 63.1147 114.675 63.2083 114.634 63.2967C114.618 63.3435 114.597 63.3851 114.576 63.4319C114.529 63.5463 114.477 63.6556 114.42 63.7648C114.42 63.77 114.42 63.7752 114.414 63.7752C114.383 63.8376 114.352 63.9 114.321 63.9572C114.258 64.0717 114.19 64.1861 114.122 64.2953C114.039 64.4305 113.955 64.5554 113.861 64.6802C113.809 64.7582 113.751 64.8328 113.689 64.9039C113.637 64.9715 113.58 65.0391 113.527 65.1067C113.471 65.1763 113.41 65.2423 113.345 65.3043C113.306 65.352 113.264 65.3971 113.22 65.4396C113.136 65.5228 113.053 65.606 112.964 65.684C112.933 65.7162 112.9 65.7458 112.865 65.7724C112.808 65.8245 112.745 65.8765 112.682 65.9285C112.651 65.9545 112.614 65.9857 112.578 66.0117C112.552 66.0325 112.526 66.0533 112.494 66.0793H112.489C112.376 66.1689 112.257 66.2522 112.134 66.329C112.134 66.3297 112.134 66.3304 112.134 66.331C112.134 66.3316 112.133 66.3322 112.133 66.3327C112.132 66.3332 112.132 66.3336 112.131 66.3338C112.131 66.3341 112.13 66.3342 112.129 66.3342C112.124 66.3342 112.124 66.3394 112.119 66.3446C112.046 66.3966 111.968 66.4434 111.889 66.4902C111.847 66.5162 111.806 66.537 111.764 66.5578C111.755 66.5665 111.744 66.5735 111.733 66.5786C111.686 66.6046 111.644 66.6307 111.597 66.6514C111.477 66.7139 111.357 66.7763 111.232 66.8335C111.087 66.9017 110.939 66.9625 110.788 67.0155C110.786 67.0187 110.783 67.0213 110.779 67.0231C110.776 67.0249 110.772 67.0258 110.768 67.0259C110.734 67.0404 110.699 67.0525 110.663 67.0623C110.595 67.0883 110.522 67.1143 110.454 67.1351C110.402 67.1507 110.355 67.1611 110.303 67.1768C110.194 67.2132 110.079 67.2392 109.964 67.2652C109.933 67.2746 109.902 67.2815 109.87 67.286C109.813 67.3016 109.755 67.312 109.698 67.3224C109.695 67.322 109.692 67.3223 109.69 67.3232C109.687 67.3241 109.684 67.3256 109.682 67.3276C109.664 67.3264 109.646 67.33 109.63 67.338C109.618 67.3371 109.605 67.3389 109.594 67.3432C109.505 67.3588 109.411 67.3692 109.317 67.3848C109.265 67.39 109.207 67.3952 109.15 67.4004C109.142 67.4046 109.133 67.4064 109.124 67.4056C109.098 67.4056 109.067 67.4108 109.041 67.4108C109.015 67.4151 108.988 67.4168 108.962 67.416C108.94 67.4205 108.917 67.4222 108.894 67.4212H108.868C108.842 67.4264 108.811 67.4264 108.78 67.4316C108.675 67.4368 108.571 67.4368 108.467 67.4368H25.7814C24.3126 67.4336 22.8858 66.9477 21.7219 66.0545C20.558 65.1613 19.7219 63.9104 19.3432 62.4957C19.3014 62.324 19.2597 62.1524 19.2336 61.9756C19.16 61.5881 19.1233 61.1945 19.124 60.8001V51.5369C19.3066 51.3808 19.484 51.2196 19.6614 51.0532C19.844 50.8815 20.0214 50.7099 20.1988 50.5331C21.7529 48.9206 23.1683 47.1807 24.4301 45.3319C24.4719 45.2747 24.5136 45.2227 24.5501 45.1655C24.6336 45.0458 24.7171 44.9314 24.8058 44.8118C26.0711 42.9656 27.4863 41.226 29.0371 39.6106C29.2145 39.4338 29.3918 39.2621 29.5745 39.0905C31.5153 37.2701 33.7275 35.9126 36.3362 35.5901C39.931 35.1428 43.2753 36.802 46.2336 39.0905C46.4527 39.2621 46.6666 39.4338 46.8806 39.6106C47.8927 40.4324 48.8527 41.327 49.7605 42.2164C50.0005 42.4556 50.2458 42.6949 50.491 42.9342C51.1223 43.5635 51.7692 44.1928 52.4214 44.8118C52.6092 44.9886 52.7919 45.1603 52.9797 45.3319C55.5884 47.74 58.411 49.8569 61.7658 50.5331C61.9953 50.5799 62.2301 50.6215 62.4649 50.6527C63.7325 50.8209 65.0191 50.7805 66.2736 50.5331C66.4823 50.4967 66.6857 50.4498 66.8945 50.3978C70.0353 49.6229 72.9466 47.6724 75.5814 45.3319C75.7692 45.1603 75.9623 44.9886 76.1501 44.8118C77.4962 43.5687 78.7745 42.2372 79.9692 40.9265C80.3658 40.4896 80.7727 40.0475 81.1797 39.6106C81.3466 39.439 81.5084 39.2673 81.6701 39.0905C83.4162 37.1935 85.3262 35.4531 87.3779 33.8893C87.6231 33.7073 87.8684 33.5357 88.1136 33.3692C90.8736 31.4916 93.8892 30.2849 97.2023 30.4774C99.9362 30.6334 102.435 31.7568 104.684 33.3692C104.914 33.5357 105.143 33.7073 105.373 33.8893C107.084 35.2598 108.646 36.8061 110.032 38.5028C110.194 38.6952 110.355 38.8929 110.517 39.0905C110.601 39.1893 110.679 39.2934 110.762 39.3921L110.934 39.6106C112.317 41.3322 113.647 43.1214 115.061 44.8118L115.124 44.8898Z" fill="black"/>
</g>
<g opacity="0.1">
<path d="M115.124 38.3206V60.8001C115.125 61.1945 115.088 61.588 115.014 61.9755C114.988 62.1524 114.947 62.324 114.905 62.4956C114.858 62.6725 114.801 62.8493 114.743 63.021C114.707 63.1146 114.675 63.2082 114.634 63.2966C114.618 63.3434 114.597 63.385 114.576 63.4319C114.529 63.5463 114.477 63.6555 114.42 63.7647C114.42 63.7699 114.42 63.7751 114.414 63.7751C114.383 63.8375 114.352 63.9 114.321 63.9572C114.258 64.0716 114.19 64.186 114.122 64.2952C114.039 64.4305 113.955 64.5553 113.861 64.6801C113.809 64.7581 113.751 64.8328 113.689 64.9038C113.637 64.9714 113.58 65.039 113.527 65.1066C113.471 65.1762 113.41 65.2422 113.345 65.3043C113.306 65.3519 113.264 65.3971 113.22 65.4395C113.136 65.5227 113.053 65.6059 112.964 65.684C112.933 65.7161 112.9 65.7457 112.865 65.7724C112.808 65.8244 112.745 65.8764 112.682 65.9284C112.651 65.9544 112.614 65.9856 112.578 66.0116C112.552 66.0324 112.526 66.0532 112.494 66.0793H112.489C112.376 66.1688 112.257 66.2522 112.134 66.3289C112.134 66.3296 112.134 66.3303 112.134 66.3309C112.134 66.3316 112.133 66.3321 112.133 66.3326C112.132 66.3331 112.132 66.3335 112.131 66.3337C112.131 66.334 112.13 66.3341 112.129 66.3341C112.124 66.3341 112.124 66.3393 112.119 66.3445C112.046 66.3965 111.968 66.4433 111.889 66.4901C111.847 66.5161 111.806 66.5369 111.764 66.5578C111.755 66.5664 111.744 66.5735 111.733 66.5786C111.686 66.6045 111.644 66.6306 111.597 66.6514C111.477 66.7138 111.357 66.7762 111.232 66.8334C111.087 66.9016 110.939 66.9624 110.788 67.0155C110.786 67.0186 110.783 67.0212 110.779 67.023C110.776 67.0248 110.772 67.0258 110.768 67.0258C110.734 67.0403 110.699 67.0525 110.663 67.0622C110.595 67.0882 110.522 67.1143 110.454 67.1351C110.402 67.1507 110.355 67.1611 110.303 67.1767C110.194 67.2131 110.079 67.2391 109.964 67.2651C109.933 67.2745 109.902 67.2815 109.87 67.2859C109.813 67.3015 109.755 67.3119 109.698 67.3223C109.695 67.3219 109.692 67.3222 109.69 67.3231C109.687 67.324 109.684 67.3255 109.682 67.3275C109.664 67.3264 109.646 67.3299 109.63 67.3379C109.618 67.3371 109.605 67.3388 109.594 67.3431C109.505 67.3587 109.411 67.3691 109.317 67.3847C109.265 67.3899 109.207 67.3951 109.15 67.4003C109.142 67.4045 109.133 67.4063 109.124 67.4055C109.098 67.4055 109.067 67.4107 109.041 67.4107C109.015 67.415 108.988 67.4167 108.962 67.4159C108.959 67.4187 108.956 67.4205 108.952 67.4211H108.868C108.738 67.4315 108.602 67.4367 108.467 67.4367H25.7814C24.3126 67.4335 22.8858 66.9477 21.7219 66.0544C20.558 65.1612 19.7219 63.9104 19.3432 62.4956C19.3014 62.324 19.2597 62.1523 19.2336 61.9755C19.16 61.588 19.1233 61.1944 19.124 60.8V47.3707C19.651 46.6893 20.1797 46.0097 20.7101 45.3318C20.8458 45.155 20.9814 44.9833 21.1171 44.8117C21.8319 43.8963 22.5519 42.9913 23.2927 42.1071C24.0023 41.2593 24.7484 40.4219 25.5258 39.6105C25.6927 39.4389 25.8597 39.262 26.0319 39.0904C28.0112 37.0348 30.2844 35.2821 32.7779 33.8893C33.1171 33.702 33.4614 33.5304 33.811 33.3691C35.6621 32.4881 37.6649 31.9673 39.7119 31.8348C42.3971 31.7011 45.074 32.228 47.5067 33.3691C47.8719 33.5252 48.2319 33.702 48.5866 33.8893C51.1379 35.1999 53.5327 37.036 55.7762 39.0904C55.9693 39.2569 56.1519 39.4337 56.3397 39.6105C58.1188 41.2749 59.804 43.0589 61.411 44.8117C61.531 44.9417 61.651 45.077 61.771 45.207C61.8075 45.2486 61.8493 45.2902 61.8858 45.3318C63.451 47.0482 65.1206 48.7854 66.8945 50.3977C66.9414 50.4445 66.9936 50.4862 67.0458 50.533C67.2388 50.7098 67.4319 50.8814 67.6301 51.0531C68.3292 51.672 69.0492 52.2649 69.7797 52.8267C71.5108 54.1858 73.3969 55.3363 75.3988 56.2543C75.8214 56.4467 76.2492 56.6183 76.6823 56.7744C79.0678 57.6826 81.6421 57.9864 84.1745 57.6586C85.3376 57.498 86.4776 57.2013 87.571 56.7744C87.9884 56.6183 88.3953 56.4415 88.7971 56.2543C91.4423 55.006 93.8319 53.1179 96.0962 51.0531C96.284 50.8814 96.4719 50.7098 96.6597 50.533C97.9484 49.3263 99.2005 48.0728 100.437 46.861C100.959 46.3512 101.491 45.8363 102.039 45.3318C102.227 45.1602 102.42 44.9885 102.613 44.8117C103.27 44.224 103.948 43.6466 104.647 43.1005C106.356 41.7063 108.236 40.5336 110.241 39.6105C110.413 39.5325 110.59 39.4597 110.762 39.3921C111.028 39.2828 111.294 39.184 111.561 39.0904C112.71 38.68 113.908 38.4212 115.124 38.3206Z" fill="black"/>
</g>
<path d="M39.7332 34.9295C40.5976 34.9295 41.2984 34.2309 41.2984 33.3692C41.2984 32.5074 40.5976 31.8088 39.7332 31.8088C38.8687 31.8088 38.168 32.5074 38.168 33.3692C38.168 34.2309 38.8687 34.9295 39.7332 34.9295Z" fill="white"/>
<path d="M63.7332 52.0934C64.5976 52.0934 65.2984 51.3948 65.2984 50.533C65.2984 49.6712 64.5976 48.9727 63.7332 48.9727C62.8687 48.9727 62.168 49.6712 62.168 50.533C62.168 51.3948 62.8687 52.0934 63.7332 52.0934Z" fill="white"/>
<path d="M96.0808 40.651C96.9453 40.651 97.6461 39.9524 97.6461 39.0906C97.6461 38.2289 96.9453 37.5303 96.0808 37.5303C95.2164 37.5303 94.5156 38.2289 94.5156 39.0906C94.5156 39.9524 95.2164 40.651 96.0808 40.651Z" fill="white"/>
<path d="M167.277 52.4036H130.37C130.195 52.4033 130.021 52.4375 129.86 52.5041C129.698 52.5707 129.551 52.6684 129.427 52.7917C129.303 52.915 129.205 53.0614 129.138 53.2226C129.071 53.3838 129.036 53.5566 129.036 53.7311C129.036 53.9056 129.071 54.0784 129.138 54.2396C129.205 54.4008 129.303 54.5473 129.427 54.6706C129.551 54.7939 129.698 54.8916 129.86 54.9582C130.021 55.0248 130.195 55.059 130.37 55.0587H167.277C167.63 55.0587 167.969 54.9188 168.219 54.6699C168.469 54.4209 168.609 54.0832 168.609 53.7311C168.609 53.379 168.469 53.0414 168.219 52.7924C167.969 52.5434 167.63 52.4036 167.277 52.4036Z" fill="#E6E6E6"/>
<path d="M167.277 72.5068H130.37C130.017 72.5068 129.678 72.6467 129.428 72.8957C129.178 73.1446 129.038 73.4823 129.038 73.8344C129.038 74.1865 129.178 74.5242 129.428 74.7731C129.678 75.0221 130.017 75.162 130.37 75.162H167.277C167.63 75.162 167.969 75.0221 168.219 74.7731C168.469 74.5242 168.609 74.1865 168.609 73.8344C168.609 73.4823 168.469 73.1446 168.219 72.8957C167.969 72.6467 167.63 72.5068 167.277 72.5068Z" fill="#E6E6E6"/>
<path d="M167.277 92.6099H130.37C130.017 92.6099 129.678 92.7497 129.428 92.9987C129.178 93.2477 129.038 93.5853 129.038 93.9374C129.038 94.2895 129.178 94.6272 129.428 94.8762C129.678 95.1251 130.017 95.265 130.37 95.265H167.277C167.63 95.265 167.969 95.1251 168.219 94.8762C168.469 94.6272 168.609 94.2895 168.609 93.9374C168.609 93.5853 168.469 93.2477 168.219 92.9987C167.969 92.7497 167.63 92.6099 167.277 92.6099Z" fill="#E6E6E6"/>
<path d="M189.64 57.1458C191.477 57.1458 192.966 55.6615 192.966 53.8305C192.966 51.9995 191.477 50.5151 189.64 50.5151C187.803 50.5151 186.314 51.9995 186.314 53.8305C186.314 55.6615 187.803 57.1458 189.64 57.1458Z" fill="#F2F2F2"/>
<path d="M189.187 55.556C189.129 55.556 189.073 55.5427 189.021 55.5171C188.97 55.4914 188.925 55.4543 188.891 55.4085L187.983 54.2025C187.954 54.1637 187.933 54.1196 187.921 54.0727C187.909 54.0257 187.906 53.9769 187.913 53.9289C187.92 53.8809 187.936 53.8348 187.961 53.793C187.986 53.7513 188.018 53.7149 188.057 53.6858C188.096 53.6567 188.14 53.6356 188.187 53.6236C188.235 53.6116 188.284 53.6089 188.332 53.6158C188.38 53.6227 188.426 53.639 188.468 53.6637C188.51 53.6884 188.546 53.7211 188.575 53.76L189.169 54.5489L190.693 52.2692C190.748 52.1878 190.833 52.1313 190.929 52.1121C191.025 52.093 191.125 52.1127 191.206 52.1669C191.288 52.2212 191.345 52.3055 191.364 52.4014C191.383 52.4974 191.364 52.597 191.309 52.6783L189.495 55.3918C189.462 55.4408 189.418 55.4814 189.366 55.5099C189.314 55.5385 189.256 55.5542 189.197 55.5559L189.187 55.556Z" fill="white"/>
<path d="M189.64 77.2491C191.477 77.2491 192.966 75.7648 192.966 73.9338C192.966 72.1027 191.477 70.6184 189.64 70.6184C187.803 70.6184 186.314 72.1027 186.314 73.9338C186.314 75.7648 187.803 77.2491 189.64 77.2491Z" fill="#F2F2F2"/>
<path d="M189.187 75.659C189.129 75.659 189.073 75.6457 189.021 75.6201C188.97 75.5945 188.925 75.5573 188.891 75.5115L187.983 74.3055C187.954 74.2668 187.933 74.2227 187.921 74.1757C187.909 74.1288 187.906 74.0799 187.913 74.0319C187.92 73.9839 187.936 73.9378 187.961 73.8961C187.986 73.8544 188.018 73.8179 188.057 73.7888C188.096 73.7598 188.14 73.7386 188.187 73.7266C188.235 73.7146 188.284 73.7119 188.332 73.7188C188.38 73.7257 188.426 73.742 188.468 73.7667C188.51 73.7915 188.546 73.8242 188.575 73.863L189.169 74.6519L190.693 72.3722C190.72 72.3319 190.755 72.2973 190.795 72.2704C190.836 72.2434 190.881 72.2247 190.929 72.2152C190.976 72.2057 191.025 72.2056 191.073 72.215C191.121 72.2244 191.166 72.2431 191.206 72.2699C191.247 72.2968 191.282 72.3314 191.309 72.3716C191.336 72.4118 191.355 72.457 191.364 72.5045C191.374 72.552 191.374 72.6009 191.364 72.6484C191.355 72.6959 191.336 72.7411 191.309 72.7814L189.495 75.4948C189.462 75.5439 189.418 75.5844 189.366 75.6129C189.314 75.6415 189.256 75.6573 189.197 75.6589L189.187 75.659Z" fill="white"/>
<path d="M189.64 97.3521C191.477 97.3521 192.966 95.8678 192.966 94.0368C192.966 92.2058 191.477 90.7214 189.64 90.7214C187.803 90.7214 186.314 92.2058 186.314 94.0368C186.314 95.8678 187.803 97.3521 189.64 97.3521Z" fill="#F2F2F2"/>
<path d="M167.277 32.3005H130.37C130.017 32.3005 129.678 32.4404 129.428 32.6894C129.178 32.9383 129.038 33.276 129.038 33.6281C129.038 33.9802 129.178 34.3179 129.428 34.5668C129.678 34.8158 130.017 34.9557 130.37 34.9557H167.277C167.63 34.9557 167.969 34.8158 168.219 34.5668C168.469 34.3179 168.609 33.9802 168.609 33.6281C168.609 33.276 168.469 32.9383 168.219 32.6894C167.969 32.4404 167.63 32.3005 167.277 32.3005Z" fill="#E6E6E6"/>
<path d="M189.64 37.0428C191.477 37.0428 192.966 35.5585 192.966 33.7275C192.966 31.8964 191.477 30.4121 189.64 30.4121C187.803 30.4121 186.314 31.8964 186.314 33.7275C186.314 35.5585 187.803 37.0428 189.64 37.0428Z" fill="#096779"/>
<path d="M189.187 35.453C189.129 35.453 189.073 35.4396 189.021 35.414C188.97 35.3884 188.925 35.3512 188.891 35.3054L187.983 34.0994C187.954 34.0607 187.933 34.0166 187.921 33.9697C187.909 33.9227 187.906 33.8739 187.913 33.8259C187.92 33.7779 187.936 33.7317 187.961 33.69C187.986 33.6483 188.018 33.6119 188.057 33.5828C188.096 33.5537 188.14 33.5326 188.187 33.5205C188.235 33.5085 188.284 33.5059 188.332 33.5128C188.38 33.5197 188.426 33.5359 188.468 33.5607C188.51 33.5854 188.546 33.6181 188.575 33.6569L189.169 34.4459L190.693 32.1662C190.72 32.1259 190.755 32.0913 190.795 32.0643C190.836 32.0374 190.881 32.0186 190.929 32.0091C190.976 31.9996 191.025 31.9996 191.073 32.009C191.121 32.0184 191.166 32.037 191.206 32.0639C191.247 32.0908 191.282 32.1253 191.309 32.1655C191.336 32.2058 191.355 32.2509 191.364 32.2984C191.374 32.3459 191.374 32.3948 191.364 32.4423C191.355 32.4898 191.336 32.535 191.309 32.5753L189.495 35.2887C189.462 35.3378 189.418 35.3783 189.366 35.4069C189.314 35.4354 189.256 35.4512 189.197 35.4529L189.187 35.453Z" fill="white"/>
<path d="M178.606 37.0428C180.443 37.0428 181.932 35.5585 181.932 33.7275C181.932 31.8964 180.443 30.4121 178.606 30.4121C176.769 30.4121 175.28 31.8964 175.28 33.7275C175.28 35.5585 176.769 37.0428 178.606 37.0428Z" fill="#F2F2F2"/>
<path d="M178.606 57.1458C180.443 57.1458 181.932 55.6615 181.932 53.8305C181.932 51.9995 180.443 50.5151 178.606 50.5151C176.769 50.5151 175.28 51.9995 175.28 53.8305C175.28 55.6615 176.769 57.1458 178.606 57.1458Z" fill="#F2F2F2"/>
<path d="M178.606 77.2491C180.443 77.2491 181.932 75.7648 181.932 73.9338C181.932 72.1027 180.443 70.6184 178.606 70.6184C176.769 70.6184 175.28 72.1027 175.28 73.9338C175.28 75.7648 176.769 77.2491 178.606 77.2491Z" fill="#F2F2F2"/>
<path d="M178.606 97.3521C180.443 97.3521 181.932 95.8678 181.932 94.0368C181.932 92.2058 180.443 90.7214 178.606 90.7214C176.769 90.7214 175.28 92.2058 175.28 94.0368C175.28 95.8678 176.769 97.3521 178.606 97.3521Z" fill="#F2F2F2"/>
<path d="M189.186 95.7623C189.129 95.7623 189.072 95.749 189.021 95.7234C188.97 95.6978 188.925 95.6606 188.89 95.6148L187.983 94.4088C187.954 94.37 187.933 94.3259 187.921 94.279C187.909 94.2321 187.906 94.1833 187.913 94.1354C187.92 94.0874 187.936 94.0413 187.961 93.9996C187.986 93.9579 188.018 93.9215 188.057 93.8925C188.096 93.8634 188.14 93.8423 188.187 93.8303C188.234 93.8183 188.283 93.8156 188.331 93.8224C188.38 93.8293 188.426 93.8455 188.468 93.8702C188.509 93.8949 188.546 93.9275 188.575 93.9663L189.169 94.7552L190.693 92.4755C190.748 92.3941 190.832 92.3376 190.928 92.3184C191.025 92.2993 191.125 92.319 191.206 92.3732C191.288 92.4275 191.345 92.5118 191.364 92.6077C191.383 92.7037 191.363 92.8033 191.309 92.8846L189.494 95.5981C189.461 95.6471 189.417 95.6877 189.365 95.7162C189.314 95.7448 189.256 95.7605 189.197 95.7622L189.186 95.7623Z" fill="white"/>
<path d="M180.668 133.077C180.656 133.082 180.648 133.085 180.636 133.091C180.118 133.327 179.529 133.354 178.991 133.168C179.015 133.084 179.045 133.002 179.08 132.922C179.547 133.082 180.058 133.06 180.51 132.862C180.535 132.853 180.558 132.842 180.584 132.83C180.617 132.819 180.653 132.821 180.684 132.836C180.715 132.851 180.739 132.878 180.751 132.91C180.76 132.943 180.757 132.979 180.742 133.01C180.726 133.04 180.7 133.064 180.668 133.077Z" fill="white"/>
<path d="M166.334 89.1502C166.586 88.8484 166.768 88.4953 166.868 88.1157C166.967 87.7362 166.982 87.3394 166.912 86.9535C166.841 86.5675 166.686 86.2017 166.458 85.8818C166.231 85.5619 165.935 85.2956 165.593 85.1019L167.329 75.7229L162.751 77.6551L161.804 86.2653C161.516 86.86 161.456 87.5395 161.637 88.1751C161.817 88.8107 162.225 89.3582 162.784 89.7138C163.342 90.0694 164.012 90.2085 164.667 90.1046C165.321 90.0007 165.914 89.6612 166.334 89.1502Z" fill="#FFB6B6"/>
<path d="M169.128 61.391L167.673 56.5149L157.413 40.5564C156.842 39.8919 156.16 39.3312 155.397 38.8994C153.881 38.0354 152.113 37.7155 150.389 37.9932C148.664 38.271 147.088 39.1295 145.921 40.4256C144.755 41.7218 144.069 43.3773 143.979 45.1163C143.889 46.8552 144.399 48.5725 145.425 49.9818C145.636 50.2763 145.87 50.5542 146.123 50.8131L159.411 64.4755L160.168 65.2552L161.364 68.2709L161.836 82.0221L162.258 82.1225L165.982 82.9968L166.503 83.1201L167.374 78.628L167.92 76.4809C168.385 74.6499 168.62 72.7683 168.619 70.8795C168.619 70.2976 168.599 69.7128 168.553 69.1309L169.128 61.391Z" fill="#3F3D56"/>
<path d="M155.023 156.216H151.46L149.766 142.516L155.024 142.516L155.023 156.216Z" fill="#FFB6B6"/>
<path d="M154.929 155.055L151.127 153.516L151.015 153.47L148.916 155.055C147.764 155.055 146.656 155.498 145.824 156.293C144.992 157.087 144.5 158.171 144.45 159.318C144.444 159.381 144.444 159.447 144.444 159.513V159.659H155.932V155.055H154.929Z" fill="#2F2E41"/>
<path d="M148.238 149.131L145.168 150.932L136.737 139.982L141.269 137.324L148.238 149.131Z" fill="#FFB6B6"/>
<path d="M150.36 150.936L149.943 150.228L148.433 147.671L147.648 148.132L147.567 148.178L143.507 148.774L143.386 148.792L142.386 151.22C141.879 151.516 141.437 151.91 141.083 152.377C140.729 152.844 140.471 153.377 140.324 153.943C140.176 154.51 140.142 155.1 140.224 155.68C140.305 156.26 140.5 156.818 140.798 157.323L140.873 157.446L150.774 151.638L150.36 150.936Z" fill="#2F2E41"/>
<path d="M159.536 72.4644C161.206 77.4866 161.03 82.9382 159.134 88.7892L158.64 108.903L157.051 121.59C158.009 124.076 158.501 126.717 158.501 129.38C158.494 136.361 158.023 146.278 155.636 150.937H149.987L148.712 130.19L147.19 119.759L147.002 108.581L146.839 98.8321L140.696 107.786L134.727 116.487L140.66 126.463L145.836 142.517L140.373 147.103L134.175 135.389L131.171 131.91L122.971 114.214L123.708 111.75C125.225 106.676 127.429 101.832 130.259 97.3512L138.415 78.4801L159.536 72.4644Z" fill="#2F2E41"/>
<path d="M160.26 70.7877L159.328 68.9301L159.412 64.4754L159.691 49.4141C159.724 47.4633 159.361 45.5259 158.623 43.7188C157.886 41.9117 156.788 40.2722 155.397 38.8993C154.572 38.0796 153.649 37.3643 152.648 36.7694L150.647 35.5769L149.635 33.0142L140.301 33.2406L140.281 35.726L140.272 36.6003L136.928 41.915L136.931 41.938L137 51.61L137.138 70.8623L138.061 73.8464L136.666 77.3208L137.408 79.5338L138 79.4392L157.951 76.2601C158.858 75.9701 159.628 75.3607 160.116 74.5459C160.215 74.3866 160.3 74.2198 160.372 74.0471C160.59 73.5277 160.692 72.9677 160.673 72.4052C160.654 71.8427 160.513 71.291 160.26 70.7877Z" fill="#3F3D56"/>
<path d="M144.112 29.8265C148.796 29.8265 152.593 26.0409 152.593 21.3711C152.593 16.7014 148.796 12.9158 144.112 12.9158C139.427 12.9158 135.63 16.7014 135.63 21.3711C135.63 26.0409 139.427 29.8265 144.112 29.8265Z" fill="#FFB6B6"/>
<path d="M149.388 28.3772C150.284 27.7489 151.191 26.5527 151.795 25.6572C152.596 24.4801 153.14 23.1483 153.391 21.7482C153.643 20.3482 153.596 18.911 153.255 17.53C153.145 16.9774 152.885 16.4654 152.504 16.049C152.31 15.8458 152.056 15.7091 151.778 15.6587C151.501 15.6082 151.215 15.6465 150.961 15.768C151.089 15.411 151.142 15.0316 151.118 14.6533C151.093 14.2749 150.991 13.9056 150.817 13.5681C150.465 12.8944 149.96 12.3118 149.343 11.8663C148.162 10.9855 146.764 10.4398 145.297 10.2871C143.83 10.1344 142.349 10.3805 141.011 10.9993C140.485 11.2513 141.329 9.34936 140.777 9.53925C140.229 9.75948 139.616 9.7572 139.07 9.53288C138.545 9.27838 136.838 10.8571 137.03 10.3075C136.637 10.4921 136.297 10.7729 136.042 11.1238C135.787 11.4746 135.625 11.8842 135.571 12.3142C135.518 12.7442 135.574 13.1808 135.735 13.5832C135.897 13.9857 136.158 14.3409 136.494 14.6158C136.936 14.978 137.486 15.1826 137.969 15.4887C138.817 16.066 139.424 16.9328 139.674 17.9254C139.925 18.918 139.802 19.9678 139.33 20.8764C139.829 20.5465 140.379 20.2992 140.958 20.1441C141.249 20.0692 141.553 20.0645 141.845 20.1304C142.138 20.1963 142.411 20.3309 142.641 20.523C142.833 20.737 142.98 20.988 143.072 21.2606C143.164 21.5333 143.199 21.8218 143.176 22.1085C143.164 22.6825 143.035 23.2496 143.028 23.8237C143.006 25.5081 142.146 28.7218 143.468 29.5988C144.511 30.2908 148.165 29.2351 149.388 28.3772Z" fill="#2F2E41"/>
<path d="M96.9928 41.9371C97.1934 42.2747 97.4659 42.5642 97.791 42.7854C98.1161 43.0066 98.4858 43.1541 98.8743 43.2174C99.2627 43.2807 99.6603 43.2583 100.039 43.1519C100.418 43.0454 100.769 42.8575 101.067 42.6013L109.344 47.3834L109.057 42.4355L101.241 38.6529C100.776 38.1822 100.154 37.8979 99.4927 37.8539C98.8315 37.8099 98.1771 38.0092 97.6535 38.414C97.1298 38.8188 96.7733 39.4011 96.6516 40.0504C96.5298 40.6997 96.6512 41.3711 96.9928 41.9371Z" fill="#FFB6B6"/>
<path d="M150.449 40.456C150.128 39.4554 149.603 38.5319 148.906 37.7434C148.21 36.955 147.357 36.3186 146.402 35.8744C145.447 35.4302 144.411 35.1877 143.357 35.1622C142.304 35.1366 141.256 35.3286 140.281 35.7261C140.189 35.7633 140.097 35.8035 140.005 35.8436L121.641 44.1769L114.493 43.3312L105.239 40.1092L105.003 40.4732L102.924 43.6752L102.634 44.1224L112.56 49.9732L113.613 50.1911C114.529 50.3801 115.399 50.7476 116.173 51.2725C116.947 51.7973 117.609 52.4693 118.122 53.2498L121.969 54.5111L137 51.6101L145.425 49.9818L145.903 49.8901C147.346 49.3361 148.588 48.3594 149.464 47.0884C150.34 45.8173 150.81 44.3116 150.811 42.7694C150.812 41.9842 150.689 41.2037 150.449 40.456Z" fill="#3F3D56"/>
<path d="M85.4764 80.2471H24.7018C24.349 80.2476 24.0108 80.3877 23.7614 80.6366C23.5121 80.8855 23.3721 81.2229 23.3721 81.5746C23.3721 81.9264 23.5121 82.2638 23.7614 82.5127C24.0108 82.7616 24.349 82.9017 24.7018 82.9022H85.4764C85.6514 82.9025 85.8248 82.8683 85.9866 82.8017C86.1484 82.7351 86.2954 82.6374 86.4193 82.5141C86.5432 82.3908 86.6414 82.2443 86.7085 82.0831C86.7755 81.9219 86.8101 81.7491 86.8101 81.5746C86.8101 81.4001 86.7755 81.2273 86.7085 81.0662C86.6414 80.905 86.5432 80.7585 86.4193 80.6352C86.2954 80.5119 86.1484 80.4142 85.9866 80.3476C85.8248 80.281 85.6514 80.2468 85.4764 80.2471H85.4764Z" fill="#E6E6E6"/>
<path d="M107.84 84.9893C109.677 84.9893 111.166 83.505 111.166 81.674C111.166 79.843 109.677 78.3586 107.84 78.3586C106.004 78.3586 104.515 79.843 104.515 81.674C104.515 83.505 106.004 84.9893 107.84 84.9893Z" fill="#096779"/>
<path d="M107.387 83.3995C107.329 83.3995 107.273 83.3862 107.221 83.3606C107.17 83.335 107.125 83.2978 107.091 83.252L106.183 82.046C106.154 82.0072 106.133 81.9631 106.121 81.9162C106.109 81.8693 106.106 81.8205 106.113 81.7726C106.12 81.7246 106.136 81.6785 106.161 81.6368C106.186 81.5951 106.218 81.5587 106.257 81.5297C106.296 81.5006 106.34 81.4795 106.388 81.4675C106.435 81.4555 106.484 81.4528 106.532 81.4596C106.58 81.4665 106.626 81.4827 106.668 81.5074C106.71 81.5321 106.746 81.5647 106.775 81.6035L107.369 82.3924L108.893 80.1127C108.92 80.0724 108.955 80.0378 108.995 80.0109C109.036 79.9839 109.081 79.9651 109.129 79.9556C109.176 79.9461 109.225 79.9461 109.273 79.9555C109.321 79.9649 109.366 79.9836 109.406 80.0104C109.447 80.0373 109.482 80.0718 109.509 80.1121C109.536 80.1523 109.554 80.1975 109.564 80.245C109.573 80.2924 109.574 80.3413 109.564 80.3889C109.555 80.4364 109.536 80.4816 109.509 80.5219L107.694 83.2353C107.662 83.2844 107.617 83.3249 107.566 83.3534C107.514 83.382 107.456 83.3977 107.397 83.3994L107.387 83.3995Z" fill="white"/>
<path d="M96.8062 84.9893C98.6429 84.9893 100.132 83.505 100.132 81.674C100.132 79.843 98.6429 78.3586 96.8062 78.3586C94.9694 78.3586 93.4805 79.843 93.4805 81.674C93.4805 83.505 94.9694 84.9893 96.8062 84.9893Z" fill="#F2F2F2"/>
<path d="M85.1893 96.3003H24.4147C24.0619 96.3008 23.7236 96.4409 23.4743 96.6898C23.225 96.9387 23.085 97.2761 23.085 97.6279C23.085 97.9796 23.225 98.317 23.4743 98.5659C23.7236 98.8148 24.0619 98.9549 24.4147 98.9554H85.1893C85.5425 98.9554 85.8812 98.8156 86.1309 98.5666C86.3807 98.3176 86.521 97.98 86.521 97.6279C86.521 97.2758 86.3807 96.9381 86.1309 96.6891C85.8812 96.4402 85.5425 96.3003 85.1893 96.3003H85.1893Z" fill="#E6E6E6"/>
<path d="M107.552 101.043C109.389 101.043 110.878 99.5582 110.878 97.7272C110.878 95.8962 109.389 94.4119 107.552 94.4119C105.716 94.4119 104.227 95.8962 104.227 97.7272C104.227 99.5582 105.716 101.043 107.552 101.043Z" fill="#F2F2F2"/>
<path d="M107.098 99.4525C107.041 99.4525 106.984 99.4392 106.933 99.4136C106.882 99.3879 106.837 99.3508 106.803 99.305L105.895 98.099C105.836 98.0207 105.811 97.9224 105.825 97.8255C105.839 97.7287 105.891 97.6413 105.969 97.5827C106.048 97.524 106.146 97.4988 106.244 97.5126C106.341 97.5265 106.428 97.5782 106.487 97.6564L107.081 98.4454L108.605 96.1657C108.632 96.1254 108.667 96.0908 108.707 96.0638C108.748 96.0369 108.793 96.0181 108.841 96.0086C108.888 95.9991 108.937 95.9991 108.985 96.0085C109.033 96.0179 109.078 96.0365 109.118 96.0634C109.159 96.0903 109.193 96.1248 109.22 96.165C109.248 96.2053 109.266 96.2504 109.276 96.2979C109.285 96.3454 109.285 96.3943 109.276 96.4418C109.267 96.4893 109.248 96.5345 109.221 96.5748L107.406 99.2883C107.374 99.3373 107.329 99.3778 107.278 99.4064C107.226 99.435 107.168 99.4507 107.109 99.4524L107.098 99.4525Z" fill="white"/>
<path d="M96.5181 101.043C98.3548 101.043 99.8438 99.5582 99.8438 97.7272C99.8438 95.8962 98.3548 94.4119 96.5181 94.4119C94.6813 94.4119 93.1924 95.8962 93.1924 97.7272C93.1924 99.5582 94.6813 101.043 96.5181 101.043Z" fill="#F2F2F2"/>
</g>
<defs>
<clipPath id="clip0_1148_1634">
<rect width="216" height="160" fill="white"/>
</clipPath>
</defs>
</svg>
