<svg width="230" height="142" viewBox="0 0 230 142" fill="none" xmlns="http://www.w3.org/2000/svg">
<g clip-path="url(#clip0_1148_1499)">
<path d="M89.1394 127.229C87.904 127.677 86.5776 127.789 85.288 127.555C83.9984 127.32 82.7891 126.747 81.7765 125.89C79.1975 123.656 78.389 119.975 77.7311 116.567L75.7852 106.486L79.8592 109.381C82.789 111.464 85.7848 113.613 87.8133 116.629C89.8419 119.645 90.7274 123.762 89.0975 127.025" fill="#E6E6E6"/>
<path d="M88.7905 139.434C89.2028 136.334 89.6268 133.194 89.3376 130.06C89.0807 127.277 88.2582 124.559 86.5836 122.331C85.6948 121.15 84.6132 120.138 83.3876 119.341C83.0679 119.133 82.7738 119.656 83.092 119.863C85.2127 121.247 86.853 123.289 87.7764 125.697C88.7963 128.375 88.9601 131.293 88.7843 134.138C88.6781 135.858 88.4528 137.567 88.2258 139.273C88.2079 139.35 88.2191 139.432 88.257 139.501C88.295 139.57 88.3569 139.621 88.4303 139.645C88.5052 139.666 88.585 139.655 88.6524 139.616C88.7198 139.576 88.7694 139.511 88.7905 139.434Z" fill="#F2F2F2"/>
<path d="M84.8195 133.948C84.2897 134.779 83.5614 135.456 82.7049 135.912C81.8483 136.368 80.8923 136.589 79.929 136.553C77.4533 136.432 75.3894 134.649 73.5315 132.955L68.0361 127.947L71.6731 127.768C74.2887 127.638 76.9717 127.518 79.4629 128.35C81.9541 129.183 84.2516 131.187 84.7071 133.848" fill="#E6E6E6"/>
<path d="M89.9564 141.216C87.9717 137.591 85.6697 133.563 81.5563 132.275C80.4126 131.918 79.2133 131.79 78.0231 131.899C77.648 131.932 77.7416 132.529 78.1161 132.495C80.1112 132.324 82.1024 132.868 83.7545 134.035C85.3444 135.152 86.5822 136.705 87.6299 138.352C88.2717 139.361 88.8465 140.412 89.4215 141.462C89.6052 141.798 90.1423 141.555 89.9564 141.216V141.216Z" fill="#F2F2F2"/>
<path d="M143.152 68.602L99.8822 105.618C99.3377 106.083 98.637 106.306 97.9336 106.238C97.2302 106.17 96.5817 105.816 96.1302 105.256L77.8901 82.5395C77.44 81.9776 77.2241 81.2542 77.2899 80.5282C77.3558 79.8022 77.6979 79.1328 78.2414 78.6668L121.511 41.6508C122.055 41.1861 122.756 40.9633 123.459 41.0313C124.163 41.0992 124.811 41.4524 125.263 42.0133L143.503 64.7293C143.953 65.2913 144.169 66.0146 144.103 66.7406C144.037 67.4666 143.695 68.136 143.152 68.602Z" fill="#CCCCCC"/>
<path d="M141.418 67.4874L99.1432 103.653C98.8627 103.892 98.5017 104.007 98.1394 103.972C97.777 103.937 97.4429 103.755 97.2104 103.466L79.7947 81.7765C79.5628 81.487 79.4516 81.1143 79.4855 80.7403C79.5194 80.3663 79.6957 80.0215 79.9756 79.7815L122.25 43.6163C122.531 43.377 122.892 43.2622 123.254 43.2972C123.617 43.3322 123.951 43.5142 124.183 43.8031L141.599 65.4924C141.831 65.7819 141.942 66.1545 141.908 66.5285C141.874 66.9025 141.698 67.2474 141.418 67.4874Z" fill="white"/>
<path d="M143.367 75.0579L134.672 74.2178L140.895 69.1624L144.247 73.3374C144.378 73.4967 144.459 73.6931 144.48 73.9008C144.501 74.1084 144.46 74.3178 144.364 74.5013C144.301 74.626 144.214 74.7365 144.11 74.8266C144.007 74.9139 143.888 74.9794 143.761 75.0191C143.633 75.0588 143.499 75.072 143.367 75.0579Z" fill="#CCCCCC"/>
<path d="M125.906 58.9825L104.52 77.2778C104.389 77.3896 104.238 77.4737 104.076 77.5253C103.914 77.577 103.744 77.5951 103.575 77.5788C103.406 77.5625 103.242 77.512 103.092 77.4302C102.942 77.3484 102.809 77.2369 102.701 77.1021C102.592 76.9672 102.511 76.8117 102.461 76.6444C102.411 76.477 102.393 76.3012 102.409 76.1268C102.425 75.9525 102.474 75.783 102.553 75.6282C102.632 75.4734 102.74 75.3361 102.871 75.2244L124.257 56.9291C124.388 56.8174 124.538 56.7333 124.7 56.6816C124.862 56.63 125.033 56.6118 125.202 56.6281C125.371 56.6444 125.535 56.6949 125.685 56.7768C125.835 56.8586 125.968 56.9701 126.076 57.1049C126.184 57.2397 126.266 57.3952 126.316 57.5626C126.366 57.7299 126.383 57.9058 126.368 58.0801C126.352 58.2545 126.303 58.4239 126.224 58.5787C126.144 58.7336 126.036 58.8708 125.906 58.9825Z" fill="#CCCCCC"/>
<path d="M115.439 60.5758L101.016 72.9145C100.752 73.1402 100.412 73.2484 100.071 73.2155C99.7298 73.1825 99.4153 73.011 99.1966 72.7387C98.978 72.4664 98.8731 72.1156 98.905 71.7635C98.937 71.4114 99.1031 71.0867 99.3669 70.8611L113.79 58.5224C114.054 58.2967 114.394 58.1884 114.735 58.2214C115.076 58.2543 115.391 58.4258 115.609 58.6981C115.828 58.9704 115.933 59.3212 115.901 59.6734C115.869 60.0255 115.703 60.3501 115.439 60.5758Z" fill="#CCCCCC"/>
<path d="M93.09 85.81C95.3197 85.81 97.1273 83.9443 97.1273 81.6428C97.1273 79.3413 95.3197 77.4756 93.09 77.4756C90.8603 77.4756 89.0527 79.3413 89.0527 81.6428C89.0527 83.9443 90.8603 85.81 93.09 85.81Z" fill="url(#paint0_linear_1148_1499)"/>
<path d="M125.205 73.2898C125.919 73.2898 126.497 72.6928 126.497 71.9563C126.497 71.2198 125.919 70.6228 125.205 70.6228C124.491 70.6228 123.913 71.2198 123.913 71.9563C123.913 72.6928 124.491 73.2898 125.205 73.2898Z" fill="#E6E6E6"/>
<path d="M128.686 70.3115C129.4 70.3115 129.978 69.7145 129.978 68.978C129.978 68.2416 129.4 67.6445 128.686 67.6445C127.973 67.6445 127.395 68.2416 127.395 68.978C127.395 69.7145 127.973 70.3115 128.686 70.3115Z" fill="#E6E6E6"/>
<path d="M132.168 67.333C132.881 67.333 133.46 66.736 133.46 65.9995C133.46 65.263 132.881 64.666 132.168 64.666C131.454 64.666 130.876 65.263 130.876 65.9995C130.876 66.736 131.454 67.333 132.168 67.333Z" fill="#E6E6E6"/>
<path d="M111.577 138.894L114.543 138.894L115.954 127.085L111.576 127.085L111.577 138.894Z" fill="#FFB8B8"/>
<path d="M110.819 137.894L116.66 137.894H116.661C117.149 137.894 117.633 137.993 118.085 138.186C118.537 138.38 118.947 138.663 119.293 139.019C119.638 139.376 119.913 139.8 120.1 140.266C120.287 140.732 120.383 141.232 120.383 141.736V141.861L110.82 141.861L110.819 137.894Z" fill="#2F2E41"/>
<path d="M100.931 138.894L103.897 138.894L105.308 127.085L100.931 127.085L100.931 138.894Z" fill="#FFB8B8"/>
<path d="M100.175 137.894L106.016 137.894H106.016C106.505 137.894 106.989 137.993 107.441 138.186C107.892 138.38 108.303 138.663 108.648 139.019C108.994 139.376 109.268 139.8 109.455 140.266C109.642 140.732 109.739 141.232 109.738 141.736V141.861L100.175 141.861L100.175 137.894Z" fill="#2F2E41"/>
<path d="M103.908 135.281H103.908L101.385 135.28C101.103 135.281 100.832 135.169 100.629 134.966C100.426 134.764 100.307 134.488 100.298 134.197L100.218 131.919C99.5809 113.705 98.9216 94.8707 103.005 86.4053L103.037 86.3388L116.556 85.8337L119.27 111.532C119.386 112.628 119.343 113.736 119.144 114.819L115.556 134.334C115.508 134.598 115.369 134.836 115.165 135.004C114.96 135.172 114.705 135.258 114.444 135.247L111.611 135.153C111.463 135.146 111.317 135.109 111.183 135.043C111.049 134.977 110.93 134.883 110.832 134.767C110.735 134.652 110.661 134.517 110.616 134.371C110.571 134.225 110.556 134.071 110.57 133.918L112.796 115.869C112.872 115.09 112.803 114.303 112.594 113.551L109.826 103.564C109.803 103.481 109.753 103.409 109.685 103.36C109.617 103.311 109.535 103.287 109.452 103.293C109.369 103.299 109.29 103.334 109.229 103.393C109.168 103.452 109.129 103.53 109.118 103.615L104.986 134.312C104.949 134.58 104.82 134.825 104.622 135.003C104.424 135.181 104.171 135.28 103.908 135.281Z" fill="#2F2E41"/>
<path d="M105.525 60.1414C108.807 60.1414 111.467 57.3955 111.467 54.0082C111.467 50.6209 108.807 47.875 105.525 47.875C102.243 47.875 99.583 50.6209 99.583 54.0082C99.583 57.3955 102.243 60.1414 105.525 60.1414Z" fill="#FFB8B8"/>
<path d="M115.922 87.7307H103.627C103.47 87.7307 103.316 87.6959 103.174 87.6289C103.032 87.5618 102.905 87.4639 102.803 87.3419C102.701 87.2199 102.625 87.0766 102.582 86.9218C102.538 86.7669 102.527 86.6042 102.549 86.4445L103.157 82.1504L99.5898 72.0236C99.2216 70.9782 99.0848 69.8609 99.1894 68.7538C99.294 67.6467 99.6374 66.5777 100.194 65.6254C100.751 64.6732 101.508 63.8617 102.408 63.2505C103.309 62.6393 104.33 62.2439 105.398 62.0934C106.92 61.8744 108.469 62.1639 109.819 62.9195C111.17 63.6751 112.25 64.8571 112.903 66.2924L113.686 68.0131L116.993 86.4021C117.022 86.5643 117.016 86.7311 116.976 86.8907C116.935 87.0502 116.861 87.1987 116.759 87.3255C116.657 87.4523 116.529 87.5544 116.384 87.6244C116.24 87.6944 116.082 87.7307 115.922 87.7307H115.922Z" fill="url(#paint1_linear_1148_1499)"/>
<path d="M89.9667 98.5023C90.3368 98.4135 90.6836 98.2421 90.9825 98.0001C91.2815 97.7581 91.5255 97.4514 91.6972 97.1016C91.8689 96.7517 91.9642 96.3673 91.9764 95.9753C91.9886 95.5833 91.9174 95.1934 91.7677 94.8329L101.349 72.4905L95.8679 71.0657L88.1736 93.4755C87.6035 93.7751 87.1597 94.2801 86.9263 94.8948C86.6929 95.5096 86.686 96.1914 86.907 96.811C87.1281 97.4306 87.5616 97.945 88.1255 98.2567C88.6894 98.5684 89.3445 98.6558 89.9667 98.5023H89.9667Z" fill="#FFB8B8"/>
<path d="M100.052 76.4865L94.7211 73.9111C94.5694 73.8378 94.4348 73.7317 94.3265 73.5998C94.2182 73.468 94.1386 73.3137 94.0933 73.1473C94.048 72.9809 94.0379 72.8064 94.0638 72.6356C94.0898 72.4648 94.151 72.3018 94.2435 72.1577L97.483 67.1078C97.8509 66.3095 98.5104 65.6943 99.317 65.397C100.124 65.0997 101.011 65.1445 101.786 65.5216C102.561 65.8987 103.159 66.5774 103.45 67.409C103.74 68.2405 103.7 69.1571 103.337 69.9579L101.662 75.742C101.614 75.9076 101.532 76.0605 101.422 76.1905C101.311 76.3204 101.175 76.4242 101.022 76.4949C100.869 76.5655 100.703 76.6014 100.536 76.5999C100.368 76.5985 100.203 76.5598 100.052 76.4865H100.052Z" fill="url(#paint2_linear_1148_1499)"/>
<path d="M129.933 41.0089C130.049 41.3824 130.084 41.7776 130.035 42.1666C129.987 42.5556 129.857 42.929 129.654 43.2604C129.451 43.5917 129.179 43.8731 128.859 44.0847C128.54 44.2962 128.179 44.4328 127.802 44.4847L114.116 64.4205L110.124 60.2911L124.832 41.9934C124.789 41.3346 124.982 40.6825 125.374 40.1607C125.766 39.639 126.33 39.2838 126.959 39.1624C127.588 39.0411 128.238 39.162 128.786 39.5023C129.334 39.8426 129.742 40.3787 129.933 41.0089Z" fill="#FFB8B8"/>
<path d="M117.281 62.0803C117.3 62.252 117.284 62.426 117.232 62.5904C117.181 62.7549 117.095 62.9059 116.982 63.0332L113.027 67.4804C112.546 68.2127 111.804 68.7186 110.963 68.887C110.122 69.0554 109.25 68.8726 108.54 68.3788C107.829 67.885 107.337 67.1204 107.171 66.2527C107.006 65.3849 107.18 64.4849 107.657 63.7499L110.2 58.2918C110.273 58.136 110.377 57.9982 110.506 57.8878C110.635 57.7774 110.785 57.6969 110.947 57.6519C111.108 57.6069 111.278 57.5983 111.443 57.6269C111.608 57.6554 111.765 57.7204 111.904 57.8173L116.777 61.2242C116.915 61.3211 117.032 61.4477 117.119 61.5955C117.206 61.7432 117.261 61.9086 117.281 62.0803Z" fill="url(#paint3_linear_1148_1499)"/>
<path d="M113.332 51.4409C113.328 50.8858 113.254 50.3337 113.11 49.7988C112.153 46.1474 108.618 43.9558 105.072 44.5058C104.382 44.3017 103.668 44.1985 102.95 44.1992C101.125 44.1992 99.3599 44.8729 97.9736 46.0987C96.5874 47.3245 95.6714 49.0215 95.3912 50.8833L92.5264 69.9197H108.01L110.51 53.3074C110.603 52.69 110.624 52.0635 110.575 51.4409H113.332Z" fill="#2F2E41"/>
<path d="M132.576 142H81.529C81.4649 142 81.4033 141.974 81.358 141.927C81.3126 141.88 81.2871 141.816 81.2871 141.75C81.2871 141.684 81.3126 141.62 81.358 141.574C81.4033 141.527 81.4649 141.5 81.529 141.5H132.576C132.64 141.5 132.701 141.527 132.747 141.574C132.792 141.62 132.818 141.684 132.818 141.75C132.818 141.816 132.792 141.88 132.747 141.927C132.701 141.974 132.64 142 132.576 142Z" fill="#CCCCCC"/>
<path d="M184.003 19.3946C184.357 19.3594 184.714 19.4048 185.049 19.5276C185.384 19.6503 185.689 19.8474 185.943 20.105C186.196 20.3626 186.392 20.6744 186.516 21.0184C186.64 21.3625 186.689 21.7304 186.661 22.0963L194.573 25.6909L190.799 28.2058L183.864 24.4067C183.271 24.3163 182.732 24.0048 182.347 23.5311C181.962 23.0575 181.759 22.4546 181.776 21.8368C181.794 21.219 182.03 20.6292 182.44 20.1791C182.85 19.7289 183.406 19.4498 184.003 19.3946V19.3946Z" fill="#A0616A"/>
<path d="M215.92 14.9105C219.202 14.9105 221.862 12.1645 221.862 8.77725C221.862 5.38997 219.202 2.64404 215.92 2.64404C212.639 2.64404 209.979 5.38997 209.979 8.77725C209.979 12.1645 212.639 14.9105 215.92 14.9105Z" fill="#A0616A"/>
<path d="M205.166 96.2303L202.2 96.2301L200.789 84.4216L205.166 84.4219L205.166 96.2303Z" fill="#A0616A"/>
<path d="M205.923 99.1978L196.359 99.1975V99.0726C196.359 98.568 196.456 98.0684 196.643 97.6023C196.83 97.1361 197.104 96.7126 197.45 96.3558C197.795 95.999 198.206 95.716 198.657 95.5229C199.109 95.3298 199.593 95.2305 200.082 95.2305H200.082L205.923 95.2307L205.923 99.1978Z" fill="#2F2E41"/>
<path d="M217.505 96.2303L214.539 96.2301L213.128 84.4216L217.505 84.4219L217.505 96.2303Z" fill="#A0616A"/>
<path d="M218.261 99.1978L208.697 99.1975V99.0726C208.697 98.568 208.794 98.0684 208.981 97.6023C209.168 97.1361 209.442 96.7126 209.788 96.3558C210.133 95.999 210.544 95.716 210.995 95.5229C211.447 95.3298 211.931 95.2305 212.42 95.2305H212.42L218.261 95.2307L218.261 99.1978Z" fill="#2F2E41"/>
<path d="M217.364 93.7152C217.319 93.7152 217.275 93.7123 217.231 93.7067L212.889 93.1551C212.635 93.1231 212.4 92.9995 212.225 92.806C212.051 92.6125 211.948 92.3615 211.935 92.0974L210.67 62.6903C210.666 62.6069 210.635 62.5273 210.581 62.4643C210.528 62.4013 210.456 62.3584 210.377 62.3425C210.297 62.3266 210.215 62.3386 210.143 62.3766C210.071 62.4146 210.013 62.4763 209.979 62.5521L206.729 73.7352L206.059 91.6987C206.054 91.8536 206.017 92.0056 205.951 92.1451C205.886 92.2847 205.793 92.4087 205.679 92.5095C205.565 92.6102 205.432 92.6854 205.288 92.7305C205.145 92.7756 204.993 92.7894 204.844 92.7712L201.085 92.3145C200.816 92.2827 200.568 92.1483 200.39 91.9378C200.212 91.7273 200.117 91.4558 200.123 91.1766L200.443 74.2676L202.99 47.7251L203.104 47.7295L218.592 48.3457L218.453 92.5952C218.452 92.8926 218.336 93.1774 218.132 93.3873C217.928 93.5973 217.652 93.7152 217.364 93.7152H217.364Z" fill="#2F2E41"/>
<path d="M218.005 50.7711C217.996 50.7711 217.986 50.7711 217.977 50.7709L202.378 50.349C202.225 50.3449 202.074 50.3076 201.936 50.2394C201.798 50.1713 201.676 50.074 201.577 49.9537C201.478 49.8334 201.404 49.693 201.361 49.5415C201.318 49.3899 201.307 49.2308 201.327 49.0744L204.325 26.3027C204.512 24.7651 205.011 23.2855 205.79 21.9606C206.569 20.6357 207.609 19.4952 208.844 18.6135C209.93 17.8418 211.164 17.3189 212.462 17.08C213.76 16.8411 215.092 16.8917 216.37 17.2284C221.815 18.6525 225.081 24.6873 223.651 30.6809L219.062 49.9162C219.003 50.1596 218.867 50.3758 218.676 50.5306C218.484 50.6854 218.248 50.77 218.005 50.7711Z" fill="#3F3D56"/>
<path d="M197.541 32.6884C196.513 32.6897 195.507 32.3812 194.646 31.8008L185.549 25.6404C185.416 25.5502 185.304 25.431 185.22 25.2912C185.136 25.1513 185.083 24.9942 185.065 24.8309C185.047 24.6676 185.063 24.5022 185.113 24.3462C185.164 24.1902 185.246 24.0476 185.356 23.9282L186.726 22.4348C186.876 22.2711 187.069 22.1577 187.282 22.1093C187.495 22.0608 187.717 22.0797 187.919 22.1634L198.081 26.34L207.494 19.4014C207.934 19.077 208.435 18.8504 208.964 18.736C209.493 18.6216 210.04 18.6218 210.569 18.7367C211.099 18.8516 211.599 19.0787 212.039 19.4035C212.479 19.7283 212.848 20.1438 213.125 20.6237C213.401 21.1036 213.578 21.6375 213.644 22.1916C213.71 22.7457 213.664 23.3079 213.509 23.8427C213.353 24.3774 213.092 24.8731 212.742 25.2983C212.391 25.7235 211.959 26.069 211.473 26.3129L199.839 32.1456C199.122 32.5037 198.337 32.6893 197.541 32.6884Z" fill="#3F3D56"/>
<path d="M217.979 14.6426C218.993 14.8897 220.216 15.0793 220.94 14.3068C221.069 14.161 221.183 14.0029 221.283 13.8348L222.23 12.3422C222.956 11.1988 223.694 10.0255 224.001 8.6959C224.177 7.9319 224.205 7.13932 224.082 6.3642C223.959 5.58907 223.689 4.84687 223.286 4.18069C222.883 3.5145 222.355 2.93764 221.734 2.48358C221.113 2.02953 220.411 1.70734 219.669 1.53573C218.255 1.2089 216.871 0.646562 215.425 0.749139C213.979 0.851716 212.284 0.81804 211.07 0C211.146 0.364696 211.555 1.97608 211.555 1.97608C211.555 1.97608 209.73 3.70376 209.364 4.13456C209.843 3.91539 210.364 3.81249 210.888 3.83375C211.412 3.85502 211.923 3.99988 212.384 4.25722C212.845 4.51456 213.242 4.87752 213.546 5.31821C213.85 5.75889 214.051 6.26557 214.136 6.7993C214.239 7.45501 214.179 8.18221 214.556 8.72039C214.915 9.23225 215.559 9.41159 216.1 9.70713C216.88 10.1658 217.476 10.8971 217.779 11.7691C218.083 12.6412 218.075 13.5965 217.756 14.4629L217.979 14.6426Z" fill="#2F2E41"/>
<path d="M210.845 52.9677H161.591C160.972 52.967 160.378 52.7128 159.941 52.2609C159.503 51.809 159.257 51.1963 159.256 50.5573V24.6995C159.257 24.0605 159.503 23.4478 159.941 22.9959C160.378 22.544 160.972 22.2898 161.591 22.2891H210.845C211.464 22.2898 212.058 22.544 212.496 22.9959C212.933 23.4478 213.18 24.0605 213.18 24.6995V50.5573C213.18 51.1964 212.933 51.809 212.496 52.2609C212.058 52.7128 211.464 52.967 210.845 52.9677Z" fill="#CCCCCC"/>
<path d="M210.279 51.2148H162.157C161.838 51.2144 161.532 51.0835 161.307 50.8507C161.081 50.6179 160.954 50.3022 160.954 49.973V25.284C160.954 24.9548 161.081 24.6391 161.307 24.4063C161.532 24.1735 161.838 24.0426 162.157 24.0422H210.279C210.598 24.0426 210.903 24.1735 211.129 24.4063C211.355 24.6391 211.481 24.9548 211.482 25.284V49.973C211.481 50.3022 211.355 50.6179 211.129 50.8507C210.903 51.0835 210.598 51.2144 210.279 51.2148Z" fill="white"/>
<path d="M207.492 57.4482L202.08 51.8621L209.019 52.0431V56.7956C209.02 56.9785 208.969 57.1578 208.87 57.31C208.772 57.4621 208.631 57.58 208.467 57.6483C208.356 57.6959 208.238 57.7206 208.119 57.7209C208.002 57.7205 207.886 57.6962 207.779 57.6494C207.671 57.6026 207.574 57.5342 207.492 57.4482Z" fill="#CCCCCC"/>
<path d="M204.419 36.5213H180.076C179.775 36.5213 179.487 36.3981 179.275 36.179C179.063 35.9598 178.943 35.6625 178.943 35.3525C178.943 35.0426 179.063 34.7453 179.275 34.5261C179.487 34.307 179.775 34.1838 180.076 34.1838H204.419C204.72 34.1838 205.008 34.307 205.22 34.5261C205.432 34.7453 205.552 35.0426 205.552 35.3525C205.552 35.6625 205.432 35.9598 205.22 36.179C205.008 36.3981 204.72 36.5213 204.419 36.5213Z" fill="#CCCCCC"/>
<path d="M196.494 31.5542H180.076C179.927 31.5544 179.78 31.5244 179.643 31.4657C179.505 31.4071 179.38 31.3211 179.275 31.2125C179.169 31.104 179.086 30.9751 179.029 30.8332C178.972 30.6912 178.942 30.5391 178.942 30.3855C178.942 30.2319 178.972 30.0798 179.029 29.9379C179.086 29.796 179.169 29.667 179.275 29.5585C179.38 29.45 179.505 29.3639 179.643 29.3053C179.78 29.2466 179.927 29.2166 180.076 29.2168H196.494C196.795 29.2168 197.083 29.3399 197.295 29.5591C197.507 29.7783 197.627 30.0755 197.627 30.3855C197.627 30.6955 197.507 30.9927 197.295 31.2119C197.083 31.4311 196.795 31.5542 196.494 31.5542Z" fill="#CCCCCC"/>
<path d="M169.998 36.5212C171.952 36.5212 173.537 34.8861 173.537 32.869C173.537 30.852 171.952 29.2168 169.998 29.2168C168.044 29.2168 166.46 30.852 166.46 32.869C166.46 34.8861 168.044 36.5212 169.998 36.5212Z" fill="url(#paint4_linear_1148_1499)"/>
<path d="M196.917 46.0401C197.543 46.0401 198.05 45.5168 198.05 44.8713C198.05 44.2259 197.543 43.7026 196.917 43.7026C196.292 43.7026 195.785 44.2259 195.785 44.8713C195.785 45.5168 196.292 46.0401 196.917 46.0401Z" fill="#E6E6E6"/>
<path d="M200.88 46.0401C201.506 46.0401 202.013 45.5168 202.013 44.8713C202.013 44.2259 201.506 43.7026 200.88 43.7026C200.255 43.7026 199.748 44.2259 199.748 44.8713C199.748 45.5168 200.255 46.0401 200.88 46.0401Z" fill="#E6E6E6"/>
<path d="M204.843 46.0401C205.469 46.0401 205.975 45.5168 205.975 44.8713C205.975 44.2259 205.469 43.7026 204.843 43.7026C204.218 43.7026 203.711 44.2259 203.711 44.8713C203.711 45.5168 204.218 46.0401 204.843 46.0401Z" fill="#E6E6E6"/>
<path d="M210.082 49.8927C210.121 49.5279 210.237 49.1763 210.422 48.8627C210.607 48.5492 210.857 48.2813 211.153 48.078C211.449 47.8747 211.785 47.7409 212.136 47.686C212.488 47.6311 212.847 47.6564 213.188 47.7602L218.216 40.5012L219.829 44.8293L214.807 51.0591C214.6 51.639 214.194 52.1205 213.666 52.4122C213.138 52.704 212.525 52.7857 211.942 52.6419C211.36 52.4982 210.849 52.1389 210.506 51.6322C210.163 51.1255 210.012 50.5066 210.082 49.8927H210.082Z" fill="#A0616A"/>
<path d="M215.842 49.5012C215.763 49.508 215.683 49.5059 215.604 49.495C215.447 49.4732 215.295 49.4158 215.161 49.3269C215.027 49.238 214.914 49.1198 214.829 48.9806L213.766 47.2405C213.65 47.0506 213.591 46.8286 213.598 46.6037C213.606 46.3789 213.678 46.1614 213.807 45.9799L220.243 36.852L216.06 25.7209C215.686 24.7415 215.7 23.6498 216.099 22.681C216.498 21.7123 217.25 20.944 218.192 20.542C218.725 20.3114 219.3 20.2056 219.877 20.232C220.454 20.2584 221.018 20.4165 221.528 20.6948C222.039 20.9731 222.484 21.3648 222.83 21.8416C223.177 22.3184 223.416 22.8686 223.532 23.4525L226.127 36.5308C226.308 37.4532 226.255 38.408 225.973 39.3028C225.691 40.1977 225.19 41.0022 224.519 41.6386L216.484 49.2112C216.307 49.3786 216.081 49.4805 215.842 49.5012Z" fill="#3F3D56"/>
<path d="M229.347 99.7985H178.301C178.236 99.7985 178.175 99.7722 178.129 99.7254C178.084 99.6785 178.059 99.615 178.059 99.5488C178.059 99.4826 178.084 99.419 178.129 99.3722C178.175 99.3254 178.236 99.2991 178.301 99.2991H229.347C229.411 99.2991 229.473 99.3254 229.518 99.3722C229.564 99.419 229.589 99.4826 229.589 99.5488C229.589 99.615 229.564 99.6785 229.518 99.7254C229.473 99.7722 229.411 99.7985 229.347 99.7985Z" fill="#CCCCCC"/>
<path d="M62.0823 37.6509H12.8285C12.2093 37.6501 11.6157 37.3959 11.1779 36.944C10.7401 36.4922 10.4939 35.8794 10.4932 35.2404V9.38265C10.4939 8.74357 10.7401 8.13087 11.1779 7.67897C11.6157 7.22708 12.2093 6.97289 12.8285 6.97217H62.0823C62.7014 6.97289 63.295 7.22708 63.7328 7.67898C64.1706 8.13087 64.4169 8.74357 64.4176 9.38265V35.2404C64.4169 35.8795 64.1706 36.4922 63.7328 36.944C63.295 37.3959 62.7014 37.6501 62.0823 37.6509Z" fill="#CCCCCC"/>
<path d="M61.517 35.8976H13.3954C13.0765 35.8973 12.7707 35.7663 12.5451 35.5335C12.3196 35.3007 12.1927 34.9851 12.1924 34.6559V9.96685C12.1927 9.63763 12.3196 9.322 12.5451 9.0892C12.7707 8.85641 13.0765 8.72547 13.3954 8.7251H61.517C61.8359 8.72547 62.1417 8.85641 62.3672 9.0892C62.5928 9.322 62.7196 9.63763 62.72 9.96685V34.6559C62.7196 34.9851 62.5928 35.3007 62.3672 35.5335C62.1417 35.7663 61.8359 35.8973 61.517 35.8976Z" fill="white"/>
<path d="M58.7294 42.131L53.3174 36.5449L60.2558 36.726V41.4784C60.2577 41.6614 60.206 41.8407 60.1075 41.9928C60.009 42.145 59.8683 42.2629 59.7039 42.3311C59.5937 42.3787 59.4754 42.4034 59.356 42.4037C59.2393 42.4034 59.1238 42.379 59.0162 42.3322C58.9086 42.2854 58.8112 42.217 58.7294 42.131Z" fill="#CCCCCC"/>
<path d="M55.6577 21.2044H31.3139C31.0136 21.2044 30.7256 21.0812 30.5133 20.8621C30.3009 20.6429 30.1816 20.3456 30.1816 20.0357C30.1816 19.7257 30.3009 19.4284 30.5133 19.2093C30.7256 18.9901 31.0136 18.8669 31.3139 18.8669H55.6577C55.958 18.8669 56.246 18.9901 56.4584 19.2093C56.6707 19.4284 56.79 19.7257 56.79 20.0357C56.79 20.3456 56.6707 20.6429 56.4584 20.8621C56.246 21.0812 55.958 21.2044 55.6577 21.2044Z" fill="#CCCCCC"/>
<path d="M47.7318 16.2373H31.3139C31.0136 16.2373 30.7256 16.1142 30.5133 15.895C30.3009 15.6758 30.1816 15.3786 30.1816 15.0686C30.1816 14.7587 30.3009 14.4614 30.5133 14.2422C30.7256 14.023 31.0136 13.8999 31.3139 13.8999H47.7318C48.0321 13.8999 48.3201 14.023 48.5325 14.2422C48.7448 14.4614 48.8641 14.7587 48.8641 15.0686C48.8641 15.3786 48.7448 15.6758 48.5325 15.895C48.3201 16.1142 48.0321 16.2373 47.7318 16.2373Z" fill="#CCCCCC"/>
<path d="M21.2366 21.2043C23.1908 21.2043 24.7749 19.5692 24.7749 17.5521C24.7749 15.5351 23.1908 13.8999 21.2366 13.8999C19.2824 13.8999 17.6982 15.5351 17.6982 17.5521C17.6982 19.5692 19.2824 21.2043 21.2366 21.2043Z" fill="url(#paint5_linear_1148_1499)"/>
<path d="M48.1557 30.7232C48.781 30.7232 49.288 30.1999 49.288 29.5545C49.288 28.909 48.781 28.3857 48.1557 28.3857C47.5304 28.3857 47.0234 28.909 47.0234 29.5545C47.0234 30.1999 47.5304 30.7232 48.1557 30.7232Z" fill="#E6E6E6"/>
<path d="M52.1186 30.7232C52.7439 30.7232 53.2509 30.1999 53.2509 29.5545C53.2509 28.909 52.7439 28.3857 52.1186 28.3857C51.4933 28.3857 50.9863 28.909 50.9863 29.5545C50.9863 30.1999 51.4933 30.7232 52.1186 30.7232Z" fill="#E6E6E6"/>
<path d="M56.0815 30.7232C56.7068 30.7232 57.2138 30.1999 57.2138 29.5545C57.2138 28.909 56.7068 28.3857 56.0815 28.3857C55.4562 28.3857 54.9492 28.909 54.9492 29.5545C54.9492 30.1999 55.4562 30.7232 56.0815 30.7232Z" fill="#E6E6E6"/>
<path d="M60.0405 4.48758C59.7059 4.61192 59.4017 4.81048 59.1495 5.06928C58.8972 5.32808 58.703 5.64081 58.5805 5.98546C58.4581 6.3301 58.4103 6.69828 58.4406 7.06405C58.4709 7.42981 58.5785 7.78428 58.7559 8.10247L53.0898 14.8423L57.5434 15.4513L62.2412 8.95767C62.7393 8.61468 63.0982 8.09501 63.2499 7.49713C63.4017 6.89924 63.3356 6.26468 63.0644 5.71369C62.7931 5.1627 62.3355 4.73355 61.7781 4.50757C61.2208 4.28159 60.6025 4.27448 60.0405 4.48758Z" fill="#FFB8B8"/>
<path d="M22.2088 7.18607C22.3297 7.53132 22.3757 7.89973 22.3437 8.26534C22.3117 8.63095 22.2024 8.98487 22.0236 9.30217C21.8447 9.61947 21.6006 9.89243 21.3085 10.1018C21.0164 10.3112 20.6833 10.452 20.3328 10.5141L18.9228 19.3181L15.626 16.1681L17.4703 8.29063C17.4082 7.67591 17.5667 7.05901 17.9157 6.55683C18.2648 6.05465 18.7802 5.70208 19.3643 5.56593C19.9483 5.42978 20.5605 5.5195 21.0848 5.8181C21.6091 6.1167 22.009 6.60343 22.2088 7.18606V7.18607Z" fill="#FFB8B8"/>
<path d="M31.063 96.2303L34.029 96.2301L35.4399 84.4216L31.0625 84.4219L31.063 96.2303Z" fill="#FFB8B8"/>
<path d="M30.3066 95.2307L36.1477 95.2305H36.1479C36.6368 95.2305 37.1208 95.3298 37.5724 95.5229C38.0241 95.716 38.4344 95.999 38.7801 96.3558C39.1257 96.7125 39.3999 97.1361 39.587 97.6023C39.774 98.0684 39.8703 98.568 39.8703 99.0726V99.1975L30.3068 99.1978L30.3066 95.2307Z" fill="#2F2E41"/>
<path d="M15.8218 96.2303L18.7878 96.2301L20.1987 84.4216L15.8213 84.4219L15.8218 96.2303Z" fill="#FFB8B8"/>
<path d="M15.0654 95.2307L20.9065 95.2305H20.9067C21.3955 95.2305 21.8796 95.3298 22.3312 95.5229C22.7828 95.716 23.1932 95.999 23.5389 96.3558C23.8845 96.7125 24.1587 97.1361 24.3458 97.6023C24.5328 98.0684 24.6291 98.568 24.6291 99.0726V99.1975L15.0656 99.1978L15.0654 95.2307Z" fill="#2F2E41"/>
<path d="M30.4439 15.6092C33.7256 15.6092 36.3859 12.8633 36.3859 9.47598C36.3859 6.0887 33.7256 3.34277 30.4439 3.34277C27.1623 3.34277 24.502 6.0887 24.502 9.47598C24.502 12.8633 27.1623 15.6092 30.4439 15.6092Z" fill="#FFB8B8"/>
<path d="M29.7315 92.3076L29.2402 59.9931C29.2389 59.9018 29.2054 59.8141 29.1458 59.7465C29.0863 59.6789 29.0048 59.6361 28.9169 59.6261C28.8289 59.6162 28.7404 59.6398 28.6681 59.6924C28.5958 59.7451 28.5446 59.8233 28.5242 59.9122L20.4702 91.5199C20.4096 91.7728 20.2667 91.9966 20.0655 92.1538C19.8642 92.3111 19.6167 92.3922 19.3644 92.3837L14.9396 92.1883C14.7891 92.1816 14.6417 92.1428 14.5065 92.0743C14.3714 92.0059 14.2514 91.9092 14.1543 91.7904C14.0572 91.6717 13.985 91.5334 13.9422 91.3844C13.8995 91.2354 13.8872 91.0788 13.906 90.9246L20.7402 50.3068L20.7542 50.1921L39.7895 51.1217L39.9137 51.1276L35.8318 92.3751C35.8104 92.6575 35.6868 92.9212 35.4857 93.114C35.2846 93.3067 35.0206 93.4143 34.7462 93.4154H30.82C30.5343 93.4142 30.2604 93.2976 30.0569 93.0906C29.8534 92.8835 29.7366 92.6024 29.7315 92.3076Z" fill="#2F2E41"/>
<path d="M44.7658 53.859L17.1432 51.5191C16.9764 51.505 16.8151 51.4515 16.6717 51.3626C16.5283 51.2737 16.4066 51.1519 16.3162 51.0066C16.2258 50.8613 16.1691 50.6965 16.1504 50.5249C16.1317 50.3533 16.1516 50.1796 16.2085 50.0172L20.5585 37.6035L20.8088 22.8697C20.8179 22.3348 20.9298 21.8072 21.1379 21.3173C21.3461 20.8274 21.6465 20.3851 22.0216 20.016C22.3967 19.6468 22.839 19.3582 23.323 19.1669C23.807 18.9757 24.323 18.8855 24.841 18.9016L26.678 17.1829H33.4083L33.9943 17.9759L38.6773 18.7187C39.5115 18.8546 40.2811 19.2638 40.8727 19.8858C41.4643 20.5078 41.8465 21.3096 41.9627 22.173L45.9338 52.5892C45.9545 52.7479 45.9421 52.9093 45.8974 53.0626C45.8527 53.2159 45.7769 53.3576 45.6748 53.4782C45.5728 53.5988 45.447 53.6955 45.3058 53.7619C45.1647 53.8282 45.0114 53.8626 44.8563 53.8629C44.8263 53.8629 44.7961 53.8617 44.7658 53.859Z" fill="#2F2E41"/>
<path d="M39.3848 20.147L51.1626 16.5852L56.493 9.34157C56.6397 9.14206 56.8468 8.99889 57.0814 8.93482C57.3161 8.87076 57.5647 8.88947 57.7878 8.98798L61.1159 10.4563C61.2577 10.5188 61.3851 10.6119 61.4895 10.7291C61.5939 10.8464 61.673 10.9852 61.7215 11.1364C61.77 11.2876 61.7868 11.4478 61.7707 11.6062C61.7547 11.7646 61.7062 11.9176 61.6285 12.0553L57.6451 19.1111C56.9964 20.2653 56.0091 21.1768 54.8257 21.7138L40.9727 28.0347L39.3848 20.147Z" fill="#2F2E41"/>
<path d="M16.7876 25.4751C16.0838 24.9517 15.5225 24.2499 15.1579 23.4375C14.7933 22.625 14.6377 21.7292 14.7062 20.8366L15.223 13.7678C15.2444 13.4855 15.3679 13.2218 15.5691 13.0293C15.7703 12.8367 16.0343 12.7294 16.3087 12.7288H16.3183L20.221 12.7646C20.3809 12.7661 20.5385 12.8039 20.6826 12.8754C20.8268 12.9469 20.9539 13.0502 21.0549 13.1781C21.156 13.306 21.2285 13.4553 21.2674 13.6154C21.3062 13.7755 21.3104 13.9424 21.2797 14.1044L20.5556 17.9179L25.7232 20.1716L21.3716 28.9099L16.7876 25.4751Z" fill="#2F2E41"/>
<path d="M33.901 2.12151C33.901 2.12151 27.6871 -1.33207 24.3002 2.74389C20.9132 6.81986 25.5906 13.1938 25.5906 13.1938L32.2552 14.0614C32.2552 14.0614 32.4971 9.38514 34.0839 9.47592C35.6707 9.56671 40.5988 3.66598 33.901 2.12151Z" fill="#2F2E41"/>
<path d="M51.2885 99.5487H0.241927C0.177764 99.5487 0.116229 99.5224 0.0708586 99.4756C0.0254885 99.4288 0 99.3653 0 99.299C0 99.2328 0.0254885 99.1693 0.0708586 99.1225C0.116229 99.0756 0.177764 99.0493 0.241927 99.0493H51.2885C51.3527 99.0493 51.4142 99.0756 51.4596 99.1225C51.505 99.1693 51.5305 99.2328 51.5305 99.299C51.5305 99.3653 51.505 99.4288 51.4596 99.4756C51.4142 99.5224 51.3527 99.5487 51.2885 99.5487Z" fill="#CCCCCC"/>
</g>
<defs>
<linearGradient id="paint0_linear_1148_1499" x1="93.09" y1="77.4756" x2="93.09" y2="85.81" gradientUnits="userSpaceOnUse">
<stop stop-color="#0B8CA5"/>
<stop offset="0.732292" stop-color="#055E70"/>
<stop offset="1" stop-color="#0B8CA5"/>
</linearGradient>
<linearGradient id="paint1_linear_1148_1499" x1="108.083" y1="62.0222" x2="108.083" y2="87.7307" gradientUnits="userSpaceOnUse">
<stop stop-color="#0B8CA5"/>
<stop offset="0.732292" stop-color="#055E70"/>
<stop offset="1" stop-color="#0B8CA5"/>
</linearGradient>
<linearGradient id="paint2_linear_1148_1499" x1="98.8458" y1="65.2024" x2="98.8458" y2="76.6" gradientUnits="userSpaceOnUse">
<stop stop-color="#0B8CA5"/>
<stop offset="0.732292" stop-color="#055E70"/>
<stop offset="1" stop-color="#0B8CA5"/>
</linearGradient>
<linearGradient id="paint3_linear_1148_1499" x1="112.199" y1="57.6104" x2="112.199" y2="68.9481" gradientUnits="userSpaceOnUse">
<stop stop-color="#0B8CA5"/>
<stop offset="0.732292" stop-color="#055E70"/>
<stop offset="1" stop-color="#0B8CA5"/>
</linearGradient>
<linearGradient id="paint4_linear_1148_1499" x1="169.998" y1="29.2168" x2="169.998" y2="36.5212" gradientUnits="userSpaceOnUse">
<stop stop-color="#0B8CA5"/>
<stop offset="0.732292" stop-color="#055E70"/>
<stop offset="1" stop-color="#0B8CA5"/>
</linearGradient>
<linearGradient id="paint5_linear_1148_1499" x1="21.2366" y1="13.8999" x2="21.2366" y2="21.2043" gradientUnits="userSpaceOnUse">
<stop stop-color="#0B8CA5"/>
<stop offset="0.732292" stop-color="#055E70"/>
<stop offset="1" stop-color="#0B8CA5"/>
</linearGradient>
<clipPath id="clip0_1148_1499">
<rect width="229.589" height="142" fill="white"/>
</clipPath>
</defs>
</svg>
