<svg width="217" height="147" viewBox="0 0 217 147" fill="none" xmlns="http://www.w3.org/2000/svg">
<path d="M191.317 69.033H27.9482V146.535H191.317V69.033Z" fill="#E6E6E6"/>
<path d="M186.645 75.679H32.6191V140.342H186.645V75.679Z" fill="white"/>
<path d="M160.888 87.7148H156.899V91.7023H160.888V87.7148Z" fill="#E6E6E6"/>
<path d="M54.5021 87.7148H50.5137V91.7023H54.5021V87.7148Z" fill="#0B8CA5"/>
<path d="M63.6926 99.1362H50.3975V112.428H63.6926V99.1362Z" fill="#E6E6E6"/>
<path d="M191.247 64.5549H27.8779V71.4936H191.247V64.5549Z" fill="#0B8CA5"/>
<path d="M33.0354 70.85C33.7458 70.85 34.3218 70.2742 34.3218 69.5639C34.3218 68.8536 33.7458 68.2778 33.0354 68.2778C32.325 68.2778 31.749 68.8536 31.749 69.5639C31.749 70.2742 32.325 70.85 33.0354 70.85Z" fill="white"/>
<path d="M37.9182 70.85C38.6287 70.85 39.2046 70.2742 39.2046 69.5639C39.2046 68.8536 38.6287 68.2778 37.9182 68.2778C37.2078 68.2778 36.6318 68.8536 36.6318 69.5639C36.6318 70.2742 37.2078 70.85 37.9182 70.85Z" fill="white"/>
<path d="M42.802 70.85C43.5124 70.85 44.0884 70.2742 44.0884 69.5639C44.0884 68.8536 43.5124 68.2778 42.802 68.2778C42.0916 68.2778 41.5156 68.8536 41.5156 69.5639C41.5156 70.2742 42.0916 70.85 42.802 70.85Z" fill="white"/>
<path d="M216.176 146.536H0V147H216.176V146.536Z" fill="#E6E6E6"/>
<path d="M110.054 100.466H77.4814V102.335H110.054V100.466Z" fill="#E6E6E6"/>
<path d="M127.781 107.285H77.4814V109.154H127.781V107.285Z" fill="#0B8CA5"/>
<path d="M118.475 113.709H77.4814V115.579H118.475V113.709Z" fill="#E6E6E6"/>
<path d="M101.413 120.109H77.4814V121.978H101.413V120.109Z" fill="#E6E6E6"/>
<path d="M113.6 126.509H77.4814V128.379H113.6V126.509Z" fill="#E6E6E6"/>
<path d="M167.756 87.7148H163.768V91.7023H167.756V87.7148Z" fill="#E6E6E6"/>
<path d="M174.626 87.7148H170.638V91.7023H174.626V87.7148Z" fill="#E6E6E6"/>
<path opacity="0.997" d="M166.526 121.978C170.999 121.978 174.626 118.353 174.626 113.88C174.626 109.408 170.999 105.782 166.526 105.782C162.052 105.782 158.426 109.408 158.426 113.88C158.426 118.353 162.052 121.978 166.526 121.978Z" fill="#0B8CA5"/>
<path d="M43.7675 21.9274C48.8039 21.9274 52.8867 17.8456 52.8867 12.8105C52.8867 7.77537 48.8039 3.6936 43.7675 3.6936C38.7312 3.6936 34.6484 7.77537 34.6484 12.8105C34.6484 17.8456 38.7312 21.9274 43.7675 21.9274Z" fill="#2F2E41"/>
<path d="M21.0731 90.8154H17.0793L15.1797 75.4185H21.0726L21.0731 90.8154Z" fill="#FEB8B8"/>
<path d="M14.2284 89.6748H21.9288V94.5222H9.37988C9.37988 93.2366 9.89071 92.0036 10.8 91.0946C11.7093 90.1855 12.9425 89.6748 14.2284 89.6748Z" fill="#2F2E41"/>
<path d="M14.8397 88.5876L11.0303 87.3924L13.8287 72.1326L19.4512 73.8968L14.8397 88.5876Z" fill="#FEB8B8"/>
<path d="M8.6489 85.4511L15.9962 87.7563L14.5445 92.3812L2.57129 88.6247C2.76194 88.0173 3.07037 87.4535 3.47899 86.9653C3.88761 86.4771 4.38841 86.0742 4.95279 85.7795C5.51717 85.4848 6.13408 85.3041 6.7683 85.2478C7.40252 85.1914 8.04163 85.2606 8.64913 85.4512L8.6489 85.4511Z" fill="#2F2E41"/>
<path d="M16.1387 82.4439C15.9642 82.4438 15.7912 82.4124 15.6279 82.351L12.6894 81.25C12.3596 81.1252 12.0856 80.8861 11.9174 80.5763C11.7492 80.2665 11.6979 79.9065 11.7729 79.5621C12.5125 76.2376 15.033 64.9193 16.4131 58.8486C18.0499 51.6478 41.9282 50.3098 42.9439 50.2564L43.0274 50.252L45.7135 53.6252C46.6841 56.7442 46.3765 59.1771 44.7991 60.8564C40.1963 65.7557 26.4541 62.7156 24.8155 62.3309L17.5117 81.5005C17.4052 81.778 17.2171 82.0168 16.9721 82.1852C16.7271 82.3537 16.4367 82.4439 16.1394 82.4439H16.1387Z" fill="#2F2E41"/>
<path d="M20.3732 84.7234C20.1987 84.7234 20.0256 84.6919 19.8623 84.6306L16.9248 83.5293C16.595 83.4045 16.321 83.1655 16.1528 82.8556C15.9845 82.5458 15.9333 82.1858 16.0083 81.8414C16.7478 78.5169 19.2684 67.1986 20.6485 61.1279C22.2853 53.9271 46.1636 52.589 47.1792 52.5357L47.2628 52.5312L49.948 55.9054C50.9186 59.0245 50.6109 61.4573 49.0336 63.1366C44.431 68.0348 30.6885 64.9958 29.0499 64.611L21.7452 83.7798C21.6388 84.0573 21.4506 84.2961 21.2056 84.4645C20.9606 84.633 20.6703 84.7231 20.3729 84.7232L20.3732 84.7234Z" fill="#2F2E41"/>
<path d="M11.8743 37.8286C11.9822 37.9729 12.0786 38.1255 12.1625 38.285L28.2255 39.9768L30.5382 36.8071L35.7786 39.6706L31.2371 47.3619L11.5372 42.3402C11.0401 42.8247 10.4074 43.1464 9.72301 43.2625C9.03865 43.3787 8.33513 43.2838 7.70602 42.9905C7.07692 42.6972 6.55203 42.2193 6.20119 41.6205C5.85035 41.0217 5.69016 40.3303 5.74195 39.6382C5.79373 38.9462 6.05503 38.2863 6.49109 37.7463C6.92715 37.2063 7.5173 36.8119 8.18306 36.6154C8.84881 36.4189 9.55862 36.4297 10.2181 36.6464C10.8775 36.8631 11.4554 37.2753 11.8748 37.8283L11.8743 37.8286Z" fill="#FEB8B8"/>
<path d="M49.2025 57.1964C48.9702 57.1959 48.7414 57.1402 48.5349 57.0339C45.3229 55.401 39.0685 52.5733 33.2686 51.9816C33.0701 51.9621 32.8779 51.9014 32.7043 51.8033C32.5306 51.7052 32.3795 51.5719 32.2604 51.4119C32.1391 51.2502 32.0523 51.0653 32.0056 50.8686C31.9589 50.672 31.9533 50.4678 31.989 50.2688C32.5123 47.3724 33.7128 39.9968 33.5582 34.0858C33.5126 32.2683 34.087 30.4894 35.1868 29.0416C36.2867 27.5937 37.8465 26.563 39.6099 26.119C40.6713 25.839 41.7493 25.6265 42.8375 25.4827C44.0886 25.3243 45.3594 25.461 46.5482 25.8819C47.7369 26.3028 48.8105 26.9963 49.683 27.9066C50.5555 28.8169 51.2026 29.9189 51.5725 31.1243C51.9424 32.3296 52.0248 33.6048 51.8131 34.8477C50.7789 40.9735 49.7361 49.5292 50.6424 55.5018C50.684 55.7695 50.6507 56.0435 50.5461 56.2934C50.4416 56.5433 50.2699 56.7595 50.05 56.9178C49.8041 57.0979 49.5074 57.1954 49.2025 57.1964Z" fill="#CCCCCC"/>
<path d="M33.8543 41.6158C33.6541 41.6155 33.456 41.5741 33.2724 41.4944L29.0879 39.6837C28.7315 39.5289 28.451 39.2392 28.308 38.878C28.165 38.5168 28.1712 38.1136 28.3252 37.7569L31.5597 30.2868C31.7518 29.8342 32.0313 29.4238 32.382 29.0791C32.7328 28.7344 33.1481 28.4622 33.6041 28.2779C34.0601 28.0937 34.5479 28.001 35.0398 28.0053C35.5316 28.0095 36.0178 28.1106 36.4705 28.3026C36.9233 28.4947 37.3338 28.7741 37.6786 29.1248C38.0233 29.4755 38.2957 29.8906 38.4799 30.3465C38.6642 30.8024 38.7569 31.2901 38.7527 31.7819C38.7484 32.2736 38.6474 32.7596 38.4552 33.2123C38.4482 33.2287 38.4411 33.2451 38.4339 33.2615L35.1994 40.7318C35.0855 40.994 34.8976 41.2173 34.6587 41.3743C34.4198 41.5314 34.1402 41.6153 33.8543 41.6158Z" fill="#CCCCCC"/>
<path d="M43.4328 22.9418C47.8507 22.9418 51.432 19.3613 51.432 14.9445C51.432 10.5278 47.8507 6.94727 43.4328 6.94727C39.015 6.94727 35.4336 10.5278 35.4336 14.9445C35.4336 19.3613 39.015 22.9418 43.4328 22.9418Z" fill="#FEB8B8"/>
<path d="M35.29 11.0149C39.079 13.3273 43.3505 14.7344 47.7723 15.1268L46.4564 13.5508C47.4144 13.9049 48.4225 14.105 49.4432 14.1437C49.9542 14.1585 50.4617 14.0533 50.9247 13.8366C51.3878 13.6199 51.7936 13.2978 52.1095 12.8959C52.3675 12.4788 52.5207 12.0055 52.5562 11.5164C52.5916 11.0273 52.5083 10.5369 52.3132 10.087C51.9122 9.18927 51.2882 8.40906 50.5004 7.82061C49.104 6.71624 47.4559 5.9744 45.7032 5.66123C43.9504 5.34805 42.1474 5.47326 40.4548 6.0257C39.2937 6.37258 38.2538 7.03946 37.4544 7.94991C36.696 8.88521 35.2362 9.7186 35.6244 10.8582L35.29 11.0149Z" fill="#2F2E41"/>
<path d="M44.1494 4.27768C45.7438 2.6608 47.6734 1.413 49.8023 0.622148C51.1535 0.0538545 52.6355 -0.130039 54.0847 0.0907771C55.5134 0.378168 56.8643 1.36616 57.263 2.7676C57.5881 3.91344 57.2523 5.14727 56.7466 6.2265C56.2409 7.30572 55.5657 8.30555 55.1565 9.42447C54.7391 10.5662 54.6136 11.7941 54.7913 12.9966C54.969 14.1991 55.4443 15.3383 56.1741 16.3105C56.9038 17.2828 57.8649 18.0575 58.9701 18.5643C60.0754 19.071 61.2896 19.2937 62.5028 19.2122C61.0992 19.4005 59.8054 20.06 58.4333 20.4108C57.0612 20.7615 55.4419 20.7381 54.4223 19.7552C53.3435 18.7155 53.3219 17.025 53.3742 15.5279L53.6064 8.85108C53.6458 7.71615 53.6797 6.54476 53.2701 5.48504C52.8605 4.42531 51.8876 3.49791 50.7517 3.50766C49.8907 3.51486 49.1289 4.03648 48.4383 4.55067C47.7478 5.06486 47.0171 5.61341 46.1595 5.69002C45.302 5.76663 44.3229 5.13288 44.387 4.27396" fill="#2F2E41"/>
<path d="M29.9839 55.1426C29.4538 55.1419 28.9306 55.0238 28.4517 54.7966C27.9729 54.5694 27.5504 54.2389 27.2148 53.8288C26.8791 53.4188 26.6385 52.9394 26.5105 52.4252C26.3824 51.911 26.37 51.3749 26.4742 50.8553C26.5784 50.3358 26.7965 49.8458 27.1129 49.4207C27.4292 48.9955 27.836 48.6459 28.3038 48.3968C28.7716 48.1478 29.2889 48.0056 29.8183 47.9804C30.3477 47.9553 30.8761 48.0479 31.3654 48.2515C31.5126 48.3136 31.6553 48.3859 31.7924 48.4678L46.364 41.9282L46.7734 37.9772L53.0546 37.8091L53.013 44.3868C53.0054 45.1489 52.7522 45.8882 52.2909 46.4949C51.8296 47.1017 51.185 47.5436 50.4526 47.7549L33.4127 52.6032C33.3798 52.7157 33.3411 52.8265 33.2966 52.9349C33.0232 53.5878 32.5632 54.1455 31.9742 54.5381C31.3852 54.9308 30.6934 55.141 29.9855 55.1424L29.9839 55.1426Z" fill="#FEB8B8"/>
<path d="M52.5237 41.0316C52.345 41.122 52.1498 41.1748 51.9499 41.1867L47.3988 41.4664C47.011 41.4898 46.6297 41.3585 46.3386 41.1012C46.0476 40.8439 45.8704 40.4817 45.8461 40.094L45.3467 31.9691C45.2868 30.9785 45.6227 30.0047 46.2806 29.2616C46.9385 28.5184 47.8646 28.0668 48.8553 28.0059C49.8461 27.9449 50.8205 28.2797 51.5645 28.9365C52.3086 29.5934 52.7614 30.5188 52.8234 31.5092L53.3231 39.6341C53.3405 39.9195 53.2741 40.2038 53.1322 40.452C52.9902 40.7003 52.7789 40.9017 52.5241 41.0316H52.5237Z" fill="#CCCCCC"/>
<path d="M43.3597 53.6843H16.1765C15.9485 53.6843 15.7637 53.8691 15.7637 54.0971V55.5507C15.7637 55.7787 15.9485 55.9635 16.1765 55.9635H43.3597C43.5877 55.9635 43.7725 55.7787 43.7725 55.5507V54.0971C43.7725 53.8691 43.5877 53.6843 43.3597 53.6843Z" fill="#3F3D56"/>
<path d="M5.31836 53.8474V37.8925C5.31904 37.3314 5.54229 36.7935 5.93915 36.3968C6.336 36 6.87407 35.7768 7.43531 35.7761H36.4213C36.9825 35.7767 37.5206 35.9999 37.9175 36.3967C38.3144 36.7935 38.5376 37.3314 38.5382 37.8925V53.8474C38.5376 54.4085 38.3144 54.9465 37.9175 55.3432C37.5206 55.74 36.9825 55.9632 36.4213 55.9638H7.43531C6.87407 55.9631 6.336 55.7399 5.93915 55.3432C5.54229 54.9464 5.31904 54.4085 5.31836 53.8474Z" fill="#3F3D56"/>
<path d="M22.2774 47.8244C23.3567 47.8244 24.2316 46.9497 24.2316 45.8707C24.2316 44.7917 23.3567 43.917 22.2774 43.917C21.1982 43.917 20.3232 44.7917 20.3232 45.8707C20.3232 46.9497 21.1982 47.8244 22.2774 47.8244Z" fill="white"/>
</svg>
