<svg width="188" height="100" viewBox="0 0 188 100" fill="none" xmlns="http://www.w3.org/2000/svg">
<g clip-path="url(#clip0_1148_1578)">
<path d="M163.931 87.0468C159.037 87.0037 154.151 86.6442 149.304 85.9706C149.133 85.947 148.963 85.9213 148.793 85.8976L149.049 39.9389C149.218 39.8039 149.389 39.6711 149.562 39.5424C150.135 39.1134 150.725 38.7112 151.334 38.342C154.271 36.5676 157.71 35.7553 160.082 36.5693L160.119 36.5839C160.639 36.7596 161.119 37.0365 161.531 37.3987C163.614 39.2547 163.267 43.0074 161.586 46.4128C164.92 43.3583 169.127 40.9262 172.882 40.7414C176.545 40.5602 179.162 42.4809 181.386 44.5641C181.459 44.6325 181.531 44.7008 181.602 44.7692C181.639 44.8024 181.674 44.8375 181.71 44.8706C183.405 46.496 185.076 48.3909 184.873 51.1336C184.651 54.1417 182.139 57.4768 179.211 59.8152C176.285 62.1536 172.962 63.7075 169.718 65.2826C166.476 66.8597 163.151 68.566 160.381 71.0968C164.704 67.669 169.623 64.9054 174.408 63.8845C179.192 62.8636 183.787 63.7621 186.04 66.817C186.703 67.7444 187.135 68.8176 187.3 69.9467C187.321 70.0785 187.339 70.2124 187.355 70.3484C187.676 73.1764 186.7 76.5529 184.369 79.4257C181.802 82.5895 177.996 84.783 174.384 85.8744C170.771 86.9657 167.293 87.082 163.931 87.0468Z" fill="white"/>
<path d="M148.954 56.9778L148.959 56.099C149.133 55.82 149.305 55.5396 149.475 55.2579C149.585 55.0836 149.69 54.9072 149.798 54.7307C151.573 51.8156 153.276 48.8823 154.907 45.9308C156.539 42.982 158.095 40.0184 159.577 37.0399C159.611 36.961 159.672 36.8965 159.749 36.8579C159.825 36.8192 159.913 36.8087 159.997 36.8282C160.008 36.8314 160.018 36.8363 160.028 36.8428C160.105 36.8844 160.138 36.9772 160.071 37.1127C159.888 37.4781 159.706 37.8455 159.519 38.2108C158.012 41.1974 156.43 44.1712 154.773 47.1322C153.116 50.0911 151.387 53.0332 149.584 55.9584C149.546 56.0199 149.507 56.0815 149.47 56.143C149.298 56.422 149.126 56.6989 148.954 56.9778Z" fill="white"/>
<path d="M148.892 68.3092L148.895 67.7658C149.066 67.6432 149.237 67.5227 149.408 67.4002C153.435 64.5205 157.462 61.6413 161.489 58.7628C168.081 54.0489 174.674 49.3364 181.267 44.6254C181.302 44.5974 181.343 44.5767 181.386 44.5642C181.532 44.5239 181.618 44.6315 181.603 44.7693C181.594 44.8274 181.574 44.883 181.542 44.9326C181.511 44.9821 181.469 45.0243 181.42 45.0564C177.723 47.6993 174.027 50.3415 170.333 52.983C163.773 57.6724 157.214 62.361 150.656 67.0491C150.239 67.3473 149.821 67.6454 149.405 67.9436C149.234 68.0662 149.063 68.1887 148.892 68.3092Z" fill="white"/>
<path d="M152.038 80.4158C151.125 80.3881 150.226 80.3275 149.336 80.2483C149.166 80.233 148.995 80.2177 148.825 80.2023L148.828 79.6321C148.999 79.6495 149.169 79.667 149.339 79.6823C150.626 79.8028 151.926 79.8883 153.263 79.8999C156.967 79.915 160.664 79.553 164.296 78.8193C168.206 78.0394 172.041 76.9197 175.758 75.4727C179.678 73.954 183.47 72.1229 187.099 69.9971C187.158 69.957 187.229 69.9392 187.3 69.9468C187.462 69.9703 187.51 70.1866 187.355 70.3484C187.325 70.3803 187.29 70.4079 187.252 70.4301C186.801 70.6932 186.349 70.9514 185.895 71.2048C182.247 73.2522 178.441 75.0047 174.515 76.4456C170.786 77.818 166.945 78.8619 163.035 79.5656C159.408 80.2246 155.723 80.5095 152.038 80.4158Z" fill="white"/>
<path d="M147.523 2.33959e-09H22.9285C22.4539 0.00043277 21.9989 0.189679 21.6634 0.526198C21.3278 0.862716 21.1391 1.31901 21.1387 1.79491V86.4603C21.1391 86.9361 21.3278 87.3924 21.6634 87.729C21.9989 88.0655 22.4539 88.2547 22.9285 88.2552H147.523C147.782 88.2552 148.038 88.1989 148.273 88.0901C148.508 87.9814 148.716 87.8228 148.884 87.6253C148.899 87.6098 148.912 87.5933 148.923 87.5759C149.03 87.4449 149.117 87.2985 149.18 87.1416C149.27 86.9258 149.316 86.6941 149.315 86.4602V1.79492C149.315 1.31868 149.126 0.862129 148.79 0.525569C148.454 0.18901 147.998 -2.42826e-05 147.523 2.33959e-09ZM148.804 86.4603C148.804 86.7107 148.731 86.9556 148.593 87.1642C148.47 87.3479 148.304 87.4979 148.108 87.6006C147.928 87.6943 147.727 87.743 147.523 87.7426H22.9285C22.5895 87.7422 22.2645 87.607 22.0247 87.3666C21.785 87.1262 21.6501 86.8002 21.6497 86.4603V1.79492C21.6501 1.45494 21.785 1.129 22.0247 0.888597C22.2645 0.648193 22.5895 0.512954 22.9285 0.512541H147.523C147.863 0.512498 148.188 0.647523 148.428 0.887966C148.669 1.12841 148.804 1.45461 148.804 1.79492V86.4603Z" fill="white"/>
<path d="M149.058 7.19385H21.3936V7.70696H149.058V7.19385Z" fill="white"/>
<path d="M25.7431 5.38778C26.5908 5.38778 27.2781 4.69859 27.2781 3.84843C27.2781 2.99827 26.5908 2.30908 25.7431 2.30908C24.8953 2.30908 24.208 2.99827 24.208 3.84843C24.208 4.69859 24.8953 5.38778 25.7431 5.38778Z" fill="white"/>
<path d="M30.1561 5.38778C31.0039 5.38778 31.6912 4.69859 31.6912 3.84843C31.6912 2.99827 31.0039 2.30908 30.1561 2.30908C29.3084 2.30908 28.6211 2.99827 28.6211 3.84843C28.6211 4.69859 29.3084 5.38778 30.1561 5.38778Z" fill="white"/>
<path d="M34.5692 5.38778C35.417 5.38778 36.1043 4.69859 36.1043 3.84843C36.1043 2.99827 35.417 2.30908 34.5692 2.30908C33.7214 2.30908 33.0342 2.99827 33.0342 3.84843C33.0342 4.69859 33.7214 5.38778 34.5692 5.38778Z" fill="white"/>
<path d="M117.267 19.0713H53.2251C52.5174 19.0713 51.8386 18.7894 51.3382 18.2875C50.8378 17.7857 50.5566 17.1051 50.5566 16.3954C50.5566 15.6857 50.8378 15.0051 51.3382 14.5032C51.8386 14.0014 52.5174 13.7195 53.2251 13.7195H117.267C117.975 13.7195 118.654 14.0014 119.154 14.5032C119.655 15.0051 119.936 15.6857 119.936 16.3954C119.936 17.1051 119.655 17.7857 119.154 18.2875C118.654 18.7894 117.975 19.0713 117.267 19.0713ZM53.2251 14.1312C52.6262 14.1312 52.0519 14.3697 51.6285 14.7943C51.2051 15.219 50.9672 15.7949 50.9672 16.3954C50.9672 16.9959 51.2051 17.5718 51.6285 17.9964C52.0519 18.4211 52.6262 18.6596 53.2251 18.6596H117.267C117.866 18.6596 118.44 18.4211 118.864 17.9964C119.287 17.5718 119.525 16.9959 119.525 16.3954C119.525 15.7949 119.287 15.219 118.864 14.7943C118.44 14.3697 117.866 14.1312 117.267 14.1312H53.2251Z" fill="white"/>
<path d="M53.7606 35.4355H48.0132C47.5777 35.4355 47.16 35.262 46.8521 34.9532C46.5441 34.6444 46.3711 34.2255 46.3711 33.7888C46.3711 33.3521 46.5441 32.9332 46.8521 32.6244C47.16 32.3156 47.5777 32.1421 48.0132 32.1421H53.7606C54.1961 32.1421 54.6138 32.3156 54.9217 32.6244C55.2297 32.9332 55.4027 33.3521 55.4027 33.7888C55.4027 34.2255 55.2297 34.6444 54.9217 34.9532C54.6138 35.262 54.1961 35.4355 53.7606 35.4355Z" fill="#CCCCCC"/>
<path d="M60.5343 40.9931H48.0132C47.5777 40.9931 47.16 40.8196 46.8521 40.5108C46.5441 40.202 46.3711 39.7831 46.3711 39.3464C46.3711 38.9097 46.5441 38.4908 46.8521 38.182C47.16 37.8732 47.5777 37.6997 48.0132 37.6997H60.5343C60.9698 37.6997 61.3875 37.8732 61.6954 38.182C62.0034 38.4908 62.1764 38.9097 62.1764 39.3464C62.1764 39.7831 62.0034 40.202 61.6954 40.5108C61.3875 40.8196 60.9698 40.9931 60.5343 40.9931Z" fill="#CCCCCC"/>
<path d="M54.7869 59.7243H49.0396C48.6041 59.7243 48.1864 59.5508 47.8784 59.242C47.5705 58.9332 47.3975 58.5143 47.3975 58.0776C47.3975 57.6409 47.5705 57.222 47.8784 56.9132C48.1864 56.6044 48.6041 56.4309 49.0396 56.4309H54.7869C55.2225 56.4309 55.6401 56.6044 55.9481 56.9132C56.256 57.222 56.429 57.6409 56.429 58.0776C56.429 58.5143 56.256 58.9332 55.9481 59.242C55.6401 59.5508 55.2225 59.7243 54.7869 59.7243Z" fill="#CCCCCC"/>
<path d="M61.5606 65.2819H49.0396C48.6041 65.2819 48.1864 65.1084 47.8784 64.7996C47.5705 64.4908 47.3975 64.072 47.3975 63.6352C47.3975 63.1985 47.5705 62.7796 47.8784 62.4708C48.1864 62.162 48.6041 61.9885 49.0396 61.9885H61.5606C61.9961 61.9885 62.4138 62.162 62.7218 62.4708C63.0297 62.7796 63.2027 63.1985 63.2027 63.6352C63.2027 64.072 63.0297 64.4908 62.7218 64.7996C62.4138 65.1084 61.9961 65.2819 61.5606 65.2819Z" fill="#CCCCCC"/>
<path d="M92.5555 59.1069H86.8081C86.3726 59.1069 85.9549 58.9334 85.647 58.6246C85.339 58.3158 85.166 57.8969 85.166 57.4602C85.166 57.0234 85.339 56.6046 85.647 56.2958C85.9549 55.987 86.3726 55.8135 86.8081 55.8135H92.5555C92.991 55.8135 93.4087 55.987 93.7166 56.2958C94.0246 56.6046 94.1976 57.0234 94.1976 57.4602C94.1976 57.8969 94.0246 58.3158 93.7166 58.6246C93.4087 58.9334 92.991 59.1069 92.5555 59.1069Z" fill="#CCCCCC"/>
<path d="M99.3292 64.6645H86.8081C86.3726 64.6645 85.9549 64.491 85.647 64.1822C85.339 63.8734 85.166 63.4545 85.166 63.0178C85.166 62.5811 85.339 62.1622 85.647 61.8534C85.9549 61.5446 86.3726 61.3711 86.8081 61.3711H99.3292C99.7647 61.3711 100.182 61.5446 100.49 61.8534C100.798 62.1622 100.971 62.5811 100.971 63.0178C100.971 63.4545 100.798 63.8734 100.49 64.1822C100.182 64.491 99.7647 64.6645 99.3292 64.6645Z" fill="#CCCCCC"/>
<path d="M91.9393 36.4646H86.1919C85.7564 36.4646 85.3387 36.2911 85.0308 35.9822C84.7228 35.6734 84.5498 35.2546 84.5498 34.8178C84.5498 34.3811 84.7228 33.9623 85.0308 33.6535C85.3387 33.3446 85.7564 33.1711 86.1919 33.1711H91.9393C92.3748 33.1711 92.7925 33.3446 93.1004 33.6535C93.4084 33.9623 93.5814 34.3811 93.5814 34.8178C93.5814 35.2546 93.4084 35.6734 93.1004 35.9822C92.7925 36.2911 92.3748 36.4646 91.9393 36.4646Z" fill="#CCCCCC"/>
<path d="M98.713 42.0222H86.1919C85.7564 42.0222 85.3387 41.8487 85.0308 41.5399C84.7228 41.231 84.5498 40.8122 84.5498 40.3755C84.5498 39.9387 84.7228 39.5199 85.0308 39.2111C85.3387 38.9023 85.7564 38.7288 86.1919 38.7288H98.713C99.1485 38.7288 99.5662 38.9023 99.8741 39.2111C100.182 39.5199 100.355 39.9387 100.355 40.3755C100.355 40.8122 100.182 41.231 99.8741 41.5399C99.5662 41.8487 99.1485 42.0222 98.713 42.0222Z" fill="#CCCCCC"/>
<path d="M130.324 35.2297H124.577C124.141 35.2297 123.723 35.0562 123.416 34.7474C123.108 34.4386 122.935 34.0197 122.935 33.583C122.935 33.1463 123.108 32.7274 123.416 32.4186C123.723 32.1098 124.141 31.9363 124.577 31.9363H130.324C130.76 31.9363 131.177 32.1098 131.485 32.4186C131.793 32.7274 131.966 33.1463 131.966 33.583C131.966 34.0197 131.793 34.4386 131.485 34.7474C131.177 35.0562 130.76 35.2297 130.324 35.2297Z" fill="#CCCCCC"/>
<path d="M137.098 40.7873H124.577C124.141 40.7873 123.723 40.6138 123.416 40.305C123.108 39.9962 122.935 39.5773 122.935 39.1406C122.935 38.7039 123.108 38.285 123.416 37.9762C123.723 37.6674 124.141 37.4939 124.577 37.4939H137.098C137.533 37.4939 137.951 37.6674 138.259 37.9762C138.567 38.285 138.74 38.7039 138.74 39.1406C138.74 39.5773 138.567 39.9962 138.259 40.305C137.951 40.6138 137.533 40.7873 137.098 40.7873Z" fill="#CCCCCC"/>
<path d="M37.8727 42.7426C41.2737 42.7426 44.0306 39.9779 44.0306 36.5675C44.0306 33.157 41.2737 30.3923 37.8727 30.3923C34.4718 30.3923 31.7148 33.157 31.7148 36.5675C31.7148 39.9779 34.4718 42.7426 37.8727 42.7426Z" fill="#0B8CA5"/>
<path d="M40.746 39.3465H34.9986C34.8353 39.3463 34.6788 39.2812 34.5634 39.1654C34.4479 39.0496 34.383 38.8927 34.3828 38.7289V34.4063C34.383 34.2426 34.4479 34.0857 34.5634 33.9699C34.6788 33.8541 34.8353 33.789 34.9986 33.7888H36.6166C36.7218 33.7884 36.8253 33.8153 36.9172 33.8667C37.0091 33.9182 37.0862 33.9925 37.141 34.0826L37.5923 34.818H40.746C40.9092 34.8182 41.0658 34.8833 41.1812 34.9991C41.2967 35.1148 41.3616 35.2718 41.3618 35.4355V38.7289C41.3616 38.8927 41.2967 39.0496 41.1812 39.1654C41.0658 39.2812 40.9092 39.3463 40.746 39.3465ZM34.9986 34.2005C34.9442 34.2006 34.892 34.2223 34.8535 34.2609C34.8151 34.2995 34.7934 34.3518 34.7933 34.4063V38.7289C34.7934 38.7835 34.8151 38.8358 34.8535 38.8744C34.892 38.913 34.9442 38.9347 34.9986 38.9348H40.746C40.8004 38.9347 40.8526 38.913 40.891 38.8744C40.9295 38.8358 40.9512 38.7835 40.9512 38.7289V35.4355C40.9512 35.381 40.9295 35.3286 40.891 35.2901C40.8526 35.2515 40.8004 35.2298 40.746 35.2297H37.3629L36.7914 34.2984C36.7732 34.2684 36.7474 34.2436 36.7168 34.2264C36.6862 34.2093 36.6517 34.2004 36.6166 34.2005H34.9986Z" fill="white"/>
<path d="M75.6413 43.7719C79.0422 43.7719 81.7992 41.0072 81.7992 37.5968C81.7992 34.1863 79.0422 31.4216 75.6413 31.4216C72.2404 31.4216 69.4834 34.1863 69.4834 37.5968C69.4834 41.0072 72.2404 43.7719 75.6413 43.7719Z" fill="#0B8CA5"/>
<path d="M78.3101 41.5076H72.9732C72.8099 41.5075 72.6534 41.4423 72.538 41.3266C72.4225 41.2108 72.3576 41.0538 72.3574 40.8901V34.3033C72.3576 34.1396 72.4225 33.9826 72.538 33.8669C72.6534 33.7511 72.8099 33.686 72.9732 33.6858H76.8402C76.9805 33.6859 77.1166 33.7339 77.226 33.822L78.6957 35.0064C78.7677 35.0641 78.8258 35.1373 78.8657 35.2206C78.9055 35.304 78.9261 35.3953 78.9258 35.4877V40.8901C78.9257 41.0538 78.8607 41.2108 78.7453 41.3266C78.6298 41.4423 78.4733 41.5075 78.3101 41.5076ZM72.9732 34.0975C72.9188 34.0975 72.8666 34.1192 72.8281 34.1578C72.7897 34.1964 72.768 34.2487 72.7679 34.3033V40.8901C72.768 40.9447 72.7897 40.997 72.8281 41.0356C72.8666 41.0742 72.9188 41.0959 72.9732 41.096H78.3101C78.3645 41.0959 78.4166 41.0742 78.4551 41.0356C78.4936 40.997 78.5153 40.9447 78.5153 40.8901V35.4877C78.5154 35.4569 78.5085 35.4265 78.4953 35.3987C78.482 35.3709 78.4626 35.3465 78.4386 35.3273L76.9687 34.1428C76.9323 34.1135 76.887 34.0975 76.8402 34.0975H72.9732Z" fill="white"/>
<path d="M77.2834 36.5677H73.9992C73.9448 36.5677 73.8926 36.546 73.8541 36.5074C73.8156 36.4688 73.7939 36.4164 73.7939 36.3618C73.7939 36.3073 73.8156 36.2549 73.8541 36.2163C73.8926 36.1777 73.9448 36.156 73.9992 36.156H77.2834C77.3379 36.156 77.3901 36.1777 77.4286 36.2163C77.4671 36.2549 77.4887 36.3073 77.4887 36.3618C77.4887 36.4164 77.4671 36.4688 77.4286 36.5074C77.3901 36.546 77.3379 36.5677 77.2834 36.5677Z" fill="white"/>
<path d="M77.2834 37.8025H73.9992C73.9448 37.8025 73.8926 37.7809 73.8541 37.7423C73.8156 37.7037 73.7939 37.6513 73.7939 37.5967C73.7939 37.5421 73.8156 37.4898 73.8541 37.4512C73.8926 37.4126 73.9448 37.3909 73.9992 37.3909H77.2834C77.3379 37.3909 77.3901 37.4126 77.4286 37.4512C77.4671 37.4898 77.4887 37.5421 77.4887 37.5967C77.4887 37.6513 77.4671 37.7037 77.4286 37.7423C77.3901 37.7809 77.3379 37.8025 77.2834 37.8025Z" fill="white"/>
<path d="M77.2834 39.0377H73.9992C73.9448 39.0377 73.8926 39.016 73.8541 38.9774C73.8156 38.9388 73.7939 38.8864 73.7939 38.8318C73.7939 38.7772 73.8156 38.7249 73.8541 38.6863C73.8926 38.6477 73.9448 38.626 73.9992 38.626H77.2834C77.3379 38.626 77.3901 38.6477 77.4286 38.6863C77.4671 38.7249 77.4887 38.7772 77.4887 38.8318C77.4887 38.8864 77.4671 38.9388 77.4286 38.9774C77.3901 39.016 77.3379 39.0377 77.2834 39.0377Z" fill="white"/>
<path d="M113.615 42.5368C117.016 42.5368 119.773 39.7721 119.773 36.3617C119.773 32.9512 117.016 30.1865 113.615 30.1865C110.214 30.1865 107.457 32.9512 107.457 36.3617C107.457 39.7721 110.214 42.5368 113.615 42.5368Z" fill="#0B8CA5"/>
<path d="M116.488 38.6259H110.741C110.578 38.6257 110.421 38.5606 110.306 38.4448C110.19 38.329 110.125 38.1721 110.125 38.0083V34.7149C110.125 34.5512 110.19 34.3942 110.306 34.2785C110.421 34.1627 110.578 34.0976 110.741 34.0974H116.488C116.651 34.0976 116.808 34.1627 116.923 34.2785C117.039 34.3942 117.104 34.5512 117.104 34.7149V38.0083C117.104 38.1721 117.039 38.329 116.923 38.4448C116.808 38.5606 116.651 38.6257 116.488 38.6259ZM110.741 34.5091C110.686 34.5091 110.634 34.5308 110.596 34.5694C110.557 34.608 110.536 34.6604 110.536 34.7149V38.0083C110.536 38.0629 110.557 38.1152 110.596 38.1538C110.634 38.1924 110.686 38.2141 110.741 38.2142H116.488C116.543 38.2141 116.595 38.1924 116.633 38.1538C116.672 38.1152 116.693 38.0629 116.693 38.0083V34.7149C116.693 34.6604 116.672 34.608 116.633 34.5694C116.595 34.5308 116.543 34.5091 116.488 34.5091H110.741Z" fill="white"/>
<path d="M113.615 36.9047C113.5 36.9049 113.387 36.8726 113.289 36.8115L110.222 34.8895C110.176 34.8605 110.143 34.8144 110.131 34.7612C110.119 34.7081 110.128 34.6523 110.157 34.606C110.186 34.5598 110.232 34.5269 110.285 34.5146C110.338 34.5023 110.394 34.5116 110.44 34.5404L113.507 36.4624C113.539 36.4827 113.577 36.4934 113.615 36.4934C113.654 36.4934 113.691 36.4827 113.724 36.4624L116.791 34.5404C116.837 34.5116 116.892 34.5023 116.945 34.5146C116.998 34.5269 117.044 34.5598 117.073 34.606C117.102 34.6523 117.111 34.7081 117.099 34.7612C117.087 34.8144 117.054 34.8605 117.008 34.8895L113.942 36.8115C113.844 36.8726 113.731 36.9049 113.615 36.9047Z" fill="white"/>
<path d="M37.8727 67.0317C41.2737 67.0317 44.0306 64.267 44.0306 60.8565C44.0306 57.4461 41.2737 54.6814 37.8727 54.6814C34.4718 54.6814 31.7148 57.4461 31.7148 60.8565C31.7148 64.267 34.4718 67.0317 37.8727 67.0317Z" fill="#0B8CA5"/>
<path d="M40.746 63.1207H34.9986C34.8353 63.1205 34.6788 63.0554 34.5634 62.9397C34.4479 62.8239 34.383 62.6669 34.3828 62.5032V59.2098C34.383 59.0461 34.4479 58.8891 34.5634 58.7733C34.6788 58.6576 34.8353 58.5925 34.9986 58.5923H40.746C40.9092 58.5925 41.0658 58.6576 41.1812 58.7733C41.2967 58.8891 41.3616 59.0461 41.3618 59.2098V62.5032C41.3616 62.6669 41.2967 62.8239 41.1812 62.9397C41.0658 63.0554 40.9092 63.1205 40.746 63.1207ZM34.9986 59.004C34.9442 59.004 34.892 59.0257 34.8535 59.0643C34.815 59.1029 34.7934 59.1552 34.7933 59.2098V62.5032C34.7934 62.5578 34.815 62.6101 34.8535 62.6487C34.892 62.6873 34.9442 62.709 34.9986 62.709H40.746C40.8004 62.709 40.8526 62.6873 40.8911 62.6487C40.9295 62.6101 40.9512 62.5578 40.9512 62.5032V59.2098C40.9512 59.1552 40.9295 59.1029 40.8911 59.0643C40.8526 59.0257 40.8004 59.004 40.746 59.004H34.9986Z" fill="white"/>
<path d="M39.8352 63.1206H35.7045C35.6324 63.1207 35.5616 63.1017 35.4992 63.0655C35.4368 63.0294 35.385 62.9774 35.3489 62.9148C35.3129 62.8522 35.2939 62.7812 35.2939 62.709C35.294 62.6367 35.313 62.5657 35.349 62.5031L36.5932 60.3418C36.6293 60.2792 36.6811 60.2273 36.7435 60.1911C36.8059 60.155 36.8767 60.136 36.9488 60.136C37.0208 60.136 37.0916 60.155 37.154 60.1911C37.2165 60.2273 37.2683 60.2792 37.3043 60.3418L38.1079 61.7377L38.5735 60.929C38.6095 60.8664 38.6614 60.8144 38.7238 60.7783C38.7862 60.7422 38.857 60.7231 38.929 60.7231C39.0011 60.7231 39.0719 60.7422 39.1343 60.7783C39.1967 60.8144 39.2485 60.8664 39.2846 60.929L40.1908 62.5031C40.2269 62.5657 40.2458 62.6367 40.2458 62.709C40.2458 62.7812 40.2268 62.8523 40.1908 62.9148C40.1548 62.9774 40.1029 63.0294 40.0405 63.0655C39.9781 63.1016 39.9073 63.1207 39.8352 63.1206H39.8352ZM39.8352 62.709L38.929 61.1348L38.2857 62.2523C38.2677 62.2836 38.2418 62.3095 38.2106 62.3276C38.1794 62.3457 38.144 62.3552 38.1079 62.3552C38.0719 62.3552 38.0365 62.3457 38.0053 62.3276C37.9741 62.3095 37.9482 62.2836 37.9301 62.2523L36.9488 60.5477L35.7045 62.709H39.8352Z" fill="white"/>
<path d="M40.1303 60.2389C40.357 60.2389 40.5408 60.0546 40.5408 59.8272C40.5408 59.5998 40.357 59.4155 40.1303 59.4155C39.9035 59.4155 39.7197 59.5998 39.7197 59.8272C39.7197 60.0546 39.9035 60.2389 40.1303 60.2389Z" fill="white"/>
<path d="M76.0515 66.414C79.4524 66.414 82.2094 63.6493 82.2094 60.2389C82.2094 56.8284 79.4524 54.0637 76.0515 54.0637C72.6505 54.0637 69.8936 56.8284 69.8936 60.2389C69.8936 63.6493 72.6505 66.414 76.0515 66.414Z" fill="#0B8CA5"/>
<path d="M76.0515 60.3418C75.6861 60.3418 75.3289 60.2332 75.0251 60.0296C74.7213 59.826 74.4845 59.5367 74.3447 59.1982C74.2049 58.8597 74.1683 58.4872 74.2396 58.1278C74.3109 57.7685 74.4868 57.4384 74.7452 57.1793C75.0035 56.9202 75.3327 56.7438 75.6911 56.6723C76.0494 56.6008 76.4209 56.6375 76.7584 56.7777C77.096 56.9179 77.3845 57.1554 77.5875 57.46C77.7905 57.7647 77.8988 58.1229 77.8988 58.4893C77.8983 58.9804 77.7035 59.4513 77.3571 59.7986C77.0108 60.1459 76.5413 60.3413 76.0515 60.3418ZM76.0515 57.0484C75.7673 57.0484 75.4895 57.1329 75.2532 57.2912C75.0169 57.4495 74.8328 57.6746 74.724 57.9379C74.6152 58.2012 74.5868 58.4909 74.6422 58.7704C74.6977 59.0499 74.8345 59.3066 75.0355 59.5081C75.2364 59.7096 75.4924 59.8468 75.7712 59.9024C76.0499 59.958 76.3388 59.9295 76.6013 59.8204C76.8639 59.7114 77.0883 59.5267 77.2462 59.2898C77.4041 59.0528 77.4883 58.7742 77.4883 58.4893C77.4879 58.1073 77.3364 57.741 77.067 57.4709C76.7976 57.2008 76.4324 57.0488 76.0515 57.0484Z" fill="white"/>
<path d="M77.694 63.8412H74.4098C74.2194 63.841 74.0368 63.765 73.9021 63.63C73.7674 63.4949 73.6916 63.3118 73.6914 63.1208C73.6914 62.493 73.9401 61.8909 74.3828 61.447C74.8255 61.0031 75.4259 60.7537 76.0519 60.7537C76.678 60.7537 77.2784 61.0031 77.7211 61.447C78.1638 61.8909 78.4125 62.493 78.4125 63.1208C78.4122 63.3118 78.3365 63.4949 78.2018 63.63C78.0671 63.765 77.8845 63.841 77.694 63.8412ZM76.0519 61.1653C75.5349 61.1659 75.0393 61.3721 74.6737 61.7387C74.3082 62.1053 74.1025 62.6024 74.1019 63.1208C74.102 63.2027 74.1345 63.2811 74.1922 63.339C74.2499 63.3969 74.3282 63.4295 74.4098 63.4296H77.694C77.7757 63.4295 77.8539 63.3969 77.9117 63.339C77.9694 63.2811 78.0018 63.2027 78.0019 63.1208C78.0013 62.6024 77.7957 62.1053 77.4301 61.7387C77.0646 61.3721 76.5689 61.1659 76.0519 61.1653Z" fill="white"/>
<path d="M16.6137 96.9905H19.1302L20.3273 87.2568L16.6133 87.257L16.6137 96.9905Z" fill="#FFB8B8"/>
<path d="M23.9834 99.3335L16.0744 99.3339L16.0743 96.2696L20.9275 96.2694C21.738 96.2693 22.5152 96.5921 23.0883 97.1668C23.6614 97.7414 23.9834 98.5208 23.9834 99.3335L23.9834 99.3335Z" fill="#2F2E41"/>
<path d="M7.17131 96.9905H9.68784L10.8849 87.2568L7.1709 87.257L7.17131 96.9905Z" fill="#FFB8B8"/>
<path d="M14.541 99.3335L6.63207 99.3339L6.63193 96.2696L11.4851 96.2694C12.2956 96.2693 13.0728 96.5921 13.6459 97.1668C14.219 97.7414 14.541 98.5208 14.541 99.3335L14.541 99.3335Z" fill="#2F2E41"/>
<path d="M7.47826 68.0005C7.74938 67.8257 7.97897 67.5933 8.15085 67.3198C8.32273 67.0463 8.43272 66.7384 8.47308 66.4176C8.51344 66.0969 8.48318 65.7712 8.38443 65.4635C8.28569 65.1557 8.12086 64.8735 7.90156 64.6365L9.55855 41.0562L4.78556 41.5203L4.65446 64.6126C4.28195 65.0085 4.06716 65.5276 4.05081 66.0716C4.03446 66.6156 4.21768 67.1467 4.56576 67.5644C4.91383 67.982 5.40257 68.257 5.93937 68.3374C6.47616 68.4178 7.02372 68.2979 7.47827 68.0005H7.47826Z" fill="#FFB8B8"/>
<path d="M16.6882 92.0881C16.4624 92.0874 16.2447 92.004 16.0758 91.8537C15.9069 91.7034 15.7985 91.4965 15.7709 91.2718L14.3082 79.0033C14.2876 78.8305 14.2054 78.6711 14.0767 78.5544C13.948 78.4377 13.7816 78.3717 13.6081 78.3685C13.4346 78.3652 13.2659 78.4251 13.133 78.5369C13.0001 78.6488 12.9121 78.8051 12.8851 78.977L11.0425 90.7236C11.0091 90.942 10.8986 91.1412 10.7312 91.2848C10.5637 91.4283 10.3504 91.5068 10.13 91.506H7.14344C7.02155 91.5059 6.90087 91.4818 6.78835 91.4348C6.67582 91.3878 6.57369 91.3189 6.48783 91.2321C6.40197 91.1454 6.33408 91.0424 6.28807 90.9293C6.24206 90.8161 6.21884 90.6949 6.21975 90.5726L7.64515 64.5271C7.64568 64.3054 7.72597 64.0913 7.87128 63.9241C8.01659 63.757 8.21715 63.648 8.43613 63.6173L19.5191 62.004C19.6507 61.9848 19.785 61.9944 19.9126 62.0321C20.0403 62.0699 20.1583 62.1348 20.2586 62.2224C20.3589 62.3101 20.4391 62.4185 20.4938 62.5401C20.5485 62.6617 20.5763 62.7938 20.5754 62.9272L20.3821 91.0358C20.3805 91.2727 20.2884 91.5 20.1247 91.6708C19.9611 91.8417 19.7384 91.9432 19.5024 91.9544L16.7321 92.0869C16.7174 92.0877 16.7028 92.0881 16.6882 92.0881Z" fill="#2F2E41"/>
<path d="M10.9423 65.5111C9.87621 65.507 8.81889 65.3182 7.81695 64.9531C7.6471 64.8903 7.49958 64.7786 7.39299 64.6319C7.2864 64.4851 7.22551 64.3101 7.21799 64.1287C7.12238 62.001 6.56302 51.049 4.93454 44.3685C4.61802 43.058 4.69543 41.6829 5.15702 40.4164C5.61861 39.15 6.44372 38.0489 7.52835 37.252C7.61594 37.1888 7.70525 37.1269 7.79625 37.066C8.7381 36.4373 9.82471 36.0607 10.9527 35.972C12.0807 35.8833 13.2126 36.0856 14.2406 36.5595C15.3026 37.036 16.2254 37.7772 16.9211 38.7124C17.6168 39.6476 18.0623 40.7458 18.2152 41.9024L20.8708 61.6733C20.8879 61.7969 20.8797 61.9227 20.8469 62.0431C20.814 62.1634 20.7571 62.2758 20.6797 62.3735C20.6039 62.4704 20.5093 62.551 20.4015 62.6102C20.2938 62.6693 20.1752 62.706 20.0529 62.7178C19.1327 62.8099 17.2243 63.1675 14.7818 64.5283C13.6072 65.1808 12.285 65.5192 10.9423 65.5111Z" fill="white"/>
<path d="M7.69548 49.1225L3.32529 47.9343C3.08901 47.8698 2.88789 47.7139 2.76608 47.5008C2.64426 47.2878 2.61169 47.035 2.67551 46.7979L4.21181 41.1158C4.37636 40.5071 4.7598 39.9811 5.2882 39.6392C5.8166 39.2972 6.45253 39.1636 7.07337 39.264C7.69421 39.3644 8.256 39.6918 8.65039 40.183C9.04479 40.6742 9.24387 41.2944 9.20924 41.9241L8.85951 48.2796C8.85194 48.4174 8.81376 48.5517 8.74776 48.6728C8.68176 48.7939 8.5896 48.8987 8.47803 48.9795C8.36646 49.0603 8.23829 49.1151 8.10289 49.1398C7.9675 49.1646 7.8283 49.1587 7.69548 49.1225Z" fill="white"/>
<path d="M12.561 33.8751C15.3453 33.8751 17.6025 31.6116 17.6025 28.8195C17.6025 26.0274 15.3453 23.7639 12.561 23.7639C9.77668 23.7639 7.51953 26.0274 7.51953 28.8195C7.51953 31.6116 9.77668 33.8751 12.561 33.8751Z" fill="#FFB8B8"/>
<path d="M30.8299 38.7521C30.8047 38.8631 30.7883 38.976 30.7808 39.0897L21.9632 44.1908L19.82 42.9535L17.5352 45.953L22.1201 49.2301L32.1797 41.2718C32.59 41.4241 33.0368 41.4474 33.4606 41.3388C33.8845 41.2303 34.2653 40.9948 34.5525 40.6639C34.8397 40.333 35.0196 39.9222 35.0683 39.4862C35.1171 39.0503 35.0323 38.6097 34.8253 38.2233C34.6182 37.8368 34.2988 37.5227 33.9094 37.3227C33.52 37.1227 33.0792 37.0464 32.6454 37.1038C32.2117 37.1612 31.8057 37.3496 31.4814 37.6441C31.1571 37.9385 30.9299 38.325 30.8299 38.7521V38.7521Z" fill="#FFB8B8"/>
<path d="M21.2328 44.4368L17.4346 46.9086C17.229 47.0421 16.979 47.0883 16.7395 47.0372C16.5 46.986 16.2905 46.8417 16.1569 46.6359L12.961 41.6973C12.6186 41.1684 12.4837 40.531 12.5822 39.9081C12.6807 39.2853 13.0057 38.7211 13.4945 38.3243C13.9833 37.9275 14.6013 37.7263 15.2293 37.7594C15.8573 37.7925 16.4509 38.0576 16.8955 38.5035L21.3832 43.0049C21.4806 43.1025 21.5549 43.2206 21.6008 43.3507C21.6468 43.4808 21.6631 43.6196 21.6487 43.7568C21.6343 43.8941 21.5895 44.0264 21.5175 44.144C21.4456 44.2617 21.3483 44.3617 21.2328 44.4368Z" fill="white"/>
<path d="M8.99327 32.8193C9.93379 33.8239 11.6804 33.2846 11.803 31.9121C11.8126 31.8055 11.8119 31.6983 11.8009 31.5919C11.7376 30.9839 11.3874 30.432 11.4713 29.7901C11.4903 29.6303 11.5496 29.478 11.6437 29.3477C12.3932 28.3413 14.1525 29.7979 14.8598 28.8868C15.2936 28.3281 14.7837 27.4486 15.1165 26.8242C15.5558 26.0001 16.8569 26.4066 17.6729 25.9553C18.5807 25.4532 18.5264 24.0564 17.9288 23.2068C17.2 22.1707 15.9222 21.6179 14.6603 21.5382C13.3984 21.4585 12.1452 21.8006 10.9672 22.261C9.62863 22.7841 8.30127 23.507 7.47755 24.6873C6.47582 26.1226 6.37942 28.0523 6.8804 29.7307C7.18516 30.7516 8.22524 31.9989 8.99327 32.8193Z" fill="#2F2E41"/>
<path d="M28.9421 99.3482H0.205263C0.150824 99.3482 0.0986144 99.3265 0.0601201 99.2879C0.0216257 99.2493 0 99.197 0 99.1424C0 99.0878 0.0216257 99.0354 0.0601201 98.9968C0.0986144 98.9582 0.150824 98.9365 0.205263 98.9365H28.9421C28.9966 98.9365 29.0488 98.9582 29.0873 98.9968C29.1258 99.0354 29.1474 99.0878 29.1474 99.1424C29.1474 99.197 29.1258 99.2493 29.0873 99.2879C29.0488 99.3265 28.9966 99.3482 28.9421 99.3482Z" fill="white"/>
</g>
<defs>
<clipPath id="clip0_1148_1578">
<rect width="187.449" height="99.3482" fill="white"/>
</clipPath>
</defs>
</svg>
