<svg width="291" height="322" viewBox="0 0 291 322" fill="none" xmlns="http://www.w3.org/2000/svg">
<path d="M64.0425 280.619L51.8086 291.872L61.5312 275.572C53.8712 261.693 41.3435 249.698 41.3435 249.698C41.3435 249.698 15.3528 274.578 15.3528 294.136C15.3528 313.693 26.9892 320.522 41.3435 320.522C55.6976 320.522 67.334 313.693 67.334 294.136C67.334 289.783 66.0445 285.166 64.0425 280.619Z" fill="#055E70"/>
<path d="M48.6623 292.481V293.445C48.605 304.651 46.7136 313.394 43.0023 319.55C42.9497 319.641 42.8924 319.727 42.8399 319.818L42.4243 319.565L42.0279 319.317C46.1451 312.669 47.6019 303.272 47.6545 293.498C47.6592 293.183 47.664 292.863 47.6592 292.543C47.6449 288.406 47.3918 284.22 46.9858 280.154C46.9571 279.839 46.9237 279.519 46.8903 279.2C46.3266 273.835 45.5147 268.71 44.6836 264.257C44.6262 263.942 44.5642 263.627 44.5021 263.317C43.0644 255.786 41.598 250.331 41.2637 249.124C41.2255 248.976 41.2016 248.895 41.1968 248.876L41.6505 248.747L41.6553 248.742L42.1139 248.613C42.1186 248.632 42.1998 248.904 42.3336 249.41C42.8447 251.3 44.1725 256.43 45.4764 263.198C45.5337 263.503 45.5958 263.818 45.6531 264.133C46.3314 267.746 46.9953 271.783 47.5207 276.021C47.6545 277.085 47.7739 278.135 47.879 279.171C47.9171 279.491 47.9506 279.811 47.9792 280.126C48.4187 284.521 48.6464 288.639 48.6623 292.481Z" fill="white"/>
<path d="M45.4764 263.198C45.1564 263.241 44.8316 263.284 44.502 263.317C43.607 263.409 42.7079 263.455 41.8082 263.456C37.9737 263.461 34.187 262.606 30.7269 260.955C30.5263 261.208 30.3257 261.461 30.1204 261.718C33.7602 263.494 37.7579 264.414 41.8082 264.41C42.7686 264.41 43.7285 264.359 44.6836 264.257C45.0083 264.224 45.3331 264.181 45.6531 264.133C48.2947 263.755 50.8635 262.977 53.2715 261.828C53.0661 261.566 52.8655 261.308 52.6697 261.055C50.3906 262.119 47.9667 262.841 45.4764 263.198Z" fill="white"/>
<path d="M47.8791 279.171C47.5495 279.19 47.2199 279.2 46.8904 279.2C46.79 279.205 46.685 279.205 46.5847 279.205C42.4298 279.205 38.3366 278.201 34.6539 276.279C30.9712 274.357 27.8083 271.573 25.4348 268.166C25.2438 268.448 25.0527 268.729 24.8665 269.015C27.3403 272.463 30.6007 275.272 34.3775 277.21C38.1544 279.148 42.3389 280.159 46.5847 280.159C46.7184 280.159 46.8521 280.159 46.9859 280.154C47.3202 280.15 47.6498 280.14 47.9793 280.126C53.0791 279.865 57.9957 278.142 62.1413 275.162C61.9885 274.881 61.8356 274.599 61.678 274.318C57.649 277.243 52.8534 278.929 47.8791 279.171Z" fill="white"/>
<path d="M48.6623 292.482C48.3279 292.51 47.9936 292.529 47.6592 292.544C47.301 292.558 46.9428 292.567 46.5846 292.567C41.0016 292.561 35.5708 290.748 31.1055 287.399C26.6401 284.051 23.3803 279.348 21.8142 273.993C21.5993 274.38 21.3844 274.762 21.179 275.148C22.9435 280.49 26.348 285.141 30.9087 288.439C35.4695 291.737 40.9545 293.516 46.5846 293.522C46.9428 293.522 47.301 293.517 47.6545 293.498C47.9936 293.488 48.328 293.469 48.6623 293.446C55.4156 292.918 61.7159 289.845 66.2872 284.85C66.1869 284.497 66.0722 284.149 65.9576 283.796C61.5422 288.828 55.3384 291.944 48.6623 292.482Z" fill="white"/>
<path d="M289.248 322H0.757193C0.556373 322 0.363778 321.92 0.221776 321.778C0.0797749 321.636 0 321.444 0 321.243C0 321.043 0.0797749 320.85 0.221776 320.708C0.363778 320.567 0.556373 320.487 0.757193 320.487H289.248C289.449 320.487 289.641 320.567 289.783 320.708C289.925 320.85 290.005 321.043 290.005 321.243C290.005 321.444 289.925 321.636 289.783 321.778C289.641 321.92 289.449 322 289.248 322Z" fill="#055E70"/>
<path d="M202.891 21.8825C195.761 11.8506 181.656 11.3831 181.656 11.3831C181.656 11.3831 167.91 9.91934 159.093 25.1981C150.874 39.4391 162.454 57.1409 162.454 57.1409C164.743 57.278 174.639 57.3378 204.087 53.7026L205.407 46.593L209.192 53.0765C210.765 52.8846 212.402 52.686 214.113 52.4795C213.339 44.9349 209.752 31.5352 202.891 21.8825Z" fill="#2F2E41"/>
<path d="M219.698 162.244L217.809 97.3264L204.949 102.948L211.154 162.948C209.817 163.984 208.85 165.424 208.398 167.054C207.946 168.684 208.034 170.416 208.647 171.992C209.261 173.569 210.367 174.905 211.803 175.801C213.238 176.698 214.924 177.107 216.611 176.969C218.298 176.83 219.895 176.15 221.164 175.031C222.433 173.911 223.306 172.412 223.653 170.757C224 169.102 223.802 167.379 223.089 165.845C222.377 164.311 221.187 163.048 219.698 162.244Z" fill="#FFB8B8"/>
<path d="M202.94 105.758C211.327 106.569 217.351 103.107 221.426 96.1217L218.613 83.2521C218.613 79.0653 217.277 74.9874 214.8 71.6104C212.323 68.2335 208.833 65.7331 204.838 64.4723L203.342 64.0005L202.94 105.758Z" fill="#055E70"/>
<path d="M132.984 87.9075C132.874 87.9075 132.765 87.8961 132.657 87.8735L117.143 87.6119L117.109 87.2265L117.11 87.2098L118.397 55.2712C118.412 54.9449 118.49 54.6247 118.628 54.3287C118.767 54.0328 118.962 53.7669 119.203 53.5464C119.444 53.3259 119.727 53.1551 120.034 53.0436C120.341 52.9321 120.667 52.8822 120.994 52.8968L133.42 53.4504C133.747 53.465 134.067 53.5436 134.363 53.6819C134.659 53.8201 134.925 54.0153 135.145 54.2562C135.366 54.4972 135.537 54.7791 135.648 55.086C135.76 55.393 135.81 55.7188 135.795 56.045L134.573 86.3814C134.556 86.7914 134.381 87.179 134.085 87.4634C133.789 87.7478 133.395 87.9069 132.984 87.9074L132.984 87.9075Z" fill="#0B8CA5"/>
<path d="M131.294 87.93C131.254 87.93 131.214 87.929 131.174 87.9272L118.993 87.3846C118.302 87.353 117.651 87.0486 117.184 86.5382C116.717 86.0278 116.471 85.353 116.501 84.662L117.802 55.4998C117.833 54.8413 118.123 54.2217 118.61 53.7768C119.097 53.332 119.74 53.0982 120.399 53.1269L132.825 53.6803C133.484 53.7104 134.105 54.0006 134.55 54.487C134.995 54.9735 135.229 55.6165 135.2 56.2751L133.899 85.4373C133.869 86.1079 133.582 86.7412 133.096 87.2054C132.611 87.6696 131.965 87.9291 131.294 87.93Z" fill="#2F2E41"/>
<path d="M125.84 62.5212C126.822 62.5212 127.619 61.7254 127.619 60.7438C127.619 59.7621 126.822 58.9663 125.84 58.9663C124.857 58.9663 124.061 59.7621 124.061 60.7438C124.061 61.7254 124.857 62.5212 125.84 62.5212Z" fill="#0B8CA5"/>
<path d="M140.628 95.8427V107.565L129.294 89.7206C130.1 88.3442 130.438 86.7445 130.259 85.1601C130.081 83.5757 129.394 82.0915 128.302 80.929C127.21 79.7665 125.771 78.9879 124.199 78.7094C122.628 78.4309 121.009 78.6674 119.583 79.3836C118.157 80.0998 117.002 81.2574 116.288 82.6837C115.575 84.1099 115.342 85.7284 115.625 87.2976C115.907 88.8669 116.69 90.3028 117.856 91.3912C119.022 92.4796 120.509 93.1621 122.096 93.337L137.939 121.387C138.765 122.849 140.037 124.01 141.57 124.7C143.102 125.39 144.815 125.573 146.459 125.223C148.103 124.873 149.592 124.007 150.709 122.752C151.827 121.497 152.514 119.919 152.671 118.247L154.631 97.3554L140.628 95.8427Z" fill="#FFB8B8"/>
<path d="M156.144 104.918C148.246 105.682 142.573 102.422 138.735 95.8429L141.385 83.7223C141.385 79.7792 142.642 75.9387 144.975 72.7583C147.308 69.5779 150.594 67.2231 154.358 66.0357L155.766 65.5913L156.144 104.918Z" fill="#055E70"/>
<path d="M174.456 314.972L165.814 313.571L167.11 279.601L179.864 281.668L174.456 314.972Z" fill="#FFB6B6"/>
<path d="M176.397 321.499L148.169 321.528L148.168 321.171C148.165 318.259 149.32 315.466 151.378 313.405C153.437 311.344 156.23 310.185 159.144 310.181H159.145L176.386 310.164L176.397 321.499Z" fill="#2F2E41"/>
<path d="M215.752 295.191L207.936 299.131L189.006 270.883L200.542 265.068L215.752 295.191Z" fill="#FFB6B6"/>
<path d="M221.569 301.756L196.366 314.461L196.206 314.142C194.893 311.543 194.668 308.529 195.579 305.763C196.49 302.998 198.464 300.708 201.065 299.396L201.066 299.396L216.459 291.636L221.569 301.756Z" fill="#2F2E41"/>
<path d="M180.688 54.2099C189.175 54.2099 196.055 47.3355 196.055 38.8554C196.055 30.3754 189.175 23.501 180.688 23.501C172.2 23.501 165.32 30.3754 165.32 38.8554C165.32 47.3355 172.2 54.2099 180.688 54.2099Z" fill="#FFB8B8"/>
<path d="M199.739 23.3774L185.803 16.0835L166.559 19.0675L162.577 36.6386C182.231 39.4626 195.835 41.0824 200.403 36.307L199.739 23.3774Z" fill="#2F2E41"/>
<path d="M155.903 134.867C155.903 134.867 144.188 158.807 157.168 194.231L193.019 285.572L210.158 275.449L192.688 236.124L206.899 187.991C210.171 177.082 211.18 165.621 209.863 154.31C208.839 145.845 206.462 137.237 201.292 132.898C189.126 122.687 155.903 134.867 155.903 134.867Z" fill="#2F2E41"/>
<path d="M175.501 229.17L162.503 295.011L179.813 298.272L190.702 241.281L175.501 229.17Z" fill="#2F2E41"/>
<path d="M192.022 61.7065L172.153 61.9712L154.761 65.9686L155.792 135.572C155.792 135.572 187.237 144.461 201.048 132.168L210.158 67.0226C205.047 64.1358 198.908 62.474 192.022 61.7065Z" fill="#055E70"/>
<path d="M190.263 23.1396C195.699 23.1396 200.106 18.7362 200.106 13.3043C200.106 7.87242 195.699 3.46899 190.263 3.46899C184.826 3.46899 180.419 7.87242 180.419 13.3043C180.419 18.7362 184.826 23.1396 190.263 23.1396Z" fill="#2F2E41"/>
<path d="M180.419 11.0345C180.419 9.57997 180.741 8.14335 181.363 6.82831C181.985 5.51326 182.892 4.35254 184.017 3.42989C185.143 2.50724 186.459 1.84565 187.871 1.49281C189.283 1.13998 190.757 1.10469 192.184 1.38951C190.924 0.795532 189.552 0.475785 188.159 0.451453C186.765 0.427121 185.383 0.698762 184.103 1.24837C182.822 1.79799 181.674 2.61303 180.732 3.63958C179.791 4.66612 179.079 5.88075 178.642 7.20303C178.206 8.52531 178.056 9.92509 178.202 11.3097C178.348 12.6943 178.786 14.0322 179.488 15.2348C180.191 16.4373 181.14 17.4771 182.275 18.2853C183.41 19.0936 184.703 19.6518 186.07 19.923C184.381 19.1297 182.953 17.8727 181.952 16.2988C180.952 14.7249 180.42 12.8991 180.419 11.0345Z" fill="#2F2E41"/>
</svg>
